<svg width="70" height="70" viewBox="0 0 70 70" fill="none" xmlns="http://www.w3.org/2000/svg">
<path d="M38.7778 38.7778L42.5556 10.4444L23.6667 38.7778H38.7778Z" fill="#FF7500"/>
<path d="M33.1111 33.1111L23.6667 38.7778H36.3973L38.7778 33.1111H33.1111Z" fill="black"/>
<path d="M48.2222 33.1111L27.4445 61.4444L33.1111 33.1111H48.2222Z" fill="#FF7500"/>
<path d="M61.4444 13.2778L57.6185 2.38303L50.0963 11.1438L61.4444 13.2778ZM68 35C68 53.2254 53.2254 68 35 68L35 70C54.33 70 70 54.33 70 35L68 35ZM35 68C16.7746 68 2 53.2254 2 35L-1.48619e-06 35C-6.41247e-07 54.33 15.67 70 35 70L35 68ZM2 35C2 17.5712 15.7549 2 35 2L35 -1.48619e-06C14.5785 -5.93534e-07 -2.2931e-06 16.5399 -1.48619e-06 35L2 35ZM35 2C40.6644 2 46.8444 3.08206 54.0348 8.2286L55.1989 6.60227C47.6071 1.16842 40.9987 -1.7484e-06 35 -1.48619e-06L35 2Z" fill="#FF7500"/>
</svg>
