<svg width="38" height="38" viewBox="0 0 38 38" fill="none" xmlns="http://www.w3.org/2000/svg">
<path d="M21 21L23 6L13 21H21Z" fill="white"/>
<path d="M18 18L13 21H19.7397L21 18H18Z" fill="#999999"/>
<path d="M26 18L15 33L18 18H26Z" fill="white"/>
<path d="M33 7.5L31.1135 2.0434L27.3312 6.40545L33 7.5ZM36.5 19C36.5 28.665 28.665 36.5 19 36.5L19 37.5C29.2173 37.5 37.5 29.2173 37.5 19L36.5 19ZM19 36.5C9.33502 36.5 1.5 28.665 1.5 19L0.499999 19C0.5 29.2173 8.78273 37.5 19 37.5L19 36.5ZM1.5 19C1.5 9.75784 8.7941 1.5 19 1.5L19 0.499999C8.2059 0.5 0.499999 9.24216 0.499999 19L1.5 19ZM19 1.5C22.0576 1.5 25.4012 2.09478 29.3042 4.955L29.8953 4.14839C25.7907 1.14046 22.2295 0.499999 19 0.499999L19 1.5Z" fill="white"/>
</svg>
