<svg width="38" height="45" viewBox="0 0 38 45" fill="none" xmlns="http://www.w3.org/2000/svg">
<circle cx="19" cy="21" r="19" fill="white"/>
<circle cx="19.0001" cy="21" r="16.8354" fill="url(#paint0_radial_415_754)"/>
<path d="M12.5859 26.3711L16.3066 25.0527C16.3066 25.541 16.4434 25.9707 16.7168 26.3418C16.9902 26.7129 17.2637 26.957 17.5371 27.0742L17.9473 27.2793V31.0879C16.2871 31.0879 14.8711 30.3652 13.6992 28.9199C12.9766 28.002 12.6055 27.1523 12.5859 26.3711ZM12.8203 16.1172C12.8203 13.9688 13.7383 12.3574 15.5742 11.2832C16.4141 10.7754 17.2051 10.5117 17.9473 10.4922V14.3594C17.459 14.4961 17.0977 14.8477 16.8633 15.4141C16.7852 15.5898 16.7461 15.7754 16.7461 15.9707C16.7461 16.7715 17.3418 17.4551 18.5332 18.0215C18.7871 18.1387 19.1973 18.3145 19.7637 18.5488C20.7012 18.9199 21.3652 19.2227 21.7559 19.457C23.3379 20.3945 24.3926 21.3516 24.9199 22.3281C25.3105 23.0898 25.5059 23.9395 25.5059 24.877C25.5059 26.6543 24.832 28.1777 23.4844 29.4473C22.332 30.541 21.0234 31.0879 19.5586 31.0879V27.2793C20.3203 27.1816 20.8574 26.7812 21.1699 26.0781C21.3066 25.7656 21.375 25.4238 21.375 25.0527C21.375 24.0566 20.6328 23.2363 19.1484 22.5918C18.875 22.4746 18.4453 22.3086 17.8594 22.0938C17.1758 21.8594 16.6973 21.6738 16.4238 21.5371C14.7441 20.7363 13.6699 19.7012 13.2012 18.4316C12.9473 17.748 12.8203 16.9766 12.8203 16.1172ZM19.5586 14.3594V10.4922C21.1992 10.4922 22.5762 11.1855 23.6895 12.5723C24.334 13.3926 24.666 14.1348 24.6855 14.7988L20.877 16.0586C20.877 15.2383 20.4766 14.6816 19.6758 14.3887C19.5977 14.3691 19.5586 14.3594 19.5586 14.3594Z" fill="white"/>
<defs>
<radialGradient id="paint0_radial_415_754" cx="0" cy="0" r="1" gradientUnits="userSpaceOnUse" gradientTransform="translate(19.0001 21) rotate(90) scale(16.8354)">
<stop offset="0.5" stop-color="#F97100"/>
<stop offset="0.885" stop-color="#E06203"/>
<stop offset="1" stop-color="#AA4109"/>
</radialGradient>
</defs>
</svg>
