<svg width="21" height="19" viewBox="0 0 21 19" fill="none" xmlns="http://www.w3.org/2000/svg">
<path d="M0.381383 18.1408C0.624101 18.3831 0.95971 18.5222 1.30269 18.5222H1.46574H2.15951H19.6975C20.0402 18.5222 20.3759 18.3831 20.6186 18.1406C20.8607 17.8982 21 17.5627 21 17.2198V6.44827H0C0 6.44827 0 16.8768 0 17.2198C0 17.5627 0.139292 17.8982 0.381383 18.1408Z" fill="#FF7500"/>
<path d="M21 5.2068H0V5.97793H21V5.2068Z" fill="#FF7500"/>
<path d="M2.15951 1.49988H1.46574H1.30269C0.959738 1.49988 0.624101 1.63871 0.381383 1.8812C0.139264 2.12375 0 2.4591 0 2.80179V4.31524H21V2.80179C21 2.4591 20.8607 2.12375 20.6182 1.8812C20.3759 1.63871 20.0402 1.49988 19.6975 1.49988H17.4881V3.20482C17.4881 3.52287 17.2301 3.78089 16.9118 3.78089H15.6975C15.3792 3.78089 15.1218 3.52287 15.1218 3.20482V1.49988H5.87896V3.20482C5.87896 3.52287 5.62071 3.78089 5.30298 3.78089H4.08824C3.76982 3.78089 3.51251 3.52287 3.51251 3.20482V1.49988H2.15951Z" fill="#FF7500"/>
<path d="M21 4.31525H0V5.2068H21V4.31525Z" fill="#FF7500"/>
<path d="M4.08826 3.20483H5.30299V1.49989V0H4.08826V1.49989V3.20483Z" fill="#9B9B9B"/>
<path d="M15.6975 3.20483H16.9118V1.49989V0H15.6975V1.49989V3.20483Z" fill="#9B9B9B"/>
<path d="M8.19531 14.457L9.43555 14.0176C9.43555 14.1803 9.48112 14.3236 9.57227 14.4473C9.66341 14.571 9.75456 14.6523 9.8457 14.6914L9.98242 14.7598V16.0293C9.42904 16.0293 8.95703 15.7884 8.56641 15.3066C8.32552 15.0007 8.20182 14.7174 8.19531 14.457ZM8.27344 11.0391C8.27344 10.3229 8.57943 9.78581 9.19141 9.42773C9.47135 9.25846 9.73503 9.17057 9.98242 9.16406V10.4531C9.81966 10.4987 9.69922 10.6159 9.62109 10.8047C9.59505 10.8633 9.58203 10.9251 9.58203 10.9902C9.58203 11.2572 9.7806 11.485 10.1777 11.6738C10.2624 11.7129 10.3991 11.7715 10.5879 11.8496C10.9004 11.9733 11.1217 12.0742 11.252 12.1523C11.7793 12.4648 12.1309 12.7839 12.3066 13.1094C12.4368 13.3633 12.502 13.6465 12.502 13.959C12.502 14.5514 12.2773 15.0592 11.8281 15.4824C11.444 15.847 11.0078 16.0293 10.5195 16.0293V14.7598C10.7734 14.7272 10.9525 14.5938 11.0566 14.3594C11.1022 14.2552 11.125 14.1413 11.125 14.0176C11.125 13.6855 10.8776 13.4121 10.3828 13.1973C10.2917 13.1582 10.1484 13.1029 9.95312 13.0312C9.72526 12.9531 9.56576 12.8913 9.47461 12.8457C8.91471 12.5788 8.55664 12.2337 8.40039 11.8105C8.31576 11.5827 8.27344 11.3255 8.27344 11.0391ZM10.5195 10.4531V9.16406C11.0664 9.16406 11.5254 9.39518 11.8965 9.85742C12.1113 10.1309 12.222 10.3783 12.2285 10.5996L10.959 11.0195C10.959 10.7461 10.8255 10.5605 10.5586 10.4629C10.5326 10.4564 10.5195 10.4531 10.5195 10.4531Z" fill="white"/>
</svg>
