<svg width="29" height="25" viewBox="0 0 29 25" fill="none" xmlns="http://www.w3.org/2000/svg">
<mask id="mask0_2_383" style="mask-type:alpha" maskUnits="userSpaceOnUse" x="12" y="5" width="17" height="17">
<rect x="12.5" y="5.46875" width="15.625" height="16.3352" fill="#D9D9D9"/>
</mask>
<g mask="url(#mask0_2_383)">
<path fill-rule="evenodd" clip-rule="evenodd" d="M28.125 8.30966H12.5V19.6733C12.5 20.4578 15.9978 21.0938 20.3125 21.0938C24.6272 21.0938 28.125 20.4578 28.125 19.6733C28.125 19.6728 28.125 19.6724 28.125 19.6719V8.30966Z" fill="#797979"/>
<ellipse cx="20.3125" cy="8.30967" rx="7.8125" ry="2.13068" fill="#797979" stroke="black"/>
<path d="M28.8352 11.1506C28.8352 12.7196 25.0194 13.9915 20.3125 13.9915C15.6055 13.9915 11.7897 12.7196 11.7897 11.1506" stroke="black"/>
<path d="M28.8352 14.7017C28.8352 16.2707 25.0194 17.5426 20.3125 17.5426C15.6055 17.5426 11.7897 16.2707 11.7897 14.7017" stroke="black"/>
</g>
<mask id="mask1_2_383" style="mask-type:alpha" maskUnits="userSpaceOnUse" x="0" y="0" width="18" height="25">
<rect width="17.1875" height="25" fill="#D9D9D9"/>
</mask>
<g mask="url(#mask1_2_383)">
<path fill-rule="evenodd" clip-rule="evenodd" d="M17.1875 3.125H0V21.875C0 23.1694 3.84755 24.2188 8.59375 24.2188C13.3399 24.2188 17.1875 23.1694 17.1875 21.875V3.125Z" fill="#797979"/>
<ellipse cx="8.59375" cy="3.125" rx="8.59375" ry="2.34375" fill="#797979" stroke="black"/>
<path d="M17.9688 6.25C17.9688 7.97589 13.7714 9.375 8.59375 9.375C3.41608 9.375 -0.78125 7.97589 -0.78125 6.25" stroke="black"/>
<path d="M17.9688 10.1562C17.9688 11.8821 13.7714 13.2812 8.59375 13.2812C3.41608 13.2812 -0.78125 11.8821 -0.78125 10.1562" stroke="black"/>
<path d="M17.9688 14.0625C17.9688 15.7884 13.7714 17.1875 8.59375 17.1875C3.41608 17.1875 -0.78125 15.7884 -0.78125 14.0625" stroke="black"/>
<path d="M17.9688 17.9688C17.9688 19.6946 13.7714 21.0937 8.59375 21.0937C3.41608 21.0937 -0.78125 19.6946 -0.78125 17.9688" stroke="black"/>
</g>
</svg>
