<svg width="186" height="186" viewBox="0 0 186 186" fill="none" xmlns="http://www.w3.org/2000/svg">
<circle cx="93" cy="93" r="93" fill="url(#paint0_radial_522_1180)" fill-opacity="0.5"/>
<circle cx="93.6222" cy="93.6222" r="53.6222" fill="white"/>
<circle cx="93.5" cy="93.5" r="50.5" fill="url(#paint1_radial_522_1180)"/>
<path d="M80.2695 104.971L88.3311 102.114C88.3311 103.172 88.6273 104.103 89.2197 104.907C89.8122 105.711 90.4046 106.24 90.9971 106.494L91.8857 106.938V115.19C88.2887 115.19 85.2207 113.625 82.6816 110.493C81.1159 108.504 80.3118 106.663 80.2695 104.971ZM80.7773 82.7539C80.7773 78.099 82.7663 74.6077 86.7441 72.2803C88.5638 71.18 90.2777 70.6087 91.8857 70.5664V78.9453C90.8278 79.2415 90.0449 80.0033 89.5371 81.2305C89.3678 81.6113 89.2832 82.0133 89.2832 82.4365C89.2832 84.1715 90.5739 85.6527 93.1553 86.8799C93.7054 87.1338 94.5941 87.5146 95.8213 88.0225C97.8525 88.8265 99.2913 89.4824 100.138 89.9902C103.565 92.0215 105.851 94.0951 106.993 96.2109C107.84 97.8613 108.263 99.7021 108.263 101.733C108.263 105.584 106.803 108.885 103.883 111.636C101.386 114.006 98.5508 115.19 95.377 115.19V106.938C97.0273 106.727 98.1911 105.859 98.8682 104.336C99.1644 103.659 99.3125 102.918 99.3125 102.114C99.3125 99.9561 97.7044 98.1787 94.4883 96.7822C93.8958 96.5283 92.9648 96.1686 91.6953 95.7031C90.2142 95.1953 89.1774 94.7933 88.585 94.4971C84.9456 92.762 82.6182 90.5192 81.6025 87.7686C81.0524 86.2874 80.7773 84.6159 80.7773 82.7539ZM95.377 78.9453V70.5664C98.9316 70.5664 101.915 72.0687 104.327 75.0732C105.724 76.8506 106.443 78.4587 106.485 79.8975L98.2334 82.627C98.2334 80.8496 97.3659 79.6436 95.6309 79.0088C95.4616 78.9665 95.377 78.9453 95.377 78.9453Z" fill="white"/>
<defs>
<radialGradient id="paint0_radial_522_1180" cx="0" cy="0" r="1" gradientUnits="userSpaceOnUse" gradientTransform="translate(93 93) rotate(90) scale(93)">
<stop stop-color="#FF7500"/>
<stop offset="1" stop-color="#FF7500" stop-opacity="0"/>
</radialGradient>
<radialGradient id="paint1_radial_522_1180" cx="0" cy="0" r="1" gradientUnits="userSpaceOnUse" gradientTransform="translate(93.5 93.5) rotate(90) scale(50.5)">
<stop offset="0.5" stop-color="#F97100"/>
<stop offset="0.885" stop-color="#E06203"/>
<stop offset="1" stop-color="#AA4109"/>
</radialGradient>
</defs>
</svg>
