<svg width="47" height="26" viewBox="0 0 47 26" fill="none" xmlns="http://www.w3.org/2000/svg">
<path d="M28.5714 17.8286C28.5714 15.5884 28.5714 14.4683 29.0074 13.6126C29.3909 12.86 30.0028 12.2481 30.7555 11.8646C31.6111 11.4286 32.7312 11.4286 34.9714 11.4286H40.0286C42.2688 11.4286 43.3889 11.4286 44.2445 11.8646C44.9972 12.2481 45.6091 12.86 45.9926 13.6126C46.4286 14.4683 46.4286 15.5884 46.4286 17.8286V25H28.5714V17.8286Z" fill="#FF7500"/>
<circle cx="37.5" cy="5.35714" r="5.35714" fill="#FF7500"/>
<path d="M1.33514e-05 17.8286C1.33514e-05 15.5884 1.33514e-05 14.4683 0.435987 13.6126C0.819481 12.86 1.4314 12.2481 2.18405 11.8646C3.0397 11.4286 4.1598 11.4286 6.40001 11.4286H11.4572C13.6974 11.4286 14.8175 11.4286 15.6731 11.8646C16.4258 12.2481 17.0377 12.86 17.4212 13.6126C17.8572 14.4683 17.8572 15.5884 17.8572 17.8286V25H1.33514e-05V17.8286Z" fill="#FF7500"/>
<circle cx="8.92858" cy="5.35714" r="5.35714" fill="#FF7500"/>
<path d="M32.1429 25.5H32.6429V25V20.6857V20.6631C32.6429 19.5621 32.6429 18.7052 32.5867 18.0178C32.5297 17.3199 32.4123 16.7528 32.1524 16.2428C31.721 15.396 31.0326 14.7076 30.1858 14.2762C29.6758 14.0163 29.1087 13.8989 28.4108 13.8419C27.7234 13.7857 26.8665 13.7857 25.7655 13.7857H25.7429H20.6857H20.6631C19.5621 13.7857 18.7052 13.7857 18.0178 13.8419C17.3199 13.8989 16.7528 14.0163 16.2428 14.2762C15.396 14.7076 14.7076 15.396 14.2762 16.2428C14.0163 16.7528 13.8989 17.3199 13.8419 18.0178C13.7857 18.7052 13.7857 19.5621 13.7857 20.6631V20.6857V25V25.5H14.2857H32.1429Z" fill="#FF7500" stroke="black"/>
<circle cx="23.2143" cy="8.21432" r="5.85714" fill="#FF7500" stroke="black"/>
</svg>
