<svg width="40" height="39" viewBox="0 0 40 39" fill="none" xmlns="http://www.w3.org/2000/svg">
<path d="M19.5117 0C11.3684 0 8.98679 0.00840071 8.52385 0.046804C6.85271 0.185716 5.81283 0.448838 4.67993 1.01289C3.80686 1.44642 3.1183 1.94896 2.43874 2.65342C1.20114 3.93813 0.451071 5.51867 0.179549 7.39743C0.0475374 8.3095 0.00913411 8.49552 0.00133345 13.1543C-0.00166681 14.7072 0.00133345 16.751 0.00133345 19.4923C0.00133345 27.629 0.0103342 30.0082 0.0493375 30.4703C0.184349 32.0964 0.43937 33.1195 0.979416 34.2386C2.0115 36.3808 3.98267 37.9889 6.30487 38.589C7.10893 38.796 7.99701 38.91 9.13711 38.964C9.62015 38.985 14.5436 39 19.47 39C24.3964 39 29.3228 38.994 29.7939 38.97C31.114 38.9079 31.8805 38.805 32.7281 38.586C35.0653 37.9829 37.0005 36.3988 38.0536 34.2266C38.5831 33.1345 38.8516 32.0724 38.9731 30.5312C38.9995 30.1952 39.0106 24.8376 39.0106 19.4872C39.0106 14.136 38.9986 8.78834 38.9722 8.45232C38.8492 6.88618 38.5807 5.83309 38.034 4.72C37.5855 3.80882 37.0875 3.12836 36.3644 2.43261C35.074 1.2001 33.4959 0.450038 31.6153 0.178815C30.7041 0.047104 30.5226 0.00810069 25.8602 0H19.5117Z" fill="url(#paint0_radial_798_575)"/>
<path d="M19.5117 0C11.3684 0 8.98679 0.00840071 8.52385 0.046804C6.85271 0.185716 5.81283 0.448838 4.67993 1.01289C3.80686 1.44642 3.1183 1.94896 2.43874 2.65342C1.20114 3.93813 0.451071 5.51867 0.179549 7.39743C0.0475374 8.3095 0.00913411 8.49552 0.00133345 13.1543C-0.00166681 14.7072 0.00133345 16.751 0.00133345 19.4923C0.00133345 27.629 0.0103342 30.0082 0.0493375 30.4703C0.184349 32.0964 0.43937 33.1195 0.979416 34.2386C2.0115 36.3808 3.98267 37.9889 6.30487 38.589C7.10893 38.796 7.99701 38.91 9.13711 38.964C9.62015 38.985 14.5436 39 19.47 39C24.3964 39 29.3228 38.994 29.7939 38.97C31.114 38.9079 31.8805 38.805 32.7281 38.586C35.0653 37.9829 37.0005 36.3988 38.0536 34.2266C38.5831 33.1345 38.8516 32.0724 38.9731 30.5312C38.9995 30.1952 39.0106 24.8376 39.0106 19.4872C39.0106 14.136 38.9986 8.78834 38.9722 8.45232C38.8492 6.88618 38.5807 5.83309 38.034 4.72C37.5855 3.80882 37.0875 3.12836 36.3644 2.43261C35.074 1.2001 33.4959 0.450038 31.6153 0.178815C30.7041 0.047104 30.5226 0.00810069 25.8602 0H19.5117Z" fill="url(#paint1_radial_798_575)"/>
<path d="M19.5027 5.1001C15.5916 5.1001 15.1007 5.1172 13.5646 5.18711C12.0315 5.25731 10.985 5.50003 10.0693 5.85616C9.12212 6.22399 8.31865 6.71603 7.51819 7.5168C6.71712 8.31727 6.22508 9.12074 5.85604 10.0676C5.49901 10.9836 5.25599 12.0304 5.18699 13.5629C5.11828 15.099 5.10028 15.5902 5.10028 19.5013C5.10028 23.4124 5.11768 23.9018 5.18729 25.4379C5.25779 26.971 5.50051 28.0175 5.85634 28.9332C6.22448 29.8804 6.71652 30.6839 7.51729 31.4843C8.31745 32.2854 9.12092 32.7786 10.0675 33.1465C10.9838 33.5026 12.0306 33.7453 13.5634 33.8155C15.0995 33.8854 15.5901 33.9025 19.5009 33.9025C23.4123 33.9025 23.9017 33.8854 25.4378 33.8155C26.9709 33.7453 28.0186 33.5026 28.9349 33.1465C29.8818 32.7786 30.684 32.2854 31.4842 31.4843C32.2853 30.6839 32.7773 29.8804 33.1464 28.9335C33.5004 28.0175 33.7434 26.9707 33.8154 25.4382C33.8844 23.9021 33.9024 23.4124 33.9024 19.5013C33.9024 15.5902 33.8844 15.0993 33.8154 13.5632C33.7434 12.0301 33.5004 10.9836 33.1464 10.0679C32.7773 9.12074 32.2853 8.31727 31.4842 7.5168C30.6831 6.71573 29.8821 6.22369 28.934 5.85616C28.0159 5.50003 26.9688 5.25731 25.4357 5.18711C23.8996 5.1172 23.4105 5.1001 19.4982 5.1001H19.5027ZM18.2108 7.69532C18.5942 7.69472 19.0221 7.69532 19.5027 7.69532C23.3478 7.69532 23.8036 7.70912 25.322 7.77812C26.7261 7.84233 27.4882 8.07695 27.9958 8.27407C28.6679 8.53509 29.147 8.84711 29.6508 9.35116C30.1548 9.8552 30.4668 10.3352 30.7284 11.0073C30.9256 11.5143 31.1605 12.2764 31.2244 13.6805C31.2934 15.1987 31.3084 15.6547 31.3084 19.498C31.3084 23.3413 31.2934 23.7974 31.2244 25.3155C31.1602 26.7196 30.9256 27.4817 30.7284 27.9887C30.4674 28.6608 30.1548 29.1393 29.6508 29.6431C29.1467 30.1471 28.6682 30.4591 27.9958 30.7202C27.4888 30.9182 26.7261 31.1522 25.322 31.2164C23.8039 31.2854 23.3478 31.3004 19.5027 31.3004C15.6573 31.3004 15.2015 31.2854 13.6834 31.2164C12.2793 31.1516 11.5172 30.917 11.0093 30.7199C10.3372 30.4588 9.85718 30.1468 9.35314 29.6428C8.8491 29.1387 8.53707 28.6599 8.27545 27.9875C8.07833 27.4805 7.84341 26.7184 7.77951 25.3143C7.7105 23.7962 7.6967 23.3401 7.6967 19.4944C7.6967 15.6487 7.7105 15.1951 7.77951 13.6769C7.84371 12.2728 8.07833 11.5107 8.27545 11.0031C8.53647 10.331 8.8491 9.851 9.35314 9.34696C9.85718 8.84291 10.3372 8.53089 11.0093 8.26927C11.5169 8.07125 12.2793 7.83723 13.6834 7.77272C15.0119 7.71272 15.5268 7.69472 18.2108 7.69172V7.69532ZM27.1899 10.0865C26.2359 10.0865 25.4618 10.8597 25.4618 11.8141C25.4618 12.7681 26.2359 13.5422 27.1899 13.5422C28.144 13.5422 28.9181 12.7681 28.9181 11.8141C28.9181 10.86 28.144 10.0859 27.1899 10.0859V10.0865ZM19.5027 12.1057C15.4185 12.1057 12.1071 15.4171 12.1071 19.5013C12.1071 23.5856 15.4185 26.8954 19.5027 26.8954C23.5869 26.8954 26.8971 23.5856 26.8971 19.5013C26.8971 15.4171 23.5869 12.1057 19.5027 12.1057ZM19.5027 14.7009C22.1537 14.7009 24.3031 16.85 24.3031 19.5013C24.3031 22.1523 22.1537 24.3017 19.5027 24.3017C16.8514 24.3017 14.7023 22.1523 14.7023 19.5013C14.7023 16.85 16.8514 14.7009 19.5027 14.7009Z" fill="white"/>
<defs>
<radialGradient id="paint0_radial_798_575" cx="0" cy="0" r="1" gradientUnits="userSpaceOnUse" gradientTransform="translate(10.3622 42.0038) rotate(-90) scale(38.6519 35.9591)">
<stop stop-color="#FFDD55"/>
<stop offset="0.1" stop-color="#FFDD55"/>
<stop offset="0.5" stop-color="#FF543E"/>
<stop offset="1" stop-color="#C837AB"/>
</radialGradient>
<radialGradient id="paint1_radial_798_575" cx="0" cy="0" r="1" gradientUnits="userSpaceOnUse" gradientTransform="translate(-6.53449 2.80949) rotate(78.6776) scale(17.2777 71.2375)">
<stop stop-color="#3771C8"/>
<stop offset="0.128" stop-color="#3771C8"/>
<stop offset="1" stop-color="#6600FF" stop-opacity="0"/>
</radialGradient>
</defs>
</svg>
