<svg width="19" height="19" viewBox="0 0 19 19" fill="none" xmlns="http://www.w3.org/2000/svg">
<path d="M9.10229 7.27451C11.0675 7.27451 12.6606 5.68139 12.6606 3.71619C12.6606 1.75098 11.0675 0.157867 9.10229 0.157867C7.13709 0.157867 5.54398 1.75098 5.54398 3.71619C5.54398 5.68139 7.13709 7.27451 9.10229 7.27451Z" fill="#FF7500"/>
<path d="M3.42226 19V13.4931C3.42226 13.222 3.59171 13.0525 3.86282 13.0525C4.13393 13.0525 4.30337 13.222 4.30337 13.4931V19H14.0803V13.4931C14.0803 13.222 14.2497 13.0525 14.5208 13.0525C14.7919 13.0525 14.9614 13.222 14.9614 13.4931V19H18.0791V12.595C18.0791 10.155 16.0797 8.15561 13.6397 8.15561H4.76087C2.32088 8.15561 0.321442 10.155 0.321442 12.595V19H3.42226Z" fill="#FF7500"/>
</svg>
