<svg width="34" height="34" viewBox="0 0 34 34" fill="none" xmlns="http://www.w3.org/2000/svg">
<g clip-path="url(#clip0_1_63)">
<path d="M27.5258 18.3813C27.5825 17.9279 27.625 17.4675 27.625 17C27.625 16.5325 27.5825 16.0721 27.5258 15.6188L30.5221 13.2742C30.7913 13.0617 30.8692 12.6792 30.6921 12.3675L27.8588 7.45876C27.6817 7.15418 27.3133 7.02668 26.9946 7.15418L23.4671 8.57793C22.7375 8.01834 21.9371 7.54376 21.0729 7.18251L20.5417 3.42834C20.4779 3.09543 20.1875 2.83334 19.8333 2.83334H14.1667C13.8125 2.83334 13.5221 3.09543 13.4654 3.42834L12.9342 7.18251C12.07 7.54376 11.2696 8.01126 10.54 8.57793L7.0125 7.15418C6.69375 7.03376 6.32542 7.15418 6.14833 7.45876L3.315 12.3675C3.13792 12.6721 3.21583 13.0546 3.485 13.2742L6.47417 15.6188C6.4175 16.0721 6.375 16.5325 6.375 17C6.375 17.4675 6.4175 17.9279 6.47417 18.3813L3.485 20.7258C3.21583 20.9383 3.13792 21.3208 3.315 21.6325L6.14833 26.5413C6.32542 26.8458 6.69375 26.9733 7.0125 26.8458L10.54 25.4221C11.2696 25.9817 12.07 26.4563 12.9342 26.8175L13.4654 30.5717C13.5221 30.9046 13.8125 31.1667 14.1667 31.1667H19.8333C20.1875 31.1667 20.4779 30.9046 20.5346 30.5717L21.0658 26.8175C21.93 26.4563 22.7304 25.9888 23.46 25.4221L26.9875 26.8458C27.3063 26.9663 27.6746 26.8458 27.8517 26.5413L30.685 21.6325C30.8621 21.3279 30.7842 20.9454 30.515 20.7258L27.5258 18.3813ZM17 21.9583C14.2587 21.9583 12.0417 19.7413 12.0417 17C12.0417 14.2588 14.2587 12.0417 17 12.0417C19.7413 12.0417 21.9583 14.2588 21.9583 17C21.9583 19.7413 19.7413 21.9583 17 21.9583Z" fill="#FF7500"/>
</g>
<defs>
<clipPath id="clip0_1_63">
<rect width="34" height="34" fill="white"/>
</clipPath>
</defs>
</svg>
