<svg width="24" height="31" viewBox="0 0 24 31" fill="none" xmlns="http://www.w3.org/2000/svg">
<path d="M19.2581 20.7015C18.3225 20.7015 17.451 20.9735 16.7162 21.4412L9.29974 16.2634C9.4188 15.8477 9.4839 15.4093 9.4839 14.9555C9.4839 14.5016 9.4188 14.0632 9.29974 13.6476L16.516 8.60951C17.2902 9.15948 18.236 9.48396 19.258 9.48396C21.8769 9.48396 24 7.36089 24 4.74201C24 2.12314 21.877 0 19.2581 0C16.6392 0 14.5162 2.12307 14.5162 4.74195C14.5162 5.08782 14.5542 5.42467 14.6245 5.74948L7.22504 10.9156C6.50276 10.4707 5.65253 10.2135 4.74195 10.2135C2.12307 10.2135 0 12.3366 0 14.9555C0 17.5744 2.12301 19.6974 4.74195 19.6974C5.65247 19.6974 6.50276 19.4403 7.22504 18.9954L14.6816 24.2014C14.5744 24.5974 14.5162 25.0136 14.5162 25.4435C14.5162 28.0624 16.6392 30.1855 19.2581 30.1855C21.877 30.1855 24.0001 28.0624 24.0001 25.4435C24.0001 22.8246 21.877 20.7015 19.2581 20.7015Z" fill="#FF7500"/>
</svg>
