<svg width="39" height="39" viewBox="0 0 39 39" fill="none" xmlns="http://www.w3.org/2000/svg">
<g clip-path="url(#clip0_798_549)">
<path d="M19.5 39C30.2696 39 39 30.2696 39 19.5C39 8.73045 30.2696 0 19.5 0C8.73045 0 0 8.73045 0 19.5C0 30.2696 8.73045 39 19.5 39Z" fill="url(#paint0_linear_798_549)"/>
<path d="M13.1997 20.9257L15.5132 27.3291C15.5132 27.3291 15.8025 27.9283 16.1122 27.9283C16.4219 27.9283 21.0286 23.1358 21.0286 23.1358L26.1514 13.2412L13.2823 19.2727L13.1997 20.9257Z" fill="#C8DAEA"/>
<path d="M16.2672 22.5679L15.8231 27.2878C15.8231 27.2878 15.6372 28.7341 17.0831 27.2878C18.529 25.8416 19.913 24.7264 19.913 24.7264" fill="#A9C6D8"/>
<path d="M13.2415 21.154L8.48249 19.6034C8.48249 19.6034 7.91374 19.3726 8.09688 18.8494C8.13458 18.7415 8.21063 18.6497 8.43813 18.4919C9.49259 17.7569 27.9554 11.1209 27.9554 11.1209C27.9554 11.1209 28.4767 10.9452 28.7841 11.0621C28.8602 11.0856 28.9286 11.1289 28.9824 11.1876C29.0362 11.2463 29.0735 11.3182 29.0904 11.396C29.1236 11.5334 29.1375 11.6748 29.1317 11.8161C29.1302 11.9383 29.1154 12.0515 29.1042 12.2291C28.9918 14.0435 25.6267 27.5843 25.6267 27.5843C25.6267 27.5843 25.4254 28.3766 24.7041 28.4037C24.5268 28.4095 24.3502 28.3794 24.1848 28.3155C24.0193 28.2515 23.8685 28.1548 23.7412 28.0313C22.3257 26.8137 17.4332 23.5257 16.352 22.8025C16.3277 22.7859 16.3071 22.7643 16.2918 22.739C16.2765 22.7138 16.2668 22.6856 16.2633 22.6563C16.2482 22.5801 16.3311 22.4857 16.3311 22.4857C16.3311 22.4857 24.8503 14.9132 25.077 14.1182C25.0945 14.0566 25.0282 14.0262 24.9392 14.0532C24.3734 14.2614 14.5645 20.4557 13.482 21.1393C13.404 21.1629 13.3217 21.1679 13.2415 21.154Z" fill="white"/>
</g>
<defs>
<linearGradient id="paint0_linear_798_549" x1="19.5" y1="39" x2="19.5" y2="0" gradientUnits="userSpaceOnUse">
<stop stop-color="#1D93D2"/>
<stop offset="1" stop-color="#38B0E3"/>
</linearGradient>
<clipPath id="clip0_798_549">
<rect width="39" height="39" fill="white"/>
</clipPath>
</defs>
</svg>
