<svg width="39" height="39" viewBox="0 0 39 39" fill="none" xmlns="http://www.w3.org/2000/svg">
<path d="M19.5 36.7057C29.0025 36.7057 36.7058 29.0024 36.7058 19.4998C36.7058 9.99728 29.0025 2.29395 19.5 2.29395C9.9974 2.29395 2.29407 9.99728 2.29407 19.4998C2.29407 29.0024 9.9974 36.7057 19.5 36.7057Z" fill="white"/>
<g clip-path="url(#clip0_798_517)">
<path d="M17.42 0.142949C10.5685 0.857949 4.44651 5.36869 1.66347 11.752C-0.130012 15.873 -0.428492 20.6179 0.844988 24.9862C2.41799 30.4329 6.48699 35.0347 11.752 37.3362C15.873 39.1297 20.618 39.4282 24.9865 38.1547C31.525 36.2697 36.6732 30.9012 38.3632 24.2317C41.0017 13.7799 34.528 3.09317 24.05 0.597949C21.7485 0.0519491 19.7215 -0.0913109 17.42 0.142949ZM17.68 12.22C19.3435 14.43 20.748 16.25 20.8 16.25C20.852 16.25 22.5815 14.43 24.622 12.22L28.353 8.18995H30.472L30.017 8.67147C29.757 8.94343 28.067 10.7767 26.26 12.74C24.453 14.703 22.685 16.6134 22.3335 16.9649L21.71 17.628L26.585 24.115C29.263 27.69 31.46 30.6534 31.46 30.7065C31.46 30.7715 29.8615 30.8099 27.9235 30.8099L24.375 30.7969L21.073 26.3769C18.798 23.3219 17.732 22.0082 17.628 22.0869C17.55 22.1519 15.7035 24.1415 13.52 26.507L9.55499 30.8099H8.55347C7.99499 30.8099 7.53999 30.7834 7.53999 30.745C7.53999 30.7065 9.60699 28.4434 12.1285 25.7269C14.6382 23.0099 16.7182 20.7349 16.7435 20.6965C16.757 20.6434 14.69 17.823 12.155 14.43C9.61999 11.05 7.53999 8.25495 7.53999 8.22843C7.53999 8.20321 9.13847 8.18995 11.102 8.18995H14.6635L17.68 12.22Z" fill="black"/>
<path d="M10.7515 9.932C10.8032 10.023 14.0785 14.417 18.005 19.6685L25.155 29.2367L26.7535 29.25C27.7417 29.25 28.34 29.198 28.3135 29.12C28.3015 29.055 25.0382 24.6615 21.0865 19.37L13.8835 9.75H12.272C10.9335 9.75 10.66 9.77652 10.7515 9.932Z" fill="black"/>
</g>
<defs>
<clipPath id="clip0_798_517">
<rect width="39" height="39" fill="white"/>
</clipPath>
</defs>
</svg>
