<svg width="28" height="27" viewBox="0 0 28 27" fill="none" xmlns="http://www.w3.org/2000/svg">
<path d="M20.4488 2.89748e-06C19.4546 -0.000907241 18.4702 0.212607 17.5534 0.628025C16.6366 1.04344 15.8059 1.6524 15.1098 2.4192L14 3.6288L12.8902 2.4192C12.1933 1.65379 11.3623 1.04588 10.4457 0.630928C9.52905 0.215972 8.54512 0.00226522 7.55125 0.00226522C6.55738 0.00226522 5.57345 0.215972 4.65682 0.630928C3.74019 1.04588 2.90919 1.65379 2.21228 2.4192C0.79443 3.97832 0 6.07647 0 8.262C0 10.4475 0.79443 12.5457 2.21228 14.1048L14 27L25.7877 14.1048C27.2056 12.5457 28 10.4475 28 8.262C28 6.07647 27.2056 3.97832 25.7877 2.4192C25.091 1.65338 24.2601 1.04506 23.3434 0.629709C22.4268 0.214361 21.4428 0.000298186 20.4488 2.89748e-06Z" fill="#797979"/>
</svg>
