<svg width="56" height="39" viewBox="0 0 56 39" fill="none" xmlns="http://www.w3.org/2000/svg">
<g clip-path="url(#clip0_798_186)">
<g clip-path="url(#clip1_798_186)">
<path d="M54.5468 6.09032C53.9048 3.6918 52.0198 1.80691 49.6213 1.16486C45.2784 3.48687e-07 27.8557 0 27.8557 0C27.8557 0 10.4333 3.48687e-07 6.0903 1.16486C3.6918 1.80691 1.80691 3.6918 1.16486 6.09032C3.48687e-07 10.4333 0 19.5 0 19.5C0 19.5 3.48687e-07 28.5667 1.16486 32.9098C1.80691 35.3083 3.6918 37.1931 6.0903 37.8351C10.4333 39 27.8557 39 27.8557 39C27.8557 39 45.2784 39 49.6213 37.8351C52.0198 37.1931 53.9048 35.3083 54.5468 32.9098C55.7117 28.5667 55.7117 19.5 55.7117 19.5C55.7117 19.5 55.707 10.4333 54.5468 6.09032Z" fill="#FF0000"/>
<path d="M22.2794 27.8565L36.753 19.5008L22.2794 11.1449V27.8565Z" fill="white"/>
</g>
</g>
<defs>
<clipPath id="clip0_798_186">
<rect width="55.7115" height="39" fill="white"/>
</clipPath>
<clipPath id="clip1_798_186">
<rect width="55.7115" height="39" fill="white"/>
</clipPath>
</defs>
</svg>
