<svg width="57" height="57" viewBox="0 0 57 57" fill="none" xmlns="http://www.w3.org/2000/svg">
<circle cx="28.5" cy="28.5" r="28.5" fill="white"/>
<circle cx="28.5" cy="28.5" r="26.5" fill="url(#paint0_radial_137_974)"/>
<path d="M22.0354 23.5367C20.4996 24.2212 18.6966 23.5367 18.0177 22.0132C17.3277 20.4897 18.0177 18.7123 19.5536 18.0278C21.0894 17.3433 22.8924 18.0278 23.5713 19.5513C24.2613 21.0748 23.5713 22.8522 22.0354 23.5367ZM26.387 20.2137C26.5539 19.9267 26.4538 19.5513 26.1644 19.3857C25.8751 19.2201 25.4967 19.3195 25.3297 19.6065C25.1628 19.8935 25.2629 20.2689 25.5523 20.4345C25.8417 20.6001 26.2201 20.5118 26.387 20.2137ZM32.0407 16.979C32.2077 16.692 32.1075 16.3166 31.8181 16.151C31.5288 15.9854 31.1504 16.0848 30.9834 16.3718C30.8165 16.6589 30.9167 17.0342 31.206 17.1998C31.4954 17.3765 31.8627 17.2771 32.0407 16.979ZM30.1599 18.0609C30.3268 17.7739 30.2266 17.3985 29.9373 17.2329C29.6479 17.0673 29.2695 17.1667 29.1026 17.4537C28.9356 17.7408 29.0358 18.1161 29.3252 18.2817C29.6145 18.4473 29.9818 18.348 30.1599 18.0609ZM33.9216 15.9082C34.0885 15.6211 33.9884 15.2458 33.699 15.0802C33.4096 14.9146 33.0312 15.0139 32.8643 15.301C32.6974 15.588 32.7975 15.9634 33.0869 16.1289C33.3763 16.2945 33.7435 16.1952 33.9216 15.9082ZM28.1566 19.2864C28.4014 19.0545 28.4237 18.6792 28.19 18.4252C27.9674 18.1824 27.5779 18.1603 27.3219 18.3811C27.0659 18.6129 27.0548 18.9883 27.2774 19.2422C27.5222 19.4961 27.9117 19.5071 28.1566 19.2864ZM26.387 21.3398C26.2201 21.0527 25.8417 20.9534 25.5523 21.119C25.2629 21.2846 25.1628 21.6599 25.3297 21.947C25.4967 22.234 25.8751 22.3334 26.1644 22.1678C26.4649 22.0022 26.5651 21.6378 26.387 21.3398ZM30.1599 23.5036C29.9929 23.2165 29.6145 23.1172 29.3252 23.2828C29.0358 23.4484 28.9356 23.8237 29.1026 24.1108C29.2695 24.3978 29.6479 24.4972 29.9373 24.3316C30.2266 24.1549 30.3268 23.7906 30.1599 23.5036ZM38.5737 24.6959C40.7328 24.6959 42.4912 26.4291 42.4912 28.5598V37.9327C42.4912 38.6613 41.9125 39.2575 41.1668 39.2575C40.4323 39.2575 39.8313 38.6613 39.8313 37.9327V29.4872H38.7184V43H35.1458V39.3348H34.0106V43H30.427V29.4872H29.3252V37.9327C29.3252 38.6613 28.7242 39.2575 27.9896 39.2575C27.2551 39.2575 26.6764 38.6613 26.6764 37.9327V28.5598C26.6764 26.4181 28.6018 24.6959 30.7497 24.6959H38.5737ZM32.1632 26.098C32.4525 25.9324 32.5527 25.557 32.3857 25.27C32.2188 24.9829 31.8404 24.8836 31.5399 25.0492C31.2505 25.2148 31.1504 25.5901 31.3173 25.8772C31.4843 26.1642 31.8627 26.2636 32.1632 26.098ZM34.044 27.1799C34.3334 27.0143 34.4336 26.6389 34.2666 26.3519C34.0997 26.0648 33.7213 25.9655 33.4319 26.1311C33.1425 26.2967 33.0424 26.672 33.2093 26.9591C33.3763 27.2461 33.7435 27.3455 34.044 27.1799ZM28.1566 22.2782C27.9117 22.0463 27.5222 22.0684 27.2885 22.3223C27.0659 22.5652 27.077 22.9516 27.333 23.1834C27.5779 23.4042 27.9674 23.3932 28.2011 23.1393C28.4237 22.8854 28.4014 22.51 28.1566 22.2782ZM28.8243 20.291C28.535 20.1254 28.1566 20.2247 27.9896 20.5228C27.8227 20.8099 27.9229 21.1852 28.2234 21.3508C28.5127 21.5164 28.8911 21.417 29.0581 21.119C29.225 20.8209 29.1248 20.4566 28.8243 20.291ZM34.556 17.7739C36.2365 17.7739 37.6054 19.1318 37.6054 20.7988C37.6054 22.4658 36.2365 23.8237 34.556 23.8237C32.8754 23.8237 31.5065 22.4658 31.5065 20.7988C31.5065 19.1208 32.8643 17.7739 34.556 17.7739ZM33.0312 18.8006C32.8643 19.0876 32.9645 19.463 33.2538 19.6286C33.5432 19.7942 33.9216 19.6948 34.0885 19.4078C34.2555 19.1208 34.1553 18.7454 33.866 18.5798C33.5766 18.4032 33.2093 18.5025 33.0312 18.8006ZM32.2188 21.3508C32.5082 21.5164 32.8866 21.417 33.0535 21.119C33.2204 20.8319 33.1203 20.4566 32.8309 20.291C32.5304 20.1254 32.1632 20.2247 31.9962 20.5118C31.8293 20.8099 31.9294 21.1742 32.2188 21.3508ZM34.1331 22.797C34.3 22.499 34.1998 22.1346 33.9105 21.969C33.6211 21.8034 33.2427 21.9028 33.0758 22.1898C32.9088 22.4769 33.009 22.8522 33.2984 23.0178C33.5877 23.1834 33.9661 23.0841 34.1331 22.797ZM35.2349 21.119C35.4018 20.8319 35.3016 20.4566 35.0123 20.291C34.7229 20.1254 34.3445 20.2247 34.1776 20.5228C34.0106 20.8099 34.1108 21.1852 34.4002 21.3508C34.6895 21.5164 35.0568 21.406 35.2349 21.119ZM30.6607 20.2247C30.3268 20.1475 30.0041 20.3572 29.9262 20.6884C29.8594 21.0196 30.0597 21.3398 30.3936 21.417C30.7275 21.4943 31.0502 21.2846 31.1281 20.9534C31.1949 20.6222 30.9834 20.302 30.6607 20.2247ZM31.5177 22.6756C31.1838 22.5983 30.861 22.8081 30.7831 23.1393C30.7052 23.4594 30.9167 23.7906 31.2505 23.8679C31.5844 23.9452 31.9072 23.7354 31.9851 23.4042C32.0519 23.062 31.8515 22.7418 31.5177 22.6756ZM31.3507 17.8953C31.0168 17.818 30.6941 18.0278 30.6162 18.359C30.5494 18.6792 30.7497 19.0104 31.0836 19.0876C31.4175 19.1539 31.7402 18.9552 31.8181 18.624C31.8961 18.2928 31.6846 17.9726 31.3507 17.8953ZM21.657 32.1036C21.8796 32.5011 22.3025 32.7771 22.8033 32.7771C23.3709 32.7771 23.8495 32.4459 24.0498 31.9491L26.3536 25.1927C26.5873 24.5082 26.2201 23.7575 25.53 23.5257C24.8289 23.2938 24.0832 23.6581 23.8495 24.3426L22.5251 28.2176L21.0783 25.6674C20.7333 25.1375 20.2213 24.7069 19.5647 24.4972C18.0622 24.0004 16.4485 24.8063 15.9476 26.2856L14.2115 31.4523C14.089 31.7614 14 32.3244 14 32.6115V43H19.1974V34.4993L20.6331 30.2821L21.657 32.1036Z" fill="white"/>
<defs>
<radialGradient id="paint0_radial_137_974" cx="0" cy="0" r="1" gradientUnits="userSpaceOnUse" gradientTransform="translate(28.5 28.5) rotate(90) scale(26.5)">
<stop offset="0.5" stop-color="#FF7500"/>
<stop offset="0.885" stop-color="#E06203"/>
<stop offset="1" stop-color="#AA4109"/>
</radialGradient>
</defs>
</svg>
