<svg width="57" height="57" viewBox="0 0 57 57" fill="none" xmlns="http://www.w3.org/2000/svg">
<circle cx="28.5" cy="28.5" r="28.5" fill="white"/>
<circle cx="28.5" cy="28.5" r="26.5" fill="url(#paint0_radial_137_935)"/>
<path d="M25.762 18.1841C28.3435 18.1841 30.4396 20.2771 30.4396 22.8547C30.4396 25.4324 28.3435 27.5474 25.762 27.5474C23.1806 27.5474 21.0845 25.4544 21.0845 22.8768C21.0845 20.2991 23.1806 18.1841 25.762 18.1841ZM39.0444 37.8801H33.1755L35.9114 33.1654C36.4629 32.174 36.132 30.9182 35.1612 30.3674C34.1904 29.8167 32.9328 30.1471 32.3812 31.1165L29.6453 35.8312L25.5855 28.8693C25.1884 28.1423 24.4162 27.7677 23.4453 27.7677C23.313 27.7677 23.0261 27.8118 22.8938 27.8559C22.7614 27.8779 22.5628 27.944 22.4304 27.988C18.5031 29.2659 15.3921 35.5228 15.3921 42C15.5024 42 24.8133 42 27.1741 42C27.0859 41.8678 26.9976 41.7577 26.9094 41.6255L22.1877 33.4959C22.0333 33.2095 22.1436 32.857 22.4084 32.7028C22.6952 32.5485 23.0482 32.6587 23.2026 32.9231L27.8802 40.9866C28.2332 41.5814 28.873 42 29.6232 42H39.0444C40.1917 42 41.0963 41.0747 41.0963 39.9511C41.0963 38.7834 40.1697 37.8801 39.0444 37.8801Z" fill="white"/>
<path d="M41 16.5216C41 17.0307 40.8707 17.4597 40.6161 17.8085C40.4667 18.017 40.1798 18.2896 39.7556 18.6183L39.3353 18.943C39.105 19.1194 38.9555 19.3238 38.8788 19.5603C38.8302 19.7086 38.8061 19.9412 38.802 20.2538H37.1979C37.2221 19.5924 37.2868 19.1354 37.3878 18.8828C37.4888 18.6302 37.7554 18.3376 38.1798 18.0088L38.6121 17.6721C38.7535 17.5638 38.8707 17.4476 38.9556 17.3233C39.1132 17.1108 39.19 16.8743 39.19 16.6137C39.19 16.317 39.1011 16.0444 38.9274 15.7999C38.7495 15.5554 38.4303 15.4311 37.9657 15.4311C37.5092 15.4311 37.1819 15.5834 36.992 15.8841C36.8222 16.1526 36.7293 16.4293 36.7091 16.7179C36.7091 16.7219 36.7091 16.7299 36.7091 16.734C36.7091 16.762 36.7091 16.7941 36.7051 16.8222C36.6606 17.2512 36.297 17.5839 35.8525 17.5839C35.4081 17.5839 35.0445 17.2512 35 16.8222C35 16.8222 35.0081 16.6097 35.0162 16.5496C35.1092 15.5754 35.497 14.8738 36.1717 14.4449C36.6362 14.1483 37.21 14 37.8888 14C38.7817 14 39.5252 14.2085 40.1151 14.6334C40.705 15.0543 41 15.6837 41 16.5216ZM36.9352 21.9016C36.9352 22.5082 37.4309 23 38.0423 23C38.6538 23 39.1494 22.5082 39.1494 21.9016C39.1494 21.2949 38.6538 20.8031 38.0423 20.8031C37.4309 20.8031 36.9352 21.2949 36.9352 21.9016Z" fill="white"/>
<defs>
<radialGradient id="paint0_radial_137_935" cx="0" cy="0" r="1" gradientUnits="userSpaceOnUse" gradientTransform="translate(28.5 28.5) rotate(90) scale(26.5)">
<stop offset="0.5" stop-color="#FF7500"/>
<stop offset="0.885" stop-color="#E06203"/>
<stop offset="1" stop-color="#AA4109"/>
</radialGradient>
</defs>
</svg>
