<svg width="57" height="57" viewBox="0 0 57 57" fill="none" xmlns="http://www.w3.org/2000/svg">
<circle cx="28.5" cy="28.5" r="28.5" fill="white"/>
<circle cx="28.5" cy="28.5" r="26.5" fill="url(#paint0_radial_137_752)"/>
<path d="M28.6507 25.4424C31.2581 25.4424 33.3719 23.3287 33.3719 20.7212C33.3719 18.1138 31.2581 16 28.6507 16C26.0432 16 23.9294 18.1138 23.9294 20.7212C23.9294 23.3287 26.0432 25.4424 28.6507 25.4424Z" fill="white"/>
<path d="M21.1142 41V33.6933C21.1142 33.3336 21.339 33.1088 21.6987 33.1088C22.0585 33.1088 22.2833 33.3336 22.2833 33.6933V41H35.2554V33.6933C35.2554 33.3336 35.4802 33.1088 35.8399 33.1088C36.1996 33.1088 36.4245 33.3336 36.4245 33.6933V41H40.5612V32.5018C40.5612 29.2644 37.9083 26.6115 34.6709 26.6115H22.8903C19.6529 26.6115 17 29.2644 17 32.5018V41H21.1142Z" fill="white"/>
<path d="M29 29C26.7906 29 25 30.7906 25 33C25 35.2094 26.7906 37 29 37C31.2094 37 33 35.2094 33 33C33 30.7906 31.2094 29 29 29ZM26.5094 32.6156L26.9156 32.4531C27.0031 32.6719 27.2125 32.8125 27.4469 32.8125C27.6813 32.8125 27.8906 32.6719 27.9781 32.4531L28.3844 32.6156C28.2313 33 27.8625 33.25 27.4469 33.25C27.0344 33.25 26.6656 33 26.5094 32.6156ZM30.1531 35.5C29.8156 35.2625 29.4156 35.1344 28.9969 35.1344C28.5812 35.1344 28.1813 35.2594 27.8406 35.5L27.4437 34.9375C27.9 34.6156 28.4344 34.4469 28.9938 34.4469C29.5531 34.4469 30.0875 34.6156 30.5437 34.9375L30.1531 35.5ZM30.5531 33.25C30.1375 33.25 29.7687 33 29.6156 32.6156L30.0219 32.4531C30.1094 32.6719 30.3187 32.8125 30.5531 32.8125C30.7875 32.8125 30.9969 32.6719 31.0844 32.4531L31.4906 32.6156C31.3344 33 30.9656 33.25 30.5531 33.25Z" fill="#FF7500"/>
<defs>
<radialGradient id="paint0_radial_137_752" cx="0" cy="0" r="1" gradientUnits="userSpaceOnUse" gradientTransform="translate(28.5 28.5) rotate(90) scale(26.5)">
<stop offset="0.5" stop-color="#FF7500"/>
<stop offset="0.885" stop-color="#E06203"/>
<stop offset="1" stop-color="#AA4109"/>
</radialGradient>
</defs>
</svg>
