<svg width="57" height="57" viewBox="0 0 57 57" fill="none" xmlns="http://www.w3.org/2000/svg">
<circle cx="28.5" cy="28.5" r="28.5" fill="white"/>
<circle cx="28.5" cy="28.5" r="26.5" fill="url(#paint0_radial_122_579)"/>
<path d="M30.6097 29.6049C31.0244 29.6049 31.4354 29.4276 31.7219 29.085L34.902 25.2754C35.1894 24.9309 35.3015 24.4723 35.2045 24.0341C35.1075 23.5963 34.8124 23.2277 34.4062 23.0369C34.4062 23.0369 28.188 20.084 27.5823 20.0797C27.5748 20.0797 27.5682 20.0797 27.5615 20.0797C27.119 20.0797 26.7043 20.1872 26.329 20.3649C26.2697 20.3861 20.421 23.3861 20.421 23.3861C20.0317 23.5864 19.7547 23.9512 19.6661 24.3791C19.5775 24.807 19.6869 25.2523 19.9639 25.5902L23.324 29.694C23.6096 30.0437 24.0252 30.2246 24.4447 30.2246C24.5122 30.2246 24.578 30.2026 24.6449 30.1909L25.113 35.7799L24.1083 40.9723C23.931 41.888 24.5296 42.7744 25.4447 42.9516C25.554 42.9723 25.6614 42.9827 25.768 42.9827C26.5607 42.9827 27.2685 42.4214 27.424 41.6141L28.4731 36.1941C28.5023 36.0428 28.5108 35.8887 28.4986 35.7351L28.2394 32.5712C28.2474 32.5691 28.255 32.5661 28.2629 32.5639L30.8501 33.7497L31.4496 37.8789C31.5712 38.7196 32.2932 39.3257 33.1188 39.3251C33.199 39.3251 33.281 39.3195 33.3629 39.3077C34.2866 39.1739 34.9266 38.3167 34.7918 37.3935L34.0604 32.3543C33.9784 31.7869 33.6137 31.3001 33.0924 31.0616L30.4095 29.8322L30.4107 29.5706C30.4775 29.58 30.5425 29.6049 30.6097 29.6049ZM30.4472 24.3767L31.4768 24.8602L30.435 26.1083L30.4472 24.3767ZM24.6395 26.7312L23.3372 25.1406L24.6555 24.4617L24.6395 26.7312Z" fill="white"/>
<path d="M29.5352 19.4816C31.0045 18.958 31.7698 17.344 31.2476 15.876C30.7245 14.4081 29.11 13.6413 27.6416 14.1644C26.1731 14.6875 25.4077 16.3011 25.93 17.7696C26.4532 19.238 28.0677 20.0042 29.5352 19.4816Z" fill="white"/>
<path d="M37.3185 39.9933H29.8999C29.4796 39.9933 29.1394 40.334 29.1394 40.7544V42.2388C29.1394 42.6593 29.4796 43 29.8999 43H37.3185C37.7389 43 38.0792 42.6593 38.0792 42.2388V40.7544C38.0792 40.334 37.7389 39.9933 37.3185 39.9933Z" fill="white"/>
<defs>
<radialGradient id="paint0_radial_122_579" cx="0" cy="0" r="1" gradientUnits="userSpaceOnUse" gradientTransform="translate(28.5 28.5) rotate(90) scale(26.5)">
<stop offset="0.5" stop-color="#FF7500"/>
<stop offset="0.885" stop-color="#E06203"/>
<stop offset="1" stop-color="#AA4109"/>
</radialGradient>
</defs>
</svg>
