<svg width="57" height="57" viewBox="0 0 57 57" fill="none" xmlns="http://www.w3.org/2000/svg">
<circle cx="28.5" cy="28.5" r="28.5" fill="white"/>
<circle cx="28.5" cy="28.5" r="26.5" fill="url(#paint0_radial_137_662)"/>
<path d="M15.5072 25.2384C16.9877 25.2384 18.188 24.0382 18.188 22.5576C18.188 21.0771 16.9877 19.8768 15.5072 19.8768C14.0266 19.8768 12.8264 21.0771 12.8264 22.5576C12.8264 24.0382 14.0266 25.2384 15.5072 25.2384Z" fill="white"/>
<path d="M20.3939 24.9033C20.4218 24.9033 30.5026 24.9033 30.5026 24.9033C31.1449 24.9033 31.7034 24.3727 31.7034 23.7025C31.7034 23.0603 31.1728 22.5018 30.5026 22.5018H22.9071C22.7116 22.5018 22.572 22.3621 22.572 22.1667C22.572 21.9712 22.7116 21.8316 22.9071 21.8316H30.5026C30.9494 21.8316 31.3404 21.9991 31.7034 22.2504C32.1223 22.5855 32.3736 23.0882 32.3736 23.7025C32.3736 23.8701 32.3457 24.0376 32.3177 24.2052H43.5156C44.465 24.2052 45.191 23.4512 45.191 22.5297C45.191 21.5802 44.4371 20.8542 43.5156 20.8542H31.0611C30.726 20.4074 30.2234 20.0723 29.6649 19.9327C27.8218 19.4859 25.8671 19.2625 23.8845 19.2625C23.7448 19.2625 23.4097 19.2904 23.3539 19.2904C21.1199 19.2904 19.2489 20.9659 18.858 23.0603C18.858 23.0603 18.8301 23.3395 18.8301 23.3954C18.858 24.2331 19.5282 24.9033 20.3939 24.9033Z" fill="white"/>
<path d="M12.4634 38H15.3117V31.6611H42.6779V38H45.5263V31.6611V28.8407H12.4634V38Z" fill="white"/>
<path d="M45.4425 28.0029L44.4931 25.6852L43.5436 28.0029H43.3761L42.4266 25.6852L41.4772 28.0029H41.3096L40.3602 25.6852L39.4108 28.0029H39.2432L38.2938 25.6852L37.3443 28.0029H37.1768L36.2273 25.6852L35.2779 28.0029H35.1103L34.1609 25.6852L33.2115 28.0029H33.0439L32.0945 25.6852L31.145 28.0029H30.9775L30.028 25.6852L29.0786 28.0029H28.9948H28.9111L27.9616 25.6852L27.0122 28.0029H26.8446L25.8952 25.6852L24.9457 28.0029H24.7782L23.8287 25.6852L22.8793 28.0029H22.7118L21.7623 25.6852L20.8129 28.0029H20.6453L19.6959 25.6852L18.7464 28.0029H18.5789L17.6295 25.6852L16.68 28.0029H16.5125L15.563 25.6852L14.6136 28.0029H14.446L13.4966 25.6852L12.5472 28.0029H12.4634V28.5056H28.9948H45.5263V28.0029H45.4425Z" fill="white"/>
<defs>
<radialGradient id="paint0_radial_137_662" cx="0" cy="0" r="1" gradientUnits="userSpaceOnUse" gradientTransform="translate(28.5 28.5) rotate(90) scale(26.5)">
<stop offset="0.5" stop-color="#FF7500"/>
<stop offset="0.885" stop-color="#E06203"/>
<stop offset="1" stop-color="#AA4109"/>
</radialGradient>
</defs>
</svg>
