<svg width="57" height="57" viewBox="0 0 57 57" fill="none" xmlns="http://www.w3.org/2000/svg">
<circle cx="28.5" cy="28.5" r="28.5" fill="white"/>
<circle cx="28.5" cy="28.5" r="26.5" fill="url(#paint0_radial_137_947)"/>
<path d="M30.7899 23.1136C31.198 22.6813 31.8867 22.669 32.3075 23.0642L35.5468 26.0656C35.9676 26.4485 35.9676 27.1155 35.5595 27.5355C35.1514 27.9678 34.4628 27.9801 34.0419 27.5849L30.8026 24.5835C30.3945 24.1882 30.3818 23.5336 30.7899 23.1136ZM30.1267 23.8053C30.1267 23.4471 30.2543 23.1136 30.5093 22.8543C30.7771 22.5825 31.147 22.4343 31.5168 22.4343C31.8611 22.4343 32.1927 22.5578 32.435 22.7925L32.9962 23.3113C32.9962 23.2248 32.9962 23.163 32.9962 23.163H33.6083V23.8547L35.8146 25.8927C35.8656 25.9421 35.9166 25.9915 35.9676 26.0656V22.3602C35.9676 20.5075 34.399 19.0006 32.4733 19.0006H26.4921C24.5792 19.0006 22.9978 20.5198 22.9978 22.3602V30.4998C22.9978 31.1297 23.5079 31.6485 24.1711 31.6485C24.8215 31.6485 25.3571 31.1421 25.3571 30.4998V23.163H25.9693V42.4684C25.9693 43.3206 26.6834 43.9999 27.5634 43.9999C28.4433 43.9999 29.1448 43.3206 29.1448 42.4684V31.7226H29.7952V42.4684C29.7952 43.3206 30.4966 43.9999 31.3765 43.9999C32.2565 43.9999 32.9579 43.3206 32.9579 42.4684C32.9579 41.5791 32.9707 32.6984 32.9707 27.0414L30.5221 24.7564C30.2798 24.4847 30.1267 24.1512 30.1267 23.8053Z" fill="white"/>
<path d="M30.5108 22.9368L26.8886 18.8437L27.6022 18.2169L31.3418 22.4742L30.5108 22.9368Z" fill="white" stroke="#FF7500" stroke-width="0.1"/>
<path d="M29.7729 18.4797C31.2842 18.4797 32.5236 17.2451 32.5236 15.7398C32.5236 14.2237 31.2842 13 29.7729 13C28.2616 13 27.0439 14.2454 27.0439 15.7398C27.0439 17.2343 28.2616 18.4797 29.7729 18.4797ZM31.0776 14.6461C31.3385 14.6461 31.556 14.8518 31.556 15.1226C31.556 15.3933 31.3276 15.599 31.0776 15.599C30.8166 15.599 30.5992 15.3933 30.5992 15.1226C30.5992 14.841 30.7949 14.6461 31.0776 14.6461ZM30.8493 16.5412C30.9036 16.4004 31.0776 16.3463 31.1972 16.4004C31.3385 16.4546 31.3929 16.6278 31.3385 16.747C31.0667 17.3534 30.447 17.7541 29.7946 17.7541C29.1314 17.7541 28.5226 17.3642 28.2508 16.747C28.1964 16.6062 28.2508 16.4654 28.3921 16.4004C28.5335 16.3463 28.6748 16.4004 28.74 16.5412C28.9357 16.9527 29.3489 17.2234 29.8055 17.2234C30.2404 17.2234 30.6644 16.9527 30.8493 16.5412ZM28.5661 14.6461C28.827 14.6461 29.0445 14.8518 29.0445 15.1226C29.0445 15.3825 28.8379 15.599 28.5661 15.599C28.3051 15.599 28.0877 15.3933 28.0877 15.1226C28.0877 14.8735 28.3051 14.6461 28.5661 14.6461Z" fill="white"/>
<path d="M26.0545 17.1784C25.4949 17.5773 25.2178 18.2921 25.3636 18.9722C25.3823 19.0613 25.4278 19.131 25.4955 19.1726C25.5625 19.2137 25.6451 19.2238 25.7322 19.2058C25.8849 19.1828 26.0053 19.0171 25.9672 18.8354C25.8727 18.3847 26.0308 17.9371 26.3984 17.6786L26.3986 17.6785C26.7686 17.4152 27.2506 17.3906 27.6484 17.6136L27.6481 17.6142L27.6558 17.617C27.8245 17.6783 28.0126 17.6457 28.1001 17.4993C28.1841 17.3588 28.1463 17.1715 28.0012 17.0834L28.0012 17.0833L27.9989 17.0821C27.3501 16.7333 26.6146 16.776 26.0545 17.1784ZM26.0545 17.1784C26.0545 17.1784 26.0545 17.1784 26.0546 17.1784L26.0836 17.2191L26.0544 17.1785C26.0544 17.1785 26.0545 17.1785 26.0545 17.1784ZM27.4683 19.1254L27.4682 19.1255C26.2773 19.9927 24.5578 19.7644 23.6753 18.5403L23.6751 18.54C22.806 17.3508 23.0355 15.6333 24.2604 14.7472C25.4863 13.8635 27.1688 14.1094 28.0535 15.3324L28.0536 15.3326C28.9227 16.5217 28.6912 18.2408 27.4683 19.1254ZM24.2062 16.7306L24.2062 16.7306C23.9507 16.901 23.9281 17.2471 24.08 17.4591C24.2492 17.712 24.5949 17.7341 24.8058 17.5862C25.0578 17.4179 25.0997 17.11 24.9335 16.8608C24.7637 16.6063 24.4535 16.5658 24.2062 16.7306ZM26.9676 15.3636C26.7994 15.1113 26.4915 15.0691 26.2423 15.2351C26.2421 15.2352 26.242 15.2353 26.2419 15.2354L26.2696 15.277C26.0411 15.4262 26.0025 15.7044 26.1552 15.9334L26.9676 15.3636Z" fill="white" stroke="#FF7500" stroke-width="0.1"/>
<defs>
<radialGradient id="paint0_radial_137_947" cx="0" cy="0" r="1" gradientUnits="userSpaceOnUse" gradientTransform="translate(28.5 28.5) rotate(90) scale(26.5)">
<stop offset="0.5" stop-color="#FF7500"/>
<stop offset="0.885" stop-color="#E06203"/>
<stop offset="1" stop-color="#AA4109"/>
</radialGradient>
</defs>
</svg>
