<svg width="57" height="57" viewBox="0 0 57 57" fill="none" xmlns="http://www.w3.org/2000/svg">
<circle cx="28.5" cy="28.5" r="28.5" fill="white"/>
<circle cx="28.5" cy="28.5" r="26.5" fill="url(#paint0_radial_137_791)"/>
<path d="M28.6507 25.4424C31.2581 25.4424 33.3719 23.3287 33.3719 20.7212C33.3719 18.1138 31.2581 16 28.6507 16C26.0432 16 23.9294 18.1138 23.9294 20.7212C23.9294 23.3287 26.0432 25.4424 28.6507 25.4424Z" fill="white"/>
<path d="M21.1142 41V33.6933C21.1142 33.3336 21.339 33.1088 21.6987 33.1088C22.0585 33.1088 22.2833 33.3336 22.2833 33.6933V41H35.2554V33.6933C35.2554 33.3336 35.4802 33.1088 35.8399 33.1088C36.1996 33.1088 36.4245 33.3336 36.4245 33.6933V41H40.5612V32.5018C40.5612 29.2644 37.9083 26.6115 34.6709 26.6115H22.8903C19.6529 26.6115 17 29.2644 17 32.5018V41H21.1142Z" fill="white"/>
<path d="M29 29C26.7906 29 25 30.7906 25 33C25 35.2094 26.7906 37 29 37C31.2094 37 33 35.2094 33 33C33 30.7906 31.2094 29 29 29ZM26.7563 32.6937H26.0562V32.2562H28.1312V32.6937C28.1312 32.6937 28.1312 33.3313 27.4437 33.3313C27.0812 33.3313 26.7844 33.05 26.7563 32.6937ZM29.9531 35.3406C29.325 35.0531 28.6063 35.0563 27.9813 35.35L27.6875 34.7281C28.4969 34.3469 29.425 34.3438 30.2375 34.7156L29.9531 35.3406ZM30.5719 33.3313C30.1906 33.3313 29.8844 33.025 29.8844 32.6437C29.8844 32.2625 30.1906 31.9562 30.5719 31.9562C30.9531 31.9562 31.2594 32.2625 31.2594 32.6437C31.2594 33.025 30.9531 33.3313 30.5719 33.3313ZM31.4062 31.4844C31.1125 31.3 30.7719 31.2469 30.4437 31.3312C30.1062 31.4219 29.8219 31.65 29.6438 31.9781L29.2594 31.7687C29.4969 31.3344 29.8781 31.025 30.3344 30.9062C30.7781 30.7906 31.2406 30.8625 31.6375 31.1094L31.4062 31.4844Z" fill="#FF7500"/>
<defs>
<radialGradient id="paint0_radial_137_791" cx="0" cy="0" r="1" gradientUnits="userSpaceOnUse" gradientTransform="translate(28.5 28.5) rotate(90) scale(26.5)">
<stop offset="0.5" stop-color="#FF7500"/>
<stop offset="0.885" stop-color="#E06203"/>
<stop offset="1" stop-color="#AA4109"/>
</radialGradient>
</defs>
</svg>
