<svg width="57" height="57" viewBox="0 0 57 57" fill="none" xmlns="http://www.w3.org/2000/svg">
<circle cx="28.5" cy="28.5" r="28.5" fill="white"/>
<circle cx="28.5" cy="28.5" r="26.5" fill="url(#paint0_radial_122_877)"/>
<path d="M28.6092 23.1751C27.5033 23.1751 26.6068 22.2786 26.6068 21.1727C26.6068 20.0668 27.5033 19.1703 28.6092 19.1703C29.7151 19.1703 30.6116 20.0668 30.6116 21.1727C30.6116 22.2786 29.7151 23.1751 28.6092 23.1751Z" fill="white"/>
<path d="M21.2654 20.7991L24.2358 17.8334C24.5897 17.4801 25.1795 17.4801 25.5334 17.8334C25.8873 18.1867 25.8873 18.7756 25.5334 19.1289L23.2171 21.4415L24.89 23.1117C25.201 23.4222 25.5978 23.5721 26.0053 23.5721H28.1178H30.2626C30.9381 23.5721 31.603 23.829 32.1178 24.3429C32.1285 24.3536 33.9301 26.163 33.9301 26.163L36.2571 23.8397C36.611 23.4864 37.2008 23.4864 37.5547 23.8397C37.9085 24.193 37.9085 24.7819 37.5547 25.1352L34.5842 28.1009C34.2303 28.4542 33.6405 28.4542 33.2866 28.1009L31.4529 26.2701C31.41 26.2273 31.3349 26.1951 31.2706 26.1951C31.1205 26.1951 31.0132 26.3129 31.0132 26.4521V28.8075V33.2614V42.6938C31.0132 43.4218 30.4234 44 29.7049 44C28.9757 44 28.3966 43.4111 28.3966 42.6938V33.5184C28.3966 33.3685 28.2787 33.2614 28.1393 33.2614C27.9891 33.2614 27.8819 33.3792 27.8819 33.5184V42.6938C27.8819 43.4218 27.2921 44 26.5736 44C25.8444 44 25.2653 43.4111 25.2653 42.6938V33.2614V26.056L21.2654 22.0946C20.9115 21.7413 20.9115 21.1631 21.2654 20.7991Z" fill="white"/>
<path d="M35.8462 14.8895L36.5426 13H33.1919L33.7772 14.8895H35.8462ZM36.5426 15.509V15.4987H33.1717V15.509C31.9908 16.1285 31.2036 17.3882 31.2036 18.8338C31.2036 20.9091 32.8386 22.5818 34.8672 22.5818C36.8959 22.5818 38.5309 20.9091 38.5309 18.8338C38.5309 17.3882 37.7235 16.1285 36.5426 15.509ZM35.0994 20.6407V21.1776H34.6048V20.682C34.2516 20.6716 33.9387 20.5684 33.7369 20.4651L33.8883 19.8456C34.1002 19.9695 34.4131 20.0831 34.736 20.0831C35.0287 20.0831 35.2306 19.9695 35.2306 19.7527C35.2306 19.5565 35.0691 19.4223 34.6957 19.2984C34.1406 19.1022 33.7672 18.8441 33.7672 18.3381C33.7672 17.8735 34.0901 17.5121 34.6351 17.4089V16.9133H35.1297V17.3779C35.4829 17.3882 35.7049 17.4605 35.8664 17.5534L35.715 18.142C35.5838 18.0903 35.3416 17.9664 34.9783 17.9664C34.6452 17.9664 34.5342 18.1213 34.5342 18.2555C34.5342 18.4311 34.7058 18.5447 35.1498 18.7099C35.7554 18.9267 36.0077 19.2158 36.0077 19.6804C36.0077 20.1347 35.6848 20.5271 35.0994 20.6407Z" fill="white"/>
<defs>
<radialGradient id="paint0_radial_122_877" cx="0" cy="0" r="1" gradientUnits="userSpaceOnUse" gradientTransform="translate(28.5 28.5) rotate(90) scale(26.5)">
<stop offset="0.5" stop-color="#FF7500"/>
<stop offset="0.885" stop-color="#E06203"/>
<stop offset="1" stop-color="#AA4109"/>
</radialGradient>
</defs>
</svg>
