<svg width="57" height="57" viewBox="0 0 57 57" fill="none" xmlns="http://www.w3.org/2000/svg">
<circle cx="28.5" cy="28.5" r="28.5" fill="white"/>
<circle cx="28.5" cy="28.5" r="26.5" fill="url(#paint0_radial_137_857)"/>
<path d="M28.4218 31.6224C30.1241 31.6224 31.5041 30.2424 31.5041 28.5401C31.5041 26.8379 30.1241 25.4579 28.4218 25.4579C26.7196 25.4579 25.3396 26.8379 25.3396 28.5401C25.3396 30.2424 26.7196 31.6224 28.4218 31.6224Z" fill="white"/>
<path d="M14.6523 17.2497C13.0442 17.5512 12.0056 19.0923 12.3072 20.667C12.6087 22.2751 14.1498 23.3137 15.7244 23.0121C17.3326 22.7106 18.3711 21.1695 18.0696 19.5949C17.8016 18.0202 16.2605 16.9817 14.6523 17.2497ZM16.361 18.7573C16.6625 18.7238 16.897 18.8913 16.9305 19.1593C16.964 19.4609 16.7965 19.6954 16.5285 19.7289C16.227 19.7624 15.9925 19.5949 15.959 19.3269C15.8919 19.0253 16.0595 18.7908 16.361 18.7573ZM13.3122 19.8294C13.2787 19.5949 13.4463 19.2933 13.7143 19.2598C14.0158 19.2263 14.2503 19.3939 14.2838 19.6619C14.3173 19.9299 14.1498 20.1979 13.8818 20.2314C13.6473 20.2649 13.3457 20.0974 13.3122 19.8294ZM17.0645 21.672C16.9305 21.739 16.763 21.7055 16.6625 21.605C16.361 21.203 15.8919 21.002 15.3894 21.069C14.8869 21.136 14.5183 21.538 14.3843 22.0071C14.3508 22.1746 14.1833 22.2416 14.0493 22.2081C13.8818 22.1746 13.8148 22.0406 13.8483 21.8731C14.0158 21.1695 14.5853 20.6335 15.2889 20.4994C15.9925 20.3654 16.696 20.667 17.1315 21.27C17.2321 21.4375 17.165 21.605 17.0645 21.672Z" fill="white"/>
<path d="M42.4261 16.4457C40.8515 16.1107 39.2434 17.1157 38.9083 18.7239C38.5733 20.332 39.5784 21.9066 41.1865 22.2416C42.7946 22.5767 44.3693 21.5716 44.7043 19.9635C45.0393 18.3553 44.0342 16.7807 42.4261 16.4457ZM40.2149 18.2548C40.2484 18.0203 40.55 17.7858 40.818 17.8863C41.1195 17.9198 41.287 18.2213 41.1865 18.4893C41.153 18.7909 40.8515 18.9584 40.5835 18.8579C40.3154 18.7574 40.1144 18.5564 40.2149 18.2548ZM43.1967 20.667C42.7946 21.2366 42.0576 21.5381 41.354 21.3706C40.6505 21.2031 40.1144 20.667 39.9469 19.9635C39.9134 19.7959 40.0139 19.6619 40.1479 19.6284C40.3154 19.5949 40.4495 19.6954 40.483 19.8295C40.617 20.332 40.9855 20.7005 41.421 20.7675C41.9236 20.8345 42.4261 20.7005 42.6941 20.265C42.7611 20.131 42.9957 20.0975 43.0962 20.198C43.2972 20.399 43.2972 20.5665 43.1967 20.667ZM43.7997 19.0254C43.7662 19.3269 43.4647 19.4944 43.1967 19.3939C42.8951 19.3604 42.7276 19.0589 42.8281 18.7909C42.8616 18.4893 43.1632 18.3218 43.4312 18.4223C43.6992 18.4893 43.8667 18.7574 43.7997 19.0254Z" fill="white"/>
<path d="M38.4303 14L36.6534 22.8072L40.6095 23.5774L40.2407 25.4192C39.8719 25.4192 39.5367 25.5531 39.302 25.821L33.3343 31.7148C32.8649 32.1836 32.295 32.418 31.6915 32.418H25.4221C24.8521 32.418 24.2151 32.1836 23.7793 31.7148L17.8787 25.821C17.644 25.5866 17.3423 25.4527 17.007 25.4192L16.8058 24.4145L20.5943 23.6443L18.8174 14.8707L10 16.6455L11.7769 25.4527L15.8671 24.6155L16.0683 25.6871C16.0347 25.7206 16.0012 25.754 15.9342 25.821C15.3977 26.3568 15.3977 27.2275 15.9342 27.7298L24.2487 36.1016V43H32.7308V36.0681L41.1124 27.7633C41.6153 27.2275 41.6153 26.3568 41.1124 25.821L41.0789 25.7875L41.4812 23.8118L45.4708 24.582L47.2477 15.7748L38.4303 14ZM12.2127 24.7829L10.637 17.0473L18.4151 15.5069L19.9908 23.2425L12.2127 24.7829ZM45.035 23.9792L37.2904 22.4053L38.8661 14.6697L46.6107 16.2436L45.035 23.9792Z" fill="white"/>
<defs>
<radialGradient id="paint0_radial_137_857" cx="0" cy="0" r="1" gradientUnits="userSpaceOnUse" gradientTransform="translate(28.5 28.5) rotate(90) scale(26.5)">
<stop offset="0.5" stop-color="#FF7500"/>
<stop offset="0.885" stop-color="#E06203"/>
<stop offset="1" stop-color="#AA4109"/>
</radialGradient>
</defs>
</svg>
