<svg width="57" height="57" viewBox="0 0 57 57" fill="none" xmlns="http://www.w3.org/2000/svg">
<circle cx="28.5" cy="28.5" r="28.5" fill="white"/>
<circle cx="28.5" cy="28.5" r="26.5" fill="url(#paint0_radial_137_830)"/>
<path d="M32.3529 19.9412C33.7174 19.9412 34.8235 18.8351 34.8235 17.4706C34.8235 16.1061 33.7174 15 32.3529 15C30.9884 15 29.8823 16.1061 29.8823 17.4706C29.8823 18.8351 30.9884 19.9412 32.3529 19.9412Z" fill="white"/>
<path d="M37.1075 22.1812L34.3938 23.2132C34.2487 23.2791 34.083 23.1912 34.0209 23.0375C33.9587 22.8838 34.0416 22.7082 34.1866 22.6423L36.9004 21.6104C37.0454 21.5445 37.2111 21.6323 37.2732 21.786C37.3354 21.9617 37.2525 22.1154 37.1075 22.1812Z" fill="white"/>
<path d="M37.2238 23.1756C37.0079 22.6248 36.4031 22.3164 35.8632 22.5367L32.2563 23.8806L31.3276 21.281C31.09 20.2456 30.2476 19.3865 29.1245 19.1662C27.6775 18.8798 26.252 19.8931 25.9928 21.3912L23.509 35.7987L20.2693 40.5572C19.7942 41.2621 19.9669 42.2094 20.6365 42.6941C21.3276 43.1787 22.2563 43.0025 22.7315 42.3196L26.1872 37.2968C26.3168 37.1205 26.4032 36.9002 26.4248 36.6799L27.2023 32.1858L29.8157 36.019L30.8092 41.7248C30.9604 42.5619 31.7379 43.1126 32.5586 42.9805C33.3794 42.8263 33.9193 42.0332 33.7897 41.196L32.7314 35.1599C32.7098 34.9396 32.6018 34.7413 32.4939 34.543L29.3837 30.0049L30.0965 25.8412L28.8654 22.4045C28.8006 22.2503 28.887 22.0741 29.0382 22.008C29.1893 21.9419 29.3621 22.03 29.4269 22.1842L30.6364 25.5548C30.7228 25.8412 30.9172 26.0395 31.1764 26.1937C31.4139 26.3259 31.6947 26.3259 31.9323 26.2598L36.5975 24.5414C37.1374 24.3432 37.4398 23.7263 37.2238 23.1756Z" fill="white"/>
<defs>
<radialGradient id="paint0_radial_137_830" cx="0" cy="0" r="1" gradientUnits="userSpaceOnUse" gradientTransform="translate(28.5 28.5) rotate(90) scale(26.5)">
<stop offset="0.5" stop-color="#FF7500"/>
<stop offset="0.885" stop-color="#E06203"/>
<stop offset="1" stop-color="#AA4109"/>
</radialGradient>
</defs>
</svg>
