<svg width="57" height="57" viewBox="0 0 57 57" fill="none" xmlns="http://www.w3.org/2000/svg">
<circle cx="28.5" cy="28.5" r="28.5" fill="white"/>
<circle cx="28.5" cy="28.5" r="26.5" fill="url(#paint0_radial_137_1052)"/>
<path d="M29 26C31.7614 26 34 23.7614 34 21C34 18.2386 31.7614 16 29 16C26.2386 16 24 18.2386 24 21C24 23.7614 26.2386 26 29 26Z" fill="white"/>
<path d="M31 19.6811C31 20.0205 30.9138 20.3065 30.7441 20.539C30.6444 20.678 30.4532 20.8597 30.1704 21.0788L29.8902 21.2953C29.7367 21.4129 29.637 21.5492 29.5858 21.7069C29.5535 21.8057 29.5374 21.9608 29.5347 22.1692H28.4652C28.4814 21.7283 28.5245 21.4236 28.5919 21.2552C28.6592 21.0868 28.837 20.8917 29.1198 20.6725L29.4081 20.448C29.5024 20.3759 29.5805 20.2984 29.6371 20.2155C29.7421 20.0739 29.7933 19.9162 29.7933 19.7425C29.7933 19.5447 29.7341 19.3629 29.6182 19.1999C29.4997 19.0369 29.2869 18.954 28.9771 18.954C28.6728 18.954 28.4546 19.0556 28.328 19.256C28.2148 19.4351 28.1529 19.6195 28.1394 19.8119C28.1394 19.8146 28.1394 19.8199 28.1394 19.8226C28.1394 19.8413 28.1394 19.8627 28.1367 19.8814C28.1071 20.1674 27.8646 20.3892 27.5684 20.3892C27.2721 20.3892 27.0296 20.1674 27 19.8814C27 19.8814 27.0054 19.7398 27.0108 19.6997C27.0728 19.0503 27.3313 18.5825 27.7812 18.2966C28.0908 18.0989 28.4733 18 28.9259 18C29.5211 18 30.0168 18.139 30.4101 18.4223C30.8034 18.7029 31 19.1225 31 19.6811ZM28.2902 23.2677C28.2902 23.6721 28.6206 24 29.0282 24C29.4359 24 29.7663 23.6721 29.7663 23.2677C29.7663 22.8633 29.4359 22.5354 29.0282 22.5354C28.6206 22.5354 28.2902 22.8633 28.2902 23.2677Z" fill="#FF7500"/>
<path d="M21.1142 41.0001V33.6934C21.1142 33.3337 21.339 33.1089 21.6987 33.1089C22.0585 33.1089 22.2833 33.3337 22.2833 33.6934V41.0001H35.2554V33.6934C35.2554 33.3337 35.4802 33.1089 35.8399 33.1089C36.1996 33.1089 36.4245 33.3337 36.4245 33.6934V41.0001H40.5612V32.5019C40.5612 29.2645 37.9083 26.6116 34.6709 26.6116H22.8903C19.6529 26.6116 17 29.2645 17 32.5019V41.0001H21.1142Z" fill="white"/>
<defs>
<radialGradient id="paint0_radial_137_1052" cx="0" cy="0" r="1" gradientUnits="userSpaceOnUse" gradientTransform="translate(28.5 28.5) rotate(90) scale(26.5)">
<stop offset="0.5" stop-color="#FF7500"/>
<stop offset="0.885" stop-color="#E06203"/>
<stop offset="1" stop-color="#AA4109"/>
</radialGradient>
</defs>
</svg>
