<svg width="57" height="57" viewBox="0 0 57 57" fill="none" xmlns="http://www.w3.org/2000/svg">
<circle cx="28.5" cy="28.5" r="28.5" fill="white"/>
<circle cx="28.5" cy="28.5" r="26.5" fill="url(#paint0_radial_137_779)"/>
<path d="M38 19.5C39.2426 19.5 40.25 18.4926 40.25 17.25C40.25 16.0074 39.2426 15 38 15C36.7574 15 35.75 16.0074 35.75 17.25C35.75 18.4926 36.7574 19.5 38 19.5Z" fill="white"/>
<path d="M46.3812 26.5818L42.2946 24.758L41.1549 21.7651C40.6827 20.7207 39.7059 19.9102 38.4685 19.7075L37.4916 19.5516C36.4659 19.3802 35.489 19.6452 34.7238 20.2063L31.2558 22.5289C31.0279 22.6848 30.8651 22.903 30.8162 23.1992V23.2148L29.9533 27.8288C29.8556 28.3588 30.2301 28.9044 30.7999 28.9823C31.3698 29.0603 31.9234 28.7173 32.0048 28.1717L32.8026 23.9318C32.8026 23.9318 34.8377 22.5913 34.854 22.5913L33.5027 29.9643L32.5421 35.3422L29.2695 39.7691C28.7973 40.4238 28.9601 41.3123 29.644 41.7488C30.3278 42.1853 31.2558 42.045 31.7117 41.3903L35.1471 36.6983C35.2936 36.5269 35.3587 36.3242 35.375 36.1216L36.1402 31.8972L38.7453 35.4669L39.7221 40.7979C39.8687 41.5773 40.6339 42.0917 41.448 41.9514C42.262 41.8111 42.7993 41.0785 42.6528 40.2991L41.6108 34.6563C41.5619 34.4381 41.4642 34.251 41.3503 34.0796L38.3545 29.9176L39.543 23.4018L40.4711 25.818C40.5688 26.0674 40.7479 26.2856 41.0247 26.3947H41.0409L45.502 28.3744C46.0393 28.5926 46.6417 28.39 46.9022 27.8756C47.1465 27.4079 46.9185 26.8156 46.3812 26.5818Z" fill="white"/>
<path d="M11.088 27.8615C11.3489 28.375 11.9522 28.5773 12.4903 28.3594L16.9579 26.3831H16.9742C17.2514 26.2742 17.447 26.0563 17.5285 25.8073L18.4579 23.3953L19.6482 29.9L16.6318 34.0861C16.5176 34.2573 16.4198 34.444 16.3709 34.6619L15.3274 40.2952C15.1806 41.0733 15.7187 41.8047 16.5339 41.9447C17.3492 42.0848 18.1155 41.5712 18.2623 40.7932L19.2406 35.4711L21.8494 31.9075L22.6157 36.1247C22.632 36.327 22.7136 36.5293 22.844 36.7005L26.2844 41.3845C26.7572 42.0381 27.6866 42.1937 28.3551 41.7424C29.0399 41.2911 29.203 40.4041 28.7301 39.7661L25.4528 35.3466L24.4908 29.9778L23.1375 22.6172C23.1538 22.6172 25.1919 23.9555 25.1919 23.9555L25.9909 28.1883C26.0887 28.7173 26.6431 29.0753 27.1974 28.9975C27.7518 28.9041 28.1268 28.375 28.0453 27.8459L27.1811 23.2397V23.2241C27.1322 22.9284 26.9692 22.7106 26.7409 22.5549L23.3005 20.2051C22.5342 19.6449 21.5559 19.3804 20.5287 19.5516L19.5504 19.7072C18.3112 19.9095 17.3329 20.7031 16.86 21.7613L15.7187 24.7491L11.6261 26.5698C11.088 26.8033 10.8598 27.3946 11.088 27.8615Z" fill="white"/>
<path d="M18.2316 19.3176C18.5825 19.4244 20.2912 19.5617 21.4965 17.4258C21.9542 16.5409 21.9542 15.3661 21.9542 15.3661C21.9542 15.3661 21.3439 15.9001 20.7031 15.8696C20.276 15.8391 19.742 15.5187 19.6352 15.4424C19.3911 15.3051 19.1317 15.1983 18.8113 15.1525C17.6671 15.0152 16.6449 15.8238 16.4923 16.9681C16.3855 18.097 17.1789 19.1345 18.2316 19.3176Z" fill="white"/>
<defs>
<radialGradient id="paint0_radial_137_779" cx="0" cy="0" r="1" gradientUnits="userSpaceOnUse" gradientTransform="translate(28.5 28.5) rotate(90) scale(26.5)">
<stop offset="0.5" stop-color="#FF7500"/>
<stop offset="0.885" stop-color="#E06203"/>
<stop offset="1" stop-color="#AA4109"/>
</radialGradient>
</defs>
</svg>
