<svg width="57" height="57" viewBox="0 0 57 57" fill="none" xmlns="http://www.w3.org/2000/svg">
<circle cx="28.5" cy="28.5" r="28.5" fill="white"/>
<circle cx="28.5" cy="28.5" r="26.5" fill="url(#paint0_radial_137_896)"/>
<path d="M21.3125 20.1163C22.6883 20.1163 23.8036 19.001 23.8036 17.6251C23.8036 16.2493 22.6883 15.134 21.3125 15.134C19.9366 15.134 18.8213 16.2493 18.8213 17.6251C18.8213 19.001 19.9366 20.1163 21.3125 20.1163Z" fill="white"/>
<path d="M20.8644 20.7601C20.8644 20.7601 20.6125 20.7321 20.5565 20.7321C19.7728 20.7321 19.157 21.3479 19.157 22.1317C19.157 22.1596 19.157 31.4526 19.157 31.4526C19.157 32.0404 19.6608 32.5442 20.2486 32.5442C20.8364 32.5442 21.3403 32.0404 21.3403 31.4526V24.4549C21.3403 24.2589 21.4522 24.147 21.6482 24.147C21.8441 24.147 21.9561 24.2589 21.9561 24.4549V31.4526C21.9561 31.8444 21.7881 32.2363 21.5922 32.5442C21.2843 32.9081 20.8084 33.16 20.2486 33.16C20.0807 33.16 19.9407 33.132 19.7728 33.104V43.4326C19.7728 44.3003 20.4446 45.0001 21.3403 45.0001C22.208 45.0001 22.9077 44.3283 22.9077 43.4326V31.9844C23.2996 31.6765 23.6355 31.2006 23.7475 30.6968C24.1393 28.9894 24.3633 27.17 24.3633 25.3506C24.3912 25.2386 24.3633 24.9027 24.3633 24.8747C24.3353 22.8034 22.8238 21.096 20.8644 20.7601Z" fill="white"/>
<path d="M17.8532 11L16.4324 11.2471L17.1119 12.6061L16 12.359L18.7798 15.5094L17.8532 13.3474L18.5944 13.5944L17.8532 11Z" fill="white"/>
<path d="M24.4627 11L25.8835 11.2471L25.204 12.6061L26.3159 12.359L23.5362 15.5094L24.4627 13.3474L23.7215 13.5944L24.4627 11Z" fill="white"/>
<path d="M33.8106 20.0594C32.4347 20.0594 31.3194 18.944 31.3194 17.5682C31.3194 16.1924 32.4347 15.077 33.8106 15.077C35.1864 15.077 36.3018 16.1924 36.3018 17.5682C36.3018 18.944 35.1864 20.0594 33.8106 20.0594Z" fill="white"/>
<path d="M33.0269 20.6751C33.0829 20.6751 33.3348 20.7031 33.3348 20.7031C35.2942 21.039 36.8057 22.7464 36.8057 24.8457C36.8057 24.8737 36.8337 25.1816 36.8057 25.3216C36.8057 27.169 36.5818 28.9604 36.1899 30.6678C36.0779 31.1716 35.742 31.6195 35.3502 31.9554V43.4036C35.3502 44.2713 34.6784 44.971 33.7827 44.971C32.915 44.971 32.2152 44.2993 32.2152 43.4036V33.047C32.3831 33.075 32.5231 33.103 32.691 33.103C33.2509 33.103 33.7267 32.8511 34.0346 32.4872C34.2585 32.1793 34.3985 31.8154 34.3985 31.3955V24.3979C34.3985 24.2019 34.2865 24.09 34.0906 24.09C33.8946 24.09 33.7827 24.2019 33.7827 24.3979V31.3955C33.7827 31.9834 33.2788 32.4872 32.691 32.4872C32.1032 32.4872 31.5994 31.9834 31.5994 31.3955C31.5994 31.3955 31.5994 22.1026 31.5994 22.0746C31.6274 21.2909 32.2432 20.6751 33.0269 20.6751Z" fill="white"/>
<defs>
<radialGradient id="paint0_radial_137_896" cx="0" cy="0" r="1" gradientUnits="userSpaceOnUse" gradientTransform="translate(28.5 28.5) rotate(90) scale(26.5)">
<stop offset="0.5" stop-color="#FF7500"/>
<stop offset="0.885" stop-color="#E06203"/>
<stop offset="1" stop-color="#AA4109"/>
</radialGradient>
</defs>
</svg>
