<svg width="57" height="57" viewBox="0 0 57 57" fill="none" xmlns="http://www.w3.org/2000/svg">
<circle cx="28.5" cy="28.5" r="28.5" fill="white"/>
<circle cx="28.5" cy="28.5" r="26.5" fill="url(#paint0_radial_137_701)"/>
<path d="M34.6981 19C37.3959 19 39.5741 21.2651 39.5741 24.0474C39.5741 26.8296 37.3859 29.0947 34.6981 29.0947C32.0103 29.0947 29.8221 26.8296 29.8221 24.0474C29.8221 21.2651 32.0003 19 34.6981 19ZM39.2244 31.7425L32.1801 31.8459L26.5947 22.0719C26.185 21.3168 25.3557 20.8824 24.3665 20.8824C24.2366 20.8824 23.9169 20.9134 23.797 20.9858C23.6671 21.0479 23.4772 21.0893 23.3473 21.1203C19.2707 22.5269 16.0133 29.2602 16.0133 36.19C16.0133 36.8209 15.9833 37.4105 16.0133 38H27.3041V34.5144L23.0975 27.0261C22.9377 26.7262 23.0676 26.3332 23.2874 26.1677C23.5772 26.0022 23.9568 26.1366 24.1167 26.3642L28.9927 35.0419C29.3724 35.6728 30.0119 36.159 30.8113 36.159H39.1944C40.4034 36.159 41.3327 35.135 41.3327 33.9456C41.3626 32.7251 40.3735 31.7425 39.2244 31.7425Z" fill="white"/>
<defs>
<radialGradient id="paint0_radial_137_701" cx="0" cy="0" r="1" gradientUnits="userSpaceOnUse" gradientTransform="translate(28.5 28.5) rotate(90) scale(26.5)">
<stop offset="0.5" stop-color="#FF7500"/>
<stop offset="0.885" stop-color="#E06203"/>
<stop offset="1" stop-color="#AA4109"/>
</radialGradient>
</defs>
</svg>
