<svg width="57" height="57" viewBox="0 0 57 57" fill="none" xmlns="http://www.w3.org/2000/svg">
<circle cx="28.5" cy="28.5" r="28.5" fill="white"/>
<circle cx="28.5" cy="28.5" r="26.5" fill="url(#paint0_radial_137_869)"/>
<path d="M27.5352 26.4232C27.5352 24.5549 29.0268 23.0436 30.8708 23.0436C32.7148 23.0436 34.2064 24.5549 34.2064 26.4232C34.2064 28.2916 32.7148 29.8029 30.8708 29.8029C29.0268 29.8029 27.5352 28.2916 27.5352 26.4232ZM17 18.7596L20.8289 20.14L43.25 13.0595L35.3104 13.0119L17 18.7596ZM37.8943 41.7029L37.4715 20.14L36.8372 20.1519L37.2601 41.7148L37.8943 41.7029ZM21.2047 30.8977L21.0285 19.1404L20.3943 19.1523L20.5705 30.9096L21.2047 30.8977ZM17.8339 36.5621L17.7399 18.7953H17.1057L17.1997 36.574L17.8339 36.5621ZM37.5772 40.0012H33.4782L32.3389 33.3134C32.0453 32.0163 29.802 30.3741 28.4631 30.3741H21.3809C20.8876 30.3741 20.406 30.6359 20.1359 31.0643L17.3289 36.0385C16.906 36.7287 17.1762 37.6093 17.8456 38.0258C18.4564 38.4185 19.3607 38.1805 19.807 37.526L22.203 33.3134H25.9144L21.3456 41.2983C21.052 41.7981 20.9111 42.3693 20.9111 42.9286L27.8993 43L30.1896 38.835L30.6711 41.8219C30.8591 42.4764 31.4463 42.9286 32.1275 42.9286H37.5889C38.3993 42.9524 38.9983 42.3336 39.0336 41.5363C39.057 40.8104 38.3523 40.0726 37.5772 40.0012ZM28.3221 13H22.4732L34.9581 21.0087L39.6325 20.5327L28.3221 13Z" fill="white"/>
<defs>
<radialGradient id="paint0_radial_137_869" cx="0" cy="0" r="1" gradientUnits="userSpaceOnUse" gradientTransform="translate(28.5 28.5) rotate(90) scale(26.5)">
<stop offset="0.5" stop-color="#FF7500"/>
<stop offset="0.885" stop-color="#E06203"/>
<stop offset="1" stop-color="#AA4109"/>
</radialGradient>
</defs>
</svg>
