<svg width="57" height="57" viewBox="0 0 57 57" fill="none" xmlns="http://www.w3.org/2000/svg">
<circle cx="28.5" cy="28.5" r="28.5" fill="white"/>
<circle cx="28.5" cy="28.5" r="26.5" fill="url(#paint0_radial_137_1025)"/>
<path d="M36.5242 37.7313C36.5374 37.7313 36.5507 37.7446 36.5507 37.7446C36.5242 37.7313 36.4978 37.7049 36.4846 37.6917C36.3524 37.586 36.2071 37.467 36.0617 37.3613C36.0088 37.3217 35.9692 37.2952 35.9163 37.2556C35.7181 37.1234 35.5066 36.9913 35.2819 36.8591C35.2819 36.8591 35.2819 36.8591 35.2687 36.8591C34.7797 36.5948 34.2379 36.3569 33.6432 36.1454C32.8634 35.8811 32.0044 35.6697 31.0925 35.5243V39.6344C31.0925 40.4935 30.3921 41.1807 29.5463 41.1807C29.0969 41.1807 28.7004 40.9824 28.4229 40.6785C28.1454 40.9824 27.7357 41.1807 27.2863 41.1807C26.4273 41.1807 25.7401 40.4935 25.7401 39.6344V35.5243C21.8414 36.119 19 37.9692 19 40.1631C19 42.8327 23.2159 45.0001 28.4229 45.0001C33.63 45.0001 37.8458 42.8327 37.8458 40.1631C37.8458 39.2908 37.3568 38.4582 36.5242 37.7313Z" fill="white"/>
<path d="M31.0133 25.2952L33.5111 22.7841L30.0089 12H26.5992L23.282 22.7709L25.7798 25.2952H31.0133ZM28.5022 21.3304C29.4406 21.3304 30.2071 22.0969 30.2071 23.0352C30.2071 23.9868 29.4406 24.7401 28.5022 24.7401C27.5639 24.7401 26.7974 23.9868 26.7974 23.0352C26.7974 22.0969 27.5639 21.3304 28.5022 21.3304Z" fill="white"/>
<path d="M37.6342 38.1013L33.947 24.3965L30.5505 27.8987V34.9163L31.1717 35.0088C34.1849 35.4582 36.5109 36.6079 37.6342 38.1013Z" fill="white"/>
<path d="M26.2688 34.9163V39.6608C26.2688 40.2027 26.7049 40.6388 27.2468 40.652C27.7622 40.6256 28.1719 40.2027 28.1719 39.6873L28.1587 34.7842C27.5111 34.7974 26.8767 34.837 26.2688 34.9163Z" fill="white"/>
<path d="M26.229 34.9163V27.8722L22.8589 24.4097L19.436 37.8105C20.6387 36.4625 22.8325 35.4317 25.6475 35.0088L26.229 34.9163Z" fill="white"/>
<path d="M28.6075 34.7577V31.7974H28.1714V34.7577C28.2903 34.7577 28.3961 34.7577 28.515 34.7577C28.5414 34.7577 28.5811 34.7577 28.6075 34.7577Z" fill="white"/>
<path d="M28.6079 39.6873C28.6212 40.2159 29.0573 40.6521 29.5859 40.6521C30.1278 40.6521 30.5507 40.2159 30.5507 39.6873L30.5375 34.8899C29.9163 34.8106 29.2687 34.771 28.5947 34.771L28.6079 39.6873Z" fill="white"/>
<path d="M22.0661 23.5903L22.8591 24.4097L23.282 22.7709L23.097 22.5727C23.097 22.5727 23.097 22.5727 23.097 22.5595C22.8194 22.2819 22.3569 22.2819 22.0794 22.5595C21.7886 22.8502 21.7886 23.3128 22.0661 23.5903Z" fill="white"/>
<path d="M34.7268 23.6036C35.0176 23.3128 35.0176 22.8635 34.7268 22.586C34.4493 22.3084 33.9868 22.3084 33.7092 22.586L33.511 22.7842L33.9471 24.4097L34.7268 23.6036Z" fill="white"/>
<defs>
<radialGradient id="paint0_radial_137_1025" cx="0" cy="0" r="1" gradientUnits="userSpaceOnUse" gradientTransform="translate(28.5 28.5) rotate(90) scale(26.5)">
<stop offset="0.5" stop-color="#FF7500"/>
<stop offset="0.885" stop-color="#E06203"/>
<stop offset="1" stop-color="#AA4109"/>
</radialGradient>
</defs>
</svg>
