<svg width="57" height="57" viewBox="0 0 57 57" fill="none" xmlns="http://www.w3.org/2000/svg">
<circle cx="28.5" cy="28.5" r="28.5" fill="white"/>
<circle cx="28.5" cy="28.5" r="26.5" fill="url(#paint0_radial_137_986)"/>
<path d="M29 26C31.7614 26 34 23.7614 34 21C34 18.2386 31.7614 16 29 16C26.2386 16 24 18.2386 24 21C24 23.7614 26.2386 26 29 26Z" fill="white"/>
<path d="M30.572 20.0887V19.4235C30.5642 18.6366 29.856 18 29 18C28.1362 18 27.4358 18.6438 27.4358 19.4378V20.0959H27V23H31V20.0959H30.572V20.0887ZM28.0661 19.4306C28.0661 18.9514 28.4864 18.5651 29.0078 18.5651C29.5292 18.5651 29.9494 18.9514 29.9494 19.4306V20.0959H28.0661V19.4306Z" fill="#FF7500"/>
<path d="M21.1142 41.0001V33.6934C21.1142 33.3337 21.339 33.1089 21.6987 33.1089C22.0585 33.1089 22.2833 33.3337 22.2833 33.6934V41.0001H35.2554V33.6934C35.2554 33.3337 35.4802 33.1089 35.8399 33.1089C36.1996 33.1089 36.4245 33.3337 36.4245 33.6934V41.0001H40.5612V32.5019C40.5612 29.2645 37.9083 26.6116 34.6709 26.6116H22.8903C19.6529 26.6116 17 29.2645 17 32.5019V41.0001H21.1142Z" fill="white"/>
<defs>
<radialGradient id="paint0_radial_137_986" cx="0" cy="0" r="1" gradientUnits="userSpaceOnUse" gradientTransform="translate(28.5 28.5) rotate(90) scale(26.5)">
<stop offset="0.5" stop-color="#FF7500"/>
<stop offset="0.885" stop-color="#E06203"/>
<stop offset="1" stop-color="#AA4109"/>
</radialGradient>
</defs>
</svg>
