<svg width="57" height="57" viewBox="0 0 57 57" fill="none" xmlns="http://www.w3.org/2000/svg">
<circle cx="28.5" cy="28.5" r="28.5" fill="white"/>
<circle cx="28.5" cy="28.5" r="26.5" fill="url(#paint0_radial_137_1013)"/>
<path d="M28.9823 27.2C31.5228 27.2 33.5823 25.1405 33.5823 22.6C33.5823 20.0595 31.5228 18 28.9823 18C26.4418 18 24.3823 20.0595 24.3823 22.6C24.3823 25.1405 26.4418 27.2 28.9823 27.2Z" fill="white"/>
<path d="M21.7275 41.0001V34.278C21.7275 33.947 21.9343 33.7402 22.2652 33.7402C22.5962 33.7402 22.803 33.947 22.803 34.278V41.0001H34.7374V34.278C34.7374 33.947 34.9442 33.7402 35.2751 33.7402C35.6061 33.7402 35.8129 33.947 35.8129 34.278V41.0001H39.6186V33.1818C39.6186 30.2033 37.178 27.7627 34.1996 27.7627H23.3614C20.383 27.7627 17.9424 30.2033 17.9424 33.1818V41.0001H21.7275Z" fill="white"/>
<path d="M28.946 10H29.2771C29.8418 10.0212 30.4064 10.1274 30.9456 10.3057C31.765 10.5731 32.5292 10.9892 33.2254 11.4902C33.4887 11.6812 33.7434 11.885 33.9811 12.1015C34.0491 12.161 34.1127 12.2246 34.1722 12.2926C34.2019 12.3265 34.2231 12.369 34.2274 12.4114V12.5176C34.2231 12.5558 34.2061 12.5897 34.1849 12.6195C34.1255 12.7001 34.0491 12.7681 33.9726 12.836C33.3146 13.4219 32.5759 13.9186 31.7777 14.2964C30.9923 14.6658 30.139 14.9078 29.2686 14.9375H28.946C28.479 14.9205 28.012 14.8441 27.562 14.7167C26.8657 14.5214 26.2077 14.2115 25.5921 13.8337C25.5623 13.8167 25.5326 13.804 25.5029 13.7827C25.1463 13.5577 24.8066 13.3115 24.484 13.0398C24.3566 12.9336 24.2335 12.8275 24.1146 12.7086C24.0637 12.6534 24.0085 12.5982 24 12.5218V12.4157C24.0085 12.352 24.0509 12.3011 24.0892 12.2586C24.1656 12.1737 24.2505 12.1015 24.3311 12.0251C24.9552 11.4817 25.6472 11.0189 26.3902 10.6623C27.1926 10.2844 28.0587 10.0297 28.946 10ZM28.9248 10.6581C28.6488 10.6878 28.3813 10.7769 28.1521 10.9255C27.8379 11.1208 27.5874 11.4137 27.4388 11.7576C27.2945 12.093 27.2563 12.4751 27.3285 12.8317C27.3964 13.1671 27.5577 13.4771 27.7912 13.7233C27.9992 13.9441 28.2667 14.1139 28.5597 14.2073C29.0394 14.3644 29.5828 14.3049 30.0201 14.0502C30.3725 13.8464 30.6527 13.5238 30.8013 13.1459C30.9753 12.7171 30.9753 12.2246 30.8013 11.7958C30.6357 11.3755 30.3045 11.0232 29.9012 10.8321C29.5956 10.6835 29.2559 10.6241 28.9248 10.6581ZM25.9487 11.5538C25.5029 11.8256 25.0826 12.1312 24.692 12.4709C24.8024 12.5685 24.917 12.6619 25.0317 12.7511C25.7237 13.2945 26.4921 13.753 27.3242 14.0502C27.0398 13.7275 26.8445 13.3285 26.7681 12.9039C26.7086 12.5813 26.7171 12.2459 26.7935 11.9275C26.8827 11.5454 27.0695 11.1887 27.3285 10.8916C26.8445 11.0656 26.386 11.2906 25.9487 11.5538ZM30.8904 10.8831C31.0348 11.0444 31.1579 11.2269 31.2555 11.4265C31.4721 11.8638 31.5442 12.3732 31.4678 12.853C31.3999 13.2945 31.1961 13.7148 30.8989 14.0544C31.4296 13.8676 31.9348 13.6087 32.4103 13.3115C32.8051 13.061 33.1872 12.7808 33.5396 12.4709C33.4505 12.3945 33.3613 12.318 33.2721 12.2416C32.5547 11.6642 31.7565 11.1845 30.8904 10.8831Z" fill="white"/>
<path d="M30.0795 12.577C30.0583 12.7935 29.9606 12.9973 29.8078 13.1501C29.6464 13.3157 29.4214 13.4218 29.1879 13.4388C28.9799 13.4558 28.7676 13.4006 28.5936 13.2902C28.411 13.1756 28.2667 12.993 28.1945 12.7893C28.1138 12.5558 28.1223 12.2925 28.2242 12.0675C28.3006 11.8935 28.4365 11.7449 28.5978 11.643C28.8016 11.5156 29.0521 11.4689 29.2856 11.5114C29.5828 11.5623 29.8502 11.7661 29.9861 12.0378C29.6974 12.1822 29.4087 12.3223 29.1242 12.4666C29.4384 12.5048 29.7611 12.543 30.0795 12.577Z" fill="white"/>
<path d="M40.9016 17H41.0959C41.4271 17.0125 41.7584 17.0747 42.0747 17.1793C42.5554 17.3362 43.0037 17.5803 43.4122 17.8742C43.5666 17.9863 43.7161 18.1059 43.8555 18.2329C43.8954 18.2677 43.9328 18.3051 43.9676 18.345C43.9851 18.3649 43.9975 18.3898 44 18.4147V18.477C43.9975 18.4994 43.9875 18.5193 43.9751 18.5367C43.9402 18.5841 43.8954 18.6239 43.8506 18.6638C43.4645 19.0075 43.0311 19.2989 42.5629 19.5205C42.1021 19.7372 41.6015 19.8792 41.0909 19.8966H40.9016C40.6276 19.8867 40.3537 19.8418 40.0897 19.7671C39.6812 19.6526 39.2951 19.4707 38.934 19.2491C38.9166 19.2391 38.8991 19.2316 38.8817 19.2192C38.6725 19.0872 38.4732 18.9427 38.2839 18.7833C38.2092 18.721 38.137 18.6588 38.0672 18.589C38.0374 18.5567 38.005 18.5243 38 18.4795V18.4172C38.005 18.3798 38.0299 18.3499 38.0523 18.325C38.0971 18.2752 38.1469 18.2329 38.1943 18.188C38.5604 17.8692 38.9664 17.5978 39.4022 17.3885C39.873 17.1669 40.3811 17.0174 40.9016 17ZM40.8892 17.3861C40.7273 17.4035 40.5704 17.4558 40.4359 17.543C40.2516 17.6575 40.1046 17.8294 40.0174 18.0311C39.9328 18.2279 39.9103 18.4521 39.9527 18.6613C39.9925 18.858 40.0872 19.0399 40.2242 19.1843C40.3462 19.3138 40.5031 19.4134 40.675 19.4682C40.9564 19.5604 41.2752 19.5255 41.5318 19.3761C41.7385 19.2565 41.9029 19.0672 41.99 18.8456C42.0922 18.594 42.0922 18.3051 41.99 18.0535C41.8929 17.807 41.6986 17.6002 41.462 17.4882C41.2827 17.401 41.0834 17.3661 40.8892 17.3861ZM39.1432 17.9116C38.8817 18.071 38.6351 18.2503 38.406 18.4496C38.4707 18.5068 38.538 18.5616 38.6052 18.6139C39.0112 18.9328 39.462 19.2017 39.9502 19.3761C39.7833 19.1868 39.6687 18.9527 39.6239 18.7036C39.589 18.5143 39.594 18.3176 39.6389 18.1308C39.6912 17.9066 39.8007 17.6974 39.9527 17.523C39.6687 17.6252 39.3998 17.7572 39.1432 17.9116ZM42.0423 17.5181C42.127 17.6127 42.1993 17.7198 42.2565 17.8369C42.3836 18.0934 42.4259 18.3923 42.3811 18.6737C42.3412 18.9328 42.2217 19.1793 42.0473 19.3786C42.3587 19.269 42.655 19.1171 42.934 18.9427C43.1656 18.7958 43.3898 18.6314 43.5965 18.4496C43.5442 18.4047 43.4919 18.3599 43.4396 18.3151C43.0187 17.9763 42.5504 17.6949 42.0423 17.5181Z" fill="white"/>
<path d="M41.5667 18.5118C41.5542 18.6388 41.497 18.7584 41.4073 18.848C41.3126 18.9452 41.1806 19.0074 41.0437 19.0174C40.9216 19.0274 40.7971 18.995 40.695 18.9302C40.5879 18.863 40.5032 18.7559 40.4608 18.6363C40.4135 18.4994 40.4185 18.3449 40.4783 18.2129C40.5231 18.1108 40.6028 18.0236 40.6975 17.9639C40.817 17.8891 40.964 17.8617 41.1009 17.8866C41.2753 17.9165 41.4322 18.0361 41.5119 18.1955C41.3425 18.2802 41.1732 18.3624 41.0063 18.447C41.1906 18.4695 41.3799 18.4919 41.5667 18.5118Z" fill="white"/>
<path d="M38.0034 23H38.1376C38.3663 23.0086 38.595 23.0516 38.8134 23.1238C39.1453 23.2322 39.4549 23.4007 39.7369 23.6036C39.8435 23.681 39.9467 23.7635 40.043 23.8512C40.0705 23.8753 40.0963 23.9011 40.1204 23.9286C40.1324 23.9424 40.141 23.9596 40.1427 23.9768V24.0198C40.141 24.0353 40.1341 24.049 40.1255 24.061C40.1015 24.0937 40.0705 24.1212 40.0396 24.1488C39.773 24.3861 39.4738 24.5873 39.1505 24.7403C38.8323 24.8899 38.4867 24.988 38.1341 25H38.0034C37.8143 24.9931 37.6251 24.9622 37.4428 24.9106C37.1608 24.8315 36.8942 24.7059 36.6449 24.5529C36.6328 24.546 36.6208 24.5408 36.6088 24.5322C36.4643 24.4411 36.3267 24.3414 36.196 24.2313C36.1445 24.1883 36.0946 24.1453 36.0464 24.0972C36.0258 24.0748 36.0034 24.0525 36 24.0215V23.9785C36.0034 23.9527 36.0206 23.9321 36.0361 23.9149C36.0671 23.8805 36.1015 23.8512 36.1341 23.8203C36.3869 23.6002 36.6672 23.4127 36.9682 23.2683C37.2932 23.1152 37.644 23.012 38.0034 23ZM37.9948 23.2666C37.8831 23.2786 37.7747 23.3147 37.6819 23.3749C37.5546 23.454 37.4531 23.5727 37.3929 23.712C37.3345 23.8478 37.319 24.0026 37.3482 24.147C37.3758 24.2829 37.4411 24.4084 37.5357 24.5082C37.6199 24.5976 37.7283 24.6664 37.8469 24.7042C38.0413 24.7678 38.2614 24.7438 38.4385 24.6406C38.5813 24.558 38.6948 24.4273 38.7549 24.2743C38.8255 24.1006 38.8255 23.9011 38.7549 23.7274C38.6879 23.5572 38.5537 23.4144 38.3904 23.3371C38.2666 23.2769 38.129 23.2528 37.9948 23.2666ZM36.7893 23.6294C36.6088 23.7395 36.4385 23.8633 36.2803 24.0009C36.325 24.0404 36.3715 24.0782 36.4179 24.1144C36.6982 24.3345 37.0095 24.5202 37.3465 24.6406C37.2313 24.5099 37.1522 24.3482 37.1212 24.1763C37.0972 24.0456 37.1006 23.9097 37.1316 23.7807C37.1677 23.626 37.2433 23.4815 37.3482 23.3611C37.1522 23.4316 36.9665 23.5228 36.7893 23.6294ZM38.7911 23.3577C38.8495 23.423 38.8994 23.497 38.939 23.5778C39.0267 23.7549 39.0559 23.9613 39.0249 24.1556C38.9974 24.3345 38.9149 24.5047 38.7945 24.6423C39.0095 24.5666 39.2141 24.4617 39.4067 24.3414C39.5666 24.2399 39.7214 24.1264 39.8641 24.0009C39.828 23.9699 39.7919 23.939 39.7558 23.908C39.4652 23.6741 39.1419 23.4798 38.7911 23.3577Z" fill="white"/>
<path d="M38.4626 24.0438C38.454 24.1315 38.4144 24.214 38.3525 24.2759C38.2872 24.343 38.196 24.386 38.1014 24.3929C38.0172 24.3998 37.9312 24.3774 37.8607 24.3327C37.7867 24.2863 37.7283 24.2123 37.699 24.1298C37.6663 24.0352 37.6698 23.9286 37.7111 23.8374C37.742 23.7669 37.797 23.7067 37.8624 23.6655C37.9449 23.6139 38.0464 23.5949 38.141 23.6121C38.2614 23.6328 38.3697 23.7153 38.4247 23.8254C38.3078 23.8839 38.1908 23.9406 38.0756 23.9991C38.2029 24.0146 38.3336 24.03 38.4626 24.0438Z" fill="white"/>
<path d="M16.0034 13H16.1376C16.3663 13.0086 16.595 13.0516 16.8134 13.1238C17.1453 13.2322 17.4549 13.4007 17.7369 13.6036C17.8435 13.681 17.9467 13.7635 18.043 13.8512C18.0705 13.8753 18.0963 13.9011 18.1204 13.9286C18.1324 13.9424 18.141 13.9596 18.1427 13.9768V14.0198C18.141 14.0353 18.1341 14.049 18.1255 14.061C18.1015 14.0937 18.0705 14.1212 18.0396 14.1488C17.773 14.3861 17.4738 14.5873 17.1505 14.7403C16.8323 14.8899 16.4867 14.988 16.1341 15H16.0034C15.8143 14.9931 15.6251 14.9622 15.4428 14.9106C15.1608 14.8315 14.8942 14.7059 14.6449 14.5529C14.6328 14.546 14.6208 14.5408 14.6088 14.5322C14.4643 14.4411 14.3267 14.3414 14.196 14.2313C14.1445 14.1883 14.0946 14.1453 14.0464 14.0972C14.0258 14.0748 14.0034 14.0525 14 14.0215V13.9785C14.0034 13.9527 14.0206 13.9321 14.0361 13.9149C14.0671 13.8805 14.1015 13.8512 14.1341 13.8203C14.3869 13.6002 14.6672 13.4127 14.9682 13.2683C15.2932 13.1152 15.644 13.012 16.0034 13ZM15.9948 13.2666C15.8831 13.2786 15.7747 13.3147 15.6819 13.3749C15.5546 13.454 15.4531 13.5727 15.3929 13.712C15.3345 13.8478 15.319 14.0026 15.3482 14.147C15.3758 14.2829 15.4411 14.4084 15.5357 14.5082C15.6199 14.5976 15.7283 14.6664 15.8469 14.7042C16.0413 14.7678 16.2614 14.7438 16.4385 14.6406C16.5813 14.558 16.6948 14.4273 16.7549 14.2743C16.8255 14.1006 16.8255 13.9011 16.7549 13.7274C16.6879 13.5572 16.5537 13.4144 16.3904 13.3371C16.2666 13.2769 16.129 13.2528 15.9948 13.2666ZM14.7893 13.6294C14.6088 13.7395 14.4385 13.8633 14.2803 14.0009C14.325 14.0404 14.3715 14.0782 14.4179 14.1144C14.6982 14.3345 15.0095 14.5202 15.3465 14.6406C15.2313 14.5099 15.1522 14.3482 15.1212 14.1763C15.0972 14.0456 15.1006 13.9097 15.1316 13.7807C15.1677 13.626 15.2433 13.4815 15.3482 13.3611C15.1522 13.4316 14.9665 13.5228 14.7893 13.6294ZM16.7911 13.3577C16.8495 13.423 16.8994 13.497 16.939 13.5778C17.0267 13.7549 17.0559 13.9613 17.0249 14.1556C16.9974 14.3345 16.9149 14.5047 16.7945 14.6423C17.0095 14.5666 17.2141 14.4617 17.4067 14.3414C17.5666 14.2399 17.7214 14.1264 17.8641 14.0009C17.828 13.9699 17.7919 13.939 17.7558 13.908C17.4652 13.6741 17.1419 13.4798 16.7911 13.3577Z" fill="white"/>
<path d="M16.4626 14.0438C16.454 14.1315 16.4144 14.214 16.3525 14.2759C16.2872 14.343 16.196 14.386 16.1014 14.3929C16.0172 14.3998 15.9312 14.3774 15.8607 14.3327C15.7867 14.2863 15.7283 14.2123 15.699 14.1298C15.6663 14.0352 15.6698 13.9286 15.7111 13.8374C15.742 13.7669 15.797 13.7067 15.8624 13.6655C15.9449 13.6139 16.0464 13.5949 16.141 13.6121C16.2614 13.6328 16.3697 13.7153 16.4247 13.8254C16.3078 13.8839 16.1908 13.9406 16.0756 13.9991C16.2029 14.0146 16.3336 14.03 16.4626 14.0438Z" fill="white"/>
<path d="M15.0362 27H15.1056C15.2239 27.0044 15.3422 27.0267 15.4552 27.064C15.6268 27.1201 15.7869 27.2072 15.9328 27.3122C15.988 27.3522 16.0413 27.3949 16.0911 27.4403C16.1054 27.4527 16.1187 27.4661 16.1312 27.4803C16.1374 27.4874 16.1418 27.4963 16.1427 27.5052V27.5275C16.1418 27.5355 16.1383 27.5426 16.1338 27.5488C16.1214 27.5657 16.1054 27.5799 16.0894 27.5942C15.9515 27.7169 15.7967 27.821 15.6295 27.9001C15.465 27.9775 15.2862 28.0282 15.1038 28.0345H15.0362C14.9384 28.0309 14.8405 28.0149 14.7463 27.9882C14.6004 27.9473 14.4625 27.8824 14.3336 27.8032C14.3273 27.7996 14.3211 27.797 14.3149 27.7925C14.2402 27.7454 14.169 27.6938 14.1014 27.6369C14.0747 27.6146 14.0489 27.5924 14.024 27.5675C14.0133 27.5559 14.0018 27.5444 14 27.5283V27.5061C14.0018 27.4928 14.0107 27.4821 14.0187 27.4732C14.0347 27.4554 14.0525 27.4403 14.0694 27.4243C14.2001 27.3104 14.3451 27.2135 14.5008 27.1388C14.6689 27.0596 14.8503 27.0062 15.0362 27ZM15.0318 27.1379C14.974 27.1441 14.9179 27.1628 14.8699 27.1939C14.8041 27.2348 14.7516 27.2962 14.7205 27.3682C14.6902 27.4385 14.6822 27.5186 14.6973 27.5933C14.7116 27.6635 14.7454 27.7285 14.7943 27.7801C14.8379 27.8263 14.8939 27.8619 14.9553 27.8815C15.0558 27.9144 15.1697 27.9019 15.2613 27.8486C15.3351 27.8059 15.3938 27.7383 15.4249 27.6591C15.4614 27.5693 15.4614 27.4661 15.4249 27.3762C15.3902 27.2882 15.3209 27.2144 15.2364 27.1743C15.1723 27.1432 15.1012 27.1308 15.0318 27.1379ZM14.4083 27.3255C14.3149 27.3825 14.2268 27.4465 14.145 27.5177C14.1681 27.5381 14.1921 27.5577 14.2161 27.5764C14.3611 27.6902 14.5221 27.7863 14.6965 27.8486C14.6369 27.781 14.5959 27.6973 14.5799 27.6084C14.5675 27.5408 14.5693 27.4705 14.5853 27.4038C14.604 27.3238 14.6431 27.2491 14.6973 27.1868C14.5959 27.2233 14.4999 27.2704 14.4083 27.3255ZM15.4436 27.185C15.4739 27.2188 15.4996 27.2571 15.5201 27.2989C15.5655 27.3905 15.5806 27.4972 15.5646 27.5977C15.5503 27.6902 15.5077 27.7783 15.4454 27.8494C15.5566 27.8103 15.6624 27.756 15.762 27.6938C15.8448 27.6413 15.9248 27.5826 15.9986 27.5177C15.98 27.5017 15.9613 27.4857 15.9426 27.4696C15.7923 27.3487 15.6251 27.2482 15.4436 27.185Z" fill="white"/>
<path d="M15.2737 27.5399C15.2693 27.5853 15.2488 27.628 15.2168 27.66C15.183 27.6947 15.1359 27.7169 15.087 27.7205C15.0434 27.7241 14.9989 27.7125 14.9624 27.6894C14.9242 27.6654 14.8939 27.6271 14.8788 27.5844C14.8619 27.5355 14.8637 27.4803 14.885 27.4332C14.9011 27.3967 14.9295 27.3656 14.9633 27.3443C15.006 27.3176 15.0585 27.3078 15.1074 27.3167C15.1697 27.3274 15.2257 27.37 15.2542 27.427C15.1937 27.4572 15.1332 27.4866 15.0736 27.5168C15.1394 27.5248 15.207 27.5328 15.2737 27.5399Z" fill="white"/>
<path d="M18.9016 20H19.0959C19.4271 20.0125 19.7584 20.0747 20.0747 20.1793C20.5554 20.3362 21.0037 20.5803 21.4122 20.8742C21.5666 20.9863 21.7161 21.1059 21.8555 21.2329C21.8954 21.2677 21.9328 21.3051 21.9676 21.345C21.9851 21.3649 21.9975 21.3898 22 21.4147V21.477C21.9975 21.4994 21.9875 21.5193 21.9751 21.5367C21.9402 21.5841 21.8954 21.6239 21.8506 21.6638C21.4645 22.0075 21.0311 22.2989 20.5629 22.5205C20.1021 22.7372 19.6015 22.8792 19.0909 22.8966H18.9016C18.6276 22.8867 18.3537 22.8418 18.0897 22.7671C17.6812 22.6526 17.2951 22.4707 16.934 22.2491C16.9166 22.2391 16.8991 22.2316 16.8817 22.2192C16.6725 22.0872 16.4732 21.9427 16.2839 21.7833C16.2092 21.721 16.137 21.6588 16.0672 21.589C16.0374 21.5567 16.005 21.5243 16 21.4795V21.4172C16.005 21.3798 16.0299 21.3499 16.0523 21.325C16.0971 21.2752 16.1469 21.2329 16.1943 21.188C16.5604 20.8692 16.9664 20.5978 17.4022 20.3885C17.873 20.1669 18.3811 20.0174 18.9016 20ZM18.8892 20.3861C18.7273 20.4035 18.5704 20.4558 18.4359 20.543C18.2516 20.6575 18.1046 20.8294 18.0174 21.0311C17.9328 21.2279 17.9103 21.4521 17.9527 21.6613C17.9925 21.858 18.0872 22.0399 18.2242 22.1843C18.3462 22.3138 18.5031 22.4134 18.675 22.4682C18.9564 22.5604 19.2752 22.5255 19.5318 22.3761C19.7385 22.2565 19.9029 22.0672 19.99 21.8456C20.0922 21.594 20.0922 21.3051 19.99 21.0535C19.8929 20.807 19.6986 20.6002 19.462 20.4882C19.2827 20.401 19.0834 20.3661 18.8892 20.3861ZM17.1432 20.9116C16.8817 21.071 16.6351 21.2503 16.406 21.4496C16.4707 21.5068 16.538 21.5616 16.6052 21.6139C17.0112 21.9328 17.462 22.2017 17.9502 22.3761C17.7833 22.1868 17.6687 21.9527 17.6239 21.7036C17.589 21.5143 17.594 21.3176 17.6389 21.1308C17.6912 20.9066 17.8007 20.6974 17.9527 20.523C17.6687 20.6252 17.3998 20.7572 17.1432 20.9116ZM20.0423 20.5181C20.127 20.6127 20.1993 20.7198 20.2565 20.8369C20.3836 21.0934 20.4259 21.3923 20.3811 21.6737C20.3412 21.9328 20.2217 22.1793 20.0473 22.3786C20.3587 22.269 20.655 22.1171 20.934 21.9427C21.1656 21.7958 21.3898 21.6314 21.5965 21.4496C21.5442 21.4047 21.4919 21.3599 21.4396 21.3151C21.0187 20.9763 20.5504 20.6949 20.0423 20.5181Z" fill="white"/>
<path d="M19.5667 21.5118C19.5542 21.6388 19.497 21.7584 19.4073 21.848C19.3126 21.9452 19.1806 22.0074 19.0437 22.0174C18.9216 22.0274 18.7971 21.995 18.695 21.9302C18.5879 21.863 18.5032 21.7559 18.4608 21.6363C18.4135 21.4994 18.4185 21.3449 18.4783 21.2129C18.5231 21.1108 18.6028 21.0236 18.6975 20.9639C18.817 20.8891 18.964 20.8617 19.1009 20.8866C19.2753 20.9165 19.4322 21.0361 19.5119 21.1955C19.3425 21.2802 19.1732 21.3624 19.0063 21.447C19.1906 21.4695 19.3799 21.4919 19.5667 21.5118Z" fill="white"/>
<defs>
<radialGradient id="paint0_radial_137_1013" cx="0" cy="0" r="1" gradientUnits="userSpaceOnUse" gradientTransform="translate(28.5 28.5) rotate(90) scale(26.5)">
<stop offset="0.5" stop-color="#FF7500"/>
<stop offset="0.885" stop-color="#E06203"/>
<stop offset="1" stop-color="#AA4109"/>
</radialGradient>
</defs>
</svg>
