<svg width="57" height="57" viewBox="0 0 57 57" fill="none" xmlns="http://www.w3.org/2000/svg">
<circle cx="28.5" cy="28.5" r="28.5" fill="white"/>
<circle cx="28.5" cy="28.5" r="26.5" fill="url(#paint0_radial_137_674)"/>
<path d="M28.6507 25.4425C31.2581 25.4425 33.3719 23.3287 33.3719 20.7212C33.3719 18.1138 31.2581 16 28.6507 16C26.0432 16 23.9294 18.1138 23.9294 20.7212C23.9294 23.3287 26.0432 25.4425 28.6507 25.4425Z" fill="white"/>
<path d="M21.1142 41V33.6934C21.1142 33.3336 21.339 33.1088 21.6987 33.1088C22.0585 33.1088 22.2833 33.3336 22.2833 33.6934V41H35.2554V33.6934C35.2554 33.3336 35.4802 33.1088 35.8399 33.1088C36.1996 33.1088 36.4245 33.3336 36.4245 33.6934V41H40.5612V32.5018C40.5612 29.2644 37.9083 26.6115 34.6709 26.6115H22.8903C19.6529 26.6115 17 29.2644 17 32.5018V41H21.1142Z" fill="white"/>
<path d="M28.9922 36.9998C31.2135 37.0231 32.992 35.1824 32.9998 33.0077C33.0231 30.7865 31.2368 29.0156 29.0078 29.0001C26.7788 28.9846 25.008 30.8175 25.0002 32.9922C24.9769 35.2135 26.8176 36.9843 28.9922 36.9998ZM30.895 31.4078C31.2911 31.4311 31.5785 31.7107 31.563 32.1068C31.5397 32.5029 31.2601 32.7903 30.864 32.7747C30.4679 32.7514 30.1805 32.4718 30.196 32.0757C30.2116 31.6796 30.4989 31.3923 30.895 31.4078ZM29.0155 33.5126C29.9864 33.5203 30.8562 34.0873 31.2989 35.0271C31.3766 35.2135 31.2756 35.4232 31.097 35.5008C30.9106 35.5785 30.7009 35.4775 30.5688 35.2834C30.2815 34.662 29.6757 34.2582 28.9922 34.2426C28.3088 34.2271 27.7185 34.631 27.4312 35.2601C27.3302 35.4698 27.0972 35.5397 26.9341 35.4542C26.7244 35.3533 26.639 35.1669 26.7399 34.9572C27.136 34.0795 28.0447 33.497 29.0155 33.5126ZM27.237 31.4078C27.6331 31.4311 27.9204 31.7107 27.9049 32.1068C27.8816 32.5029 27.602 32.7903 27.2059 32.7747C26.8642 32.767 26.5225 32.4718 26.538 32.0757C26.5458 31.734 26.8409 31.3923 27.237 31.4078Z" fill="#FF7500"/>
<defs>
<radialGradient id="paint0_radial_137_674" cx="0" cy="0" r="1" gradientUnits="userSpaceOnUse" gradientTransform="translate(28.5 28.5) rotate(90) scale(26.5)">
<stop offset="0.5" stop-color="#FF7500"/>
<stop offset="0.885" stop-color="#E06203"/>
<stop offset="1" stop-color="#AA4109"/>
</radialGradient>
</defs>
</svg>
