<svg width="57" height="57" viewBox="0 0 57 57" fill="none" xmlns="http://www.w3.org/2000/svg">
<circle cx="28.5012" cy="28.4999" r="28.5" fill="white"/>
<circle cx="28.5" cy="28.4999" r="26.5" fill="url(#paint0_radial_137_818)"/>
<path d="M43.5288 32.2536C43.066 32.0222 42.7574 31.5594 42.7574 30.9937V18.0342C42.7574 17.3913 42.2432 16.8771 41.6003 16.8771C41.5232 16.8771 41.446 16.8771 41.3689 16.9028V25.7482C41.3689 26.0053 41.1632 26.211 40.9061 26.211C40.6489 26.211 40.4432 26.0053 40.4432 25.7482V16.1571C40.4432 15.5143 39.929 15 39.2861 15C38.6433 15 38.129 15.5143 38.129 16.1571V16.9799C38.2319 17.0571 38.3604 17.1342 38.4376 17.2371C38.8233 17.6228 39.0547 18.1627 39.0547 18.7284V25.7225C39.0547 25.9796 38.849 26.1853 38.5919 26.1853C38.3347 26.1853 38.129 25.9796 38.129 25.7225V18.7284C38.129 18.0856 37.6148 17.5713 36.9719 17.5713C36.3291 17.5713 35.8148 18.0856 35.8148 18.7284V28.7566C35.8148 29.0138 35.6091 29.2195 35.352 29.2195C35.0949 29.2195 34.8891 29.0138 34.8891 28.7566V25.491C34.8891 24.8482 34.3749 24.3339 33.732 24.3339C33.0892 24.3339 32.575 24.8482 32.575 25.491V31.7908C32.575 33.4107 33.5006 34.825 34.8377 35.5192L46.5887 41.1247V33.6679L43.5288 32.2536Z" fill="white"/>
<path d="M23.9606 21.5568C25.0967 21.5568 26.0177 20.6358 26.0177 19.4998C26.0177 18.3637 25.0967 17.4427 23.9606 17.4427C22.8245 17.4427 21.9036 18.3637 21.9036 19.4998C21.9036 20.6358 22.8245 21.5568 23.9606 21.5568Z" fill="white"/>
<path d="M30.8264 28.2423L27.3551 26.6224L26.3522 23.9482C25.9665 23.0225 25.118 22.3025 24.0638 22.1225L23.2409 21.994C22.3667 21.8397 21.5181 22.0711 20.8753 22.5597L17.9183 24.6167C17.7126 24.7453 17.584 24.951 17.5326 25.2081V25.2338L16.7869 29.348C16.7098 29.8365 17.0183 30.2994 17.5069 30.3765C17.9954 30.4536 18.4583 30.1451 18.5354 29.6565L19.2297 25.9024C19.2297 25.9024 20.9525 24.7196 20.9782 24.7196L19.8211 31.2765L18.9982 36.0591L16.2212 39.9933C15.8355 40.559 15.9641 41.3561 16.5298 41.7675C17.0955 42.1789 17.8926 42.0246 18.304 41.4589L21.2353 37.2934C21.3639 37.1391 21.4153 36.9591 21.441 36.7791L22.1096 33.025L24.3466 36.2134L25.1437 40.919C25.2723 41.6132 25.9151 42.0761 26.6094 41.9475C27.3036 41.8189 27.7665 41.1761 27.6379 40.4818L26.7379 35.442C26.6865 35.2363 26.6094 35.082 26.5065 34.9278L23.9352 31.1993L24.938 25.3881L25.7351 27.548C25.8123 27.7795 25.9665 27.9594 26.2237 28.0623H26.2494L30.055 29.8365C30.5178 30.0422 31.0321 29.8622 31.2378 29.3994C31.4692 28.988 31.2635 28.448 30.8264 28.2423Z" fill="white"/>
<defs>
<radialGradient id="paint0_radial_137_818" cx="0" cy="0" r="1" gradientUnits="userSpaceOnUse" gradientTransform="translate(28.5 28.4999) rotate(90) scale(26.5)">
<stop offset="0.5" stop-color="#FF7500"/>
<stop offset="0.885" stop-color="#E06203"/>
<stop offset="1" stop-color="#AA4109"/>
</radialGradient>
</defs>
</svg>
