<svg width="57" height="57" viewBox="0 0 57 57" fill="none" xmlns="http://www.w3.org/2000/svg">
<circle cx="28.5" cy="28.5" r="28.5" fill="white"/>
<circle cx="28.5" cy="28.5" r="26.5" fill="url(#paint0_radial_122_595)"/>
<path d="M29.2881 13.932C30.722 13.9198 31.874 15.0718 31.8863 16.5057C31.8985 17.9396 30.7465 19.0916 29.3126 19.1039C27.8787 19.1162 26.7267 17.9641 26.7144 16.5302V16.518C26.7144 15.0963 27.8664 13.9443 29.2881 13.932ZM32.5481 19.778H26.1016C24.3368 19.7657 22.8907 21.1874 22.8784 22.9522C22.8784 22.9644 22.8784 22.9889 22.8784 23.0012V30.8815C22.8907 31.5188 23.3932 32.0213 24.0304 32.0336C24.6555 32.0458 25.1702 31.5311 25.1825 30.906C25.1825 30.8938 25.1825 30.8938 25.1825 30.8815V23.6507C25.1825 23.4792 25.3173 23.3443 25.4889 23.3443C25.6604 23.3443 25.7953 23.4792 25.7953 23.6507V43.1984C25.7953 44.1544 26.5061 44.9632 27.3885 44.9632C28.2709 44.9632 28.9817 44.1789 28.9817 43.1984V32.0703C28.9817 31.8988 29.1165 31.7639 29.2881 31.7639C29.4597 31.7639 29.5945 31.8988 29.5945 32.0703V43.2352C29.5945 44.1911 30.3053 45 31.1877 45C32.0701 45 32.7809 44.2156 32.7809 43.2352V23.6507C32.7809 23.4792 32.9158 23.3443 33.0873 23.3443C33.2589 23.3443 33.3937 23.4792 33.3937 23.6507V30.906C33.406 31.5433 33.9085 32.0458 34.5458 32.0581C35.1708 32.0703 35.6978 31.5679 35.71 30.9428C35.71 30.9306 35.71 30.9183 35.71 30.906V23.0012C35.7591 21.2731 34.4109 19.8392 32.6829 19.778C32.6339 19.778 32.5971 19.778 32.5481 19.778Z" fill="white"/>
<path d="M27.2979 15.6473C26.679 15.0531 26.4677 13.8654 26.4395 13.3458C27.1836 14.5351 28.291 14.4579 28.7517 14.2706L27.2979 15.6473Z" fill="white"/>
<path d="M31.3545 15.6473C31.9733 15.0531 32.1846 13.8654 32.2129 13.3458C31.4687 14.5351 30.3613 14.4579 29.9006 14.2706L31.3545 15.6473Z" fill="white"/>
<rect x="21.1594" y="31.1785" width="3.26214" height="0.893204" transform="rotate(-20.0484 21.1594 31.1785)" fill="white"/>
<path d="M21.9216 31.5631C20.7317 31.8756 18.5694 32.6786 19.0754 33.6066C19.6784 34.7124 22.3356 33.9912 22.0663 35.602C21.8733 36.7559 19.0971 38.4757 19.4272 40.2621C19.7573 42.0486 21.9216 43.1988 22.5728 43.6796" stroke="white" stroke-width="0.5" stroke-linecap="round"/>
<defs>
<radialGradient id="paint0_radial_122_595" cx="0" cy="0" r="1" gradientUnits="userSpaceOnUse" gradientTransform="translate(28.5 28.5) rotate(90) scale(26.5)">
<stop offset="0.5" stop-color="#FF7500"/>
<stop offset="0.885" stop-color="#E06203"/>
<stop offset="1" stop-color="#AA4109"/>
</radialGradient>
</defs>
</svg>
