<svg width="57" height="57" viewBox="0 0 57 57" fill="none" xmlns="http://www.w3.org/2000/svg">
<circle cx="28.5" cy="28.5" r="28.5" fill="white"/>
<circle cx="28.5" cy="28.5" r="26.5" fill="url(#paint0_radial_122_451)"/>
<path d="M35.9063 21.1594C35.5 19.8819 36.2188 18.512 37.5156 18.1118C38.8125 17.7116 40.2031 18.4196 40.6094 19.6972C41.0156 20.9747 40.2969 22.3446 39 22.7447C37.7031 23.1603 36.3281 22.4523 35.9063 21.1594ZM10.7344 22.7447C12.0312 23.1449 13.4219 22.4369 13.8281 21.1594C14.2344 19.8819 13.5156 18.512 12.2188 18.1118C10.9219 17.7116 9.53125 18.4196 9.125 19.6972C8.71875 20.9747 9.4375 22.3446 10.7344 22.7447ZM48.9062 25.1305C48.9688 25.3306 49 25.5461 49 25.7616L48.375 31.7644C48.25 32.9034 47.6406 33.6576 46.5156 33.9962L40.0156 36.0279C40.0156 36.0279 38.4844 40.7994 38.4688 40.7994C38.2656 41.4921 37.625 42 36.8438 42C35.9063 42 35.1406 41.2458 35.1406 40.3223C35.1406 40.0298 35.3594 39.5065 35.3594 39.5065C35.3906 39.3988 36.7188 35.7817 37.2656 34.2887L31.7344 36.0126C31.7344 36.0126 30.2031 40.784 30.1875 40.784C29.9844 41.4767 29.3438 41.9846 28.5625 41.9846C27.625 41.9846 26.8594 41.2304 26.8594 40.3069C26.8594 40.0144 27.0781 39.4911 27.0781 39.4911C27.1094 39.3526 29.2031 33.6422 29.2031 33.6422C29.3906 33.2882 29.7031 33.0419 30.1406 32.9034L34.8906 31.4258C34.8906 31.4258 35.0312 27.9318 35.0312 27.8702H31.5781L28.3594 28.8707C27.6719 29.0862 26.9219 28.7014 26.7031 28.0242C26.6875 27.978 26.6719 27.9164 26.6719 27.8702H23.0312C23.0156 27.9164 23.0156 27.978 23 28.0242C22.7812 28.7014 22.0469 29.0862 21.3438 28.8707L14.6719 26.7928L14.8125 31.4258L19.5625 32.9034C20 33.0419 20.3125 33.2882 20.5 33.6422C20.5 33.6422 22.5937 39.3526 22.625 39.4911C22.625 39.4911 22.8438 40.0144 22.8438 40.3069C22.8438 41.2304 22.0781 41.9846 21.1406 41.9846C20.375 41.9846 19.7344 41.4767 19.5156 40.784C19.5156 40.7686 17.9688 36.0126 17.9688 36.0126L11.4844 33.9962C10.3594 33.6422 9.73438 32.9034 9.625 31.7644L9 25.7616C9 25.5461 9.03125 25.3306 9.09375 25.1305C9.3125 24.4225 9.76563 23.9145 10.4375 23.5913C11.1094 23.2681 11.7969 23.2219 12.5156 23.4374L22.1406 26.4388C22.4844 26.5465 22.7344 26.7928 22.8906 27.1006H26.8594C27.0156 26.7928 27.2812 26.5465 27.6094 26.4388L37.2344 23.4066C37.9531 23.1911 38.6406 23.2373 39.3125 23.5605C39.9219 23.8684 40.3438 24.3301 40.5938 24.9458L45.5 23.422C46.2188 23.2065 46.9062 23.2527 47.5781 23.5759C48.2344 23.9145 48.6719 24.4225 48.9062 25.1305ZM43.3438 26.8082L40.5469 27.6855L36.9375 28.763L37.125 29.3479L40.5 28.3474L40.1406 31.749C40.1094 32.0107 40.0625 32.2415 39.9844 32.457L43.2344 31.4412L43.3438 26.8082ZM47.2656 22.7755C48.5625 22.3753 49.2812 21.0055 48.875 19.7279C48.4688 18.4504 47.0781 17.7424 45.7812 18.1426C44.4844 18.5428 43.7656 19.9126 44.1719 21.1902C44.5781 22.4677 45.9688 23.1757 47.2656 22.7755Z" fill="white"/>
<defs>
<radialGradient id="paint0_radial_122_451" cx="0" cy="0" r="1" gradientUnits="userSpaceOnUse" gradientTransform="translate(28.5 28.5) rotate(90) scale(26.5)">
<stop offset="0.5" stop-color="#FF7500"/>
<stop offset="0.885" stop-color="#E06203"/>
<stop offset="1" stop-color="#AA4109"/>
</radialGradient>
</defs>
</svg>
