<svg width="57" height="57" viewBox="0 0 57 57" fill="none" xmlns="http://www.w3.org/2000/svg">
<circle cx="28.5" cy="28.5" r="28.5" fill="white"/>
<circle cx="28.5" cy="28.5" r="26.5" fill="url(#paint0_radial_137_908)"/>
<path d="M28.6507 25.4424C31.2581 25.4424 33.3719 23.3287 33.3719 20.7212C33.3719 18.1138 31.2581 16 28.6507 16C26.0432 16 23.9294 18.1138 23.9294 20.7212C23.9294 23.3287 26.0432 25.4424 28.6507 25.4424Z" fill="white"/>
<path d="M21.1142 41V33.6933C21.1142 33.3336 21.339 33.1088 21.6987 33.1088C22.0585 33.1088 22.2833 33.3336 22.2833 33.6933V41H35.2554V33.6933C35.2554 33.3336 35.4802 33.1088 35.8399 33.1088C36.1996 33.1088 36.4245 33.3336 36.4245 33.6933V41H40.5612V32.5018C40.5612 29.2644 37.9083 26.6115 34.6709 26.6115H22.8903C19.6529 26.6115 17 29.2644 17 32.5018V41H21.1142Z" fill="white"/>
<path d="M29 29C26.7906 29 25 30.7906 25 33C25 35.2094 26.7906 37 29 37C31.2094 37 33 35.2094 33 33C33 30.7906 31.2094 29 29 29ZM26.6156 32.4719C26.6156 32.3563 26.6438 32.2469 26.6938 32.1531L26.2188 32.0469L26.3125 31.6188L28.3625 32.0688L28.2687 32.4969L27.9906 32.4344C27.9906 32.4469 27.9938 32.4594 27.9938 32.4719C27.9938 32.8531 27.6875 33.1594 27.3063 33.1594C26.9219 33.1594 26.6156 32.8531 26.6156 32.4719ZM29.5625 35.7156C28.6875 35.7156 28.0312 35.4156 27.6562 35.1875L27.3781 35.5375L27.0344 35.2656L27.6906 34.4406C27.6906 34.4406 28.5563 35.1531 29.8844 35.075L29.9469 35.6969C29.8156 35.7094 29.6844 35.7156 29.5625 35.7156ZM31.3844 32.4719C31.3844 32.8531 31.075 33.1594 30.6969 33.1594C30.3156 33.1594 30.0094 32.8531 30.0094 32.4719C30.0094 32.4594 30.0094 32.4469 30.0125 32.4344L29.7344 32.4969L29.6406 32.0688L31.6906 31.6188L31.7844 32.0469L31.3094 32.15C31.3563 32.2469 31.3844 32.3563 31.3844 32.4719Z" fill="#FF7500"/>
<defs>
<radialGradient id="paint0_radial_137_908" cx="0" cy="0" r="1" gradientUnits="userSpaceOnUse" gradientTransform="translate(28.5 28.5) rotate(90) scale(26.5)">
<stop offset="0.5" stop-color="#FF7500"/>
<stop offset="0.885" stop-color="#E06203"/>
<stop offset="1" stop-color="#AA4109"/>
</radialGradient>
</defs>
</svg>
