<svg width="57" height="57" viewBox="0 0 57 57" fill="none" xmlns="http://www.w3.org/2000/svg">
<circle cx="28.5002" cy="28.5" r="28.5" fill="white"/>
<circle cx="28.5" cy="28.5" r="26.5" fill="url(#paint0_radial_137_713)"/>
<path d="M29.0193 18.1748C30.4482 18.1748 31.6066 17.0164 31.6066 15.5874C31.6066 14.1584 30.4482 13 29.0193 13C27.5903 13 26.4319 14.1584 26.4319 15.5874C26.4319 17.0164 27.5903 18.1748 29.0193 18.1748Z" fill="white"/>
<path d="M38.0933 22.3048L33.0765 19.4138C32.627 19.0858 32.1047 18.8914 31.5702 18.8307L29.0193 18.8185L26.4683 18.8307C25.9339 18.8914 25.4237 19.0979 24.9621 19.4138L19.9452 22.3048C19.3986 22.6207 19.2164 23.3131 19.5322 23.8475L22.1196 28.3178C22.4354 28.8644 23.1278 29.0466 23.6623 28.7308C24.2089 28.4149 24.3911 27.7225 24.0753 27.1881L22.0467 23.6896L24.9742 22.0011C25.0228 21.9768 25.0835 21.9526 25.1443 21.9526C25.3265 21.9526 25.4723 22.0983 25.4723 22.2805V24.625V30.7594V42.3844C25.4723 42.4451 25.4723 42.4937 25.4844 42.5544C25.5087 42.7731 25.5694 42.9796 25.6666 43.1618C25.7152 43.259 25.7759 43.344 25.8367 43.4169C25.8974 43.5019 25.9703 43.5748 26.0553 43.6355C26.0918 43.672 26.1404 43.6963 26.1768 43.7327C26.2618 43.7934 26.359 43.842 26.4562 43.8785C26.6505 43.9635 26.857 44 27.0878 44C27.1486 44 27.1972 44 27.2579 43.9878C27.5252 43.9635 27.7802 43.8663 27.9989 43.7206C28.0475 43.6963 28.0839 43.6598 28.1204 43.6234C28.2054 43.5626 28.2783 43.4898 28.339 43.4047C28.3755 43.3683 28.3998 43.3197 28.4362 43.2833C28.582 43.0646 28.6791 42.8217 28.7034 42.5423C28.7034 42.4937 28.7156 42.4329 28.7156 42.3722V30.7472H29.3594V42.3722C29.3594 42.4329 29.3594 42.4815 29.3715 42.5423C29.3958 42.8095 29.493 43.0646 29.6388 43.2833C29.6631 43.3318 29.6995 43.3683 29.736 43.4047C29.7967 43.4898 29.8696 43.5626 29.9546 43.6234C29.9911 43.6598 30.0396 43.6841 30.0761 43.7206C30.2947 43.8663 30.5377 43.9635 30.8171 43.9878C30.8657 43.9878 30.9264 44 30.9871 44C31.2058 44 31.4244 43.9514 31.6188 43.8785C31.716 43.842 31.8132 43.7934 31.8982 43.7327C31.9468 43.7084 31.9832 43.672 32.0197 43.6355C32.1047 43.5748 32.1776 43.5019 32.2383 43.4169C32.2991 43.3319 32.3598 43.2468 32.4084 43.1618C32.5056 42.9796 32.5784 42.7731 32.5906 42.5544C32.5906 42.5058 32.6027 42.4451 32.6027 42.3844V30.7594V22.2805C32.6027 22.0983 32.7485 21.9526 32.9307 21.9526C32.9914 21.9526 33.0522 21.9768 33.1008 22.0011L36.0283 23.6896L34.0118 27.1881C33.696 27.7347 33.8904 28.4149 34.4248 28.7308C34.9715 29.0466 35.6517 28.8522 35.9675 28.3178L38.5549 23.8475C38.8222 23.3009 38.64 22.6085 38.0933 22.3048Z" fill="white"/>
<defs>
<radialGradient id="paint0_radial_137_713" cx="0" cy="0" r="1" gradientUnits="userSpaceOnUse" gradientTransform="translate(28.5 28.5) rotate(90) scale(26.5)">
<stop offset="0.5" stop-color="#FF7500"/>
<stop offset="0.885" stop-color="#E06203"/>
<stop offset="1" stop-color="#AA4109"/>
</radialGradient>
</defs>
</svg>
