<svg width="57" height="57" viewBox="0 0 57 57" fill="none" xmlns="http://www.w3.org/2000/svg">
<circle cx="28.5" cy="28.5" r="28.5" fill="white"/>
<circle cx="28.5" cy="28.5" r="26.5" fill="url(#paint0_radial_137_740)"/>
<path d="M28.6507 25.4424C31.2581 25.4424 33.3719 23.3287 33.3719 20.7212C33.3719 18.1138 31.2581 16 28.6507 16C26.0432 16 23.9294 18.1138 23.9294 20.7212C23.9294 23.3287 26.0432 25.4424 28.6507 25.4424Z" fill="white"/>
<path d="M21.1142 41V33.6933C21.1142 33.3336 21.339 33.1088 21.6987 33.1088C22.0585 33.1088 22.2833 33.3336 22.2833 33.6933V41H35.2554V33.6933C35.2554 33.3336 35.4802 33.1088 35.8399 33.1088C36.1996 33.1088 36.4245 33.3336 36.4245 33.6933V41H40.5612V32.5018C40.5612 29.2644 37.9083 26.6115 34.6709 26.6115H22.8903C19.6529 26.6115 17 29.2644 17 32.5018V41H21.1142Z" fill="white"/>
<path d="M29 29C26.7906 29 25 30.7906 25 33C25 35.2094 26.7906 37 29 37C31.2094 37 33 35.2094 33 33C33 30.7906 31.2094 29 29 29ZM26.7563 32.4219C26.7563 32.3344 26.7719 32.2531 26.8031 32.175L26.2938 31.9781L26.4312 31.6219L28.4594 32.4094L28.3219 32.7656L28.0844 32.675C27.9844 32.9312 27.7344 33.1094 27.4437 33.1094C27.0625 33.1094 26.7563 32.8 26.7563 32.4219ZM30.3625 35.4313C30.3625 35.4313 29.4281 34.9656 27.6063 35.3688C27.675 35.1156 27.5875 34.7812 27.5875 34.7812C28.7781 34.6844 29.2094 34.0062 30.1 34.025C30.5844 34.55 30.3625 35.4313 30.3625 35.4313ZM31.2438 32.4219C31.2438 32.8031 30.9375 33.1094 30.5563 33.1094C30.2656 33.1094 30.0187 32.9281 29.9156 32.675L29.6781 32.7656L29.5406 32.4094L31.5687 31.6219L31.7063 31.9781L31.1969 32.175C31.2281 32.25 31.2438 32.3344 31.2438 32.4219Z" fill="#FF7500"/>
<defs>
<radialGradient id="paint0_radial_137_740" cx="0" cy="0" r="1" gradientUnits="userSpaceOnUse" gradientTransform="translate(28.5 28.5) rotate(90) scale(26.5)">
<stop offset="0.5" stop-color="#FF7500"/>
<stop offset="0.885" stop-color="#E06203"/>
<stop offset="1" stop-color="#AA4109"/>
</radialGradient>
</defs>
</svg>
