<svg width="57" height="57" viewBox="0 0 57 57" fill="none" xmlns="http://www.w3.org/2000/svg">
<circle cx="28.5" cy="28.5" r="28.5" fill="white"/>
<circle cx="28.5" cy="28.5" r="26.5" fill="url(#paint0_radial_122_1203)"/>
<path d="M17.422 18.844C18.7596 18.844 19.844 17.7596 19.844 16.422C19.844 15.0844 18.7596 14 17.422 14C16.0844 14 15 15.0844 15 16.422C15 17.7596 16.0844 18.844 17.422 18.844Z" fill="white"/>
<path d="M16.9631 19.4814C16.9631 19.4814 16.7209 19.4559 16.6572 19.4559C15.9051 19.4559 15.2932 20.055 15.2932 20.8198C15.2932 20.8453 15.2932 29.8831 15.2932 29.8831C15.2932 30.4568 15.7776 30.9411 16.3512 30.9411C16.9249 30.9411 17.4093 30.4568 17.4093 29.8831V23.0761C17.4093 22.8976 17.524 22.7702 17.7152 22.7702C17.8937 22.7702 18.0211 22.8849 18.0211 23.0761V29.8704C18.0211 30.2655 17.8682 30.6225 17.6642 30.9284C17.3583 31.2853 16.9121 31.5275 16.364 31.5275C16.211 31.5275 16.058 31.502 15.9051 31.4638V41.4959C15.9051 42.3372 16.5679 43 17.4093 43C18.2506 43 18.9134 42.3372 18.9134 41.4959V30.3803C19.3086 30.0743 19.6018 29.6282 19.7293 29.1438C20.1244 27.4866 20.3284 25.7275 20.3284 23.9557C20.3539 23.8409 20.3284 23.535 20.3284 23.4968C20.3411 21.4699 18.8624 19.8128 16.9631 19.4814Z" fill="white"/>
<path d="M36.9253 18.844C38.2629 18.844 39.3473 17.7596 39.3473 16.422C39.3473 15.0844 38.2629 14 36.9253 14C35.5877 14 34.5033 15.0844 34.5033 16.422C34.5033 17.7596 35.5877 18.844 36.9253 18.844Z" fill="white"/>
<path d="M39.9336 19.4431H34.4396C33.6492 19.4431 32.8971 19.749 32.298 20.3226C32.2725 20.3481 29.7613 23.2417 29.7613 23.2417H25.3763C24.8026 23.2417 24.3182 23.7261 24.3182 24.2998C24.3182 24.8734 24.8026 25.3578 25.3763 25.3578H30.2075C30.4752 25.3578 30.7556 25.2431 30.9341 25.0518L33.0756 22.5279C33.1393 22.4642 33.1903 22.4387 33.2923 22.4387C33.4708 22.4387 33.5982 22.5534 33.5982 22.7446V41.4703C33.5982 42.3116 34.2611 42.9745 35.1024 42.9745C35.9437 42.9745 36.6066 42.3116 36.6066 41.4703V30.9283C36.6066 30.7499 36.7213 30.6224 36.9125 30.6224C37.091 30.6224 37.2185 30.7371 37.2185 30.9283V41.4958C37.2185 42.3371 37.8813 43 38.7226 43C39.564 43 40.2268 42.3371 40.2268 41.4958V23.076C40.2268 22.8976 40.3415 22.7701 40.5327 22.7701C40.7112 22.7701 40.8387 22.8848 40.8387 23.076V29.8703C40.8387 30.4439 41.3231 30.9283 41.8967 30.9283C42.4703 30.9283 42.9547 30.4439 42.9547 29.8703V22.4769C42.9547 20.807 41.6035 19.4431 39.9336 19.4431Z" fill="white"/>
<path d="M28.1246 17.1067C27.9503 17.1065 27.7778 17.1434 27.6171 17.2151C27.4565 17.2869 27.3109 17.392 27.1889 17.5244L26.9944 17.7332L26.7999 17.5244C26.6777 17.3922 26.5321 17.2873 26.3715 17.2156C26.2108 17.144 26.0384 17.1071 25.8642 17.1071C25.69 17.1071 25.5176 17.144 25.3569 17.2156C25.1963 17.2873 25.0506 17.3922 24.9285 17.5244C24.68 17.7936 24.5408 18.1559 24.5408 18.5332C24.5408 18.9106 24.68 19.2728 24.9285 19.542L26.9944 21.7685L29.0603 19.542C29.3088 19.2728 29.448 18.9106 29.448 18.5332C29.448 18.1559 29.3088 17.7936 29.0603 17.5244C28.9382 17.3922 28.7925 17.2871 28.6319 17.2154C28.4712 17.1437 28.2988 17.1067 28.1246 17.1067Z" fill="white"/>
<path d="M25.9459 17.3668C26.194 17.3577 26.4277 17.4226 26.6261 17.5415C26.4175 17.3479 26.1387 17.2294 25.8328 17.2294C25.1879 17.2294 24.6632 17.7559 24.6632 18.4032C24.6632 18.5993 24.7114 18.7843 24.7965 18.9469C24.7706 18.8541 24.7551 18.7569 24.7514 18.6563C24.7265 17.9692 25.2612 17.3919 25.9459 17.3668Z" fill="#FFAF6B"/>
<defs>
<radialGradient id="paint0_radial_122_1203" cx="0" cy="0" r="1" gradientUnits="userSpaceOnUse" gradientTransform="translate(28.5 28.5) rotate(90) scale(26.5)">
<stop offset="0.5" stop-color="#FF7500"/>
<stop offset="0.885" stop-color="#E06203"/>
<stop offset="1" stop-color="#AA4109"/>
</radialGradient>
</defs>
</svg>
