<svg width="57" height="57" viewBox="0 0 57 57" fill="none" xmlns="http://www.w3.org/2000/svg">
<circle cx="28.5" cy="28.5" r="28.5" fill="white"/>
<circle cx="28.5" cy="28.5" r="26.5" fill="url(#paint0_radial_120_196)"/>
<path d="M35.4399 24.4122V23.948L33.2606 20.7242C32.59 19.7958 31.8034 19.3702 30.7202 19.3702H27.1741C26.078 19.3702 25.3043 19.8344 24.6337 20.7242L22.4544 23.948V24.4122C18.0314 29.8669 16.0068 34.5478 16.0068 40.6215L16.7805 40.673C16.7805 40.6215 16.9869 39.6414 18.7019 39.7446C19.798 39.7962 20.417 40.2604 20.9844 40.673C21.5002 41.0341 21.9644 41.3952 22.6479 41.3952C23.0605 41.3952 23.5763 41.2404 24.2597 40.8278C24.7756 40.5183 25.2914 40.312 25.7685 40.1572H25.7943V42.5428C25.7943 43.3552 26.439 44 27.2514 44C28.0638 44 28.7086 43.3552 28.7086 42.5428V40.1572H29.3018V42.5428C29.3018 43.3552 29.9465 44 30.7589 44C31.5713 44 32.2161 43.3552 32.2161 42.5428V40.183C32.6545 40.2991 33.1316 40.4925 33.6216 40.8278C34.2406 41.2404 34.7693 41.3952 35.2335 41.3952C35.9041 41.3952 36.3812 41.0341 36.897 40.673C37.4644 40.2604 38.1479 39.7962 39.1795 39.7446C40.8945 39.6414 41.1008 40.6215 41.1008 40.673L41.8746 40.6215C41.8746 34.5478 39.8113 29.8669 35.4399 24.4122ZM29.3018 39.7059H28.7086V31.827C28.7086 31.6593 28.8246 31.5304 29.0052 31.5304C29.1728 31.5304 29.3018 31.6464 29.3018 31.827V39.7059ZM39.1408 39.2288C37.8899 39.2804 37.1678 39.8477 36.5488 40.2604C35.7751 40.8278 35.2464 41.2404 33.9053 40.4151C33.3379 40.0412 32.7706 39.8349 32.2419 39.7188V28.9642H32.6803V27.9971H32.2419V28.9513H30.2044C30.0239 29.4027 29.5855 29.725 29.0568 29.725C28.528 29.725 28.0896 29.4027 27.9091 28.9513H25.7814L25.7943 39.6801H25.6137C25.0464 39.7833 24.4145 40.0412 23.7955 40.4022C22.4931 41.2275 21.9773 40.8665 21.152 40.2475C20.533 39.7833 19.798 39.2675 18.5601 39.2159C17.58 39.1643 16.9482 39.4222 16.5871 39.7317C16.9482 34.3673 18.6632 30.2408 22.4673 25.4052V30.4859C22.4673 31.1048 22.9831 31.6335 23.615 31.6335C24.2469 31.6335 24.7627 31.1177 24.7627 30.4859V24.8636L25.7943 23.3548L25.8072 27.9842H27.9349C28.1283 27.5586 28.5538 27.275 29.0439 27.275C29.5339 27.275 29.9594 27.5715 30.1528 27.9842H32.229V23.3419L33.2606 24.8507V30.473C33.2606 31.0919 33.7764 31.6206 34.4083 31.6206C35.0272 31.6206 35.5559 31.1048 35.5559 30.473V25.3923C39.36 30.228 41.0751 34.406 41.2298 39.7188C40.7527 39.448 40.1208 39.1772 39.1408 39.2288Z" fill="white"/>
<path d="M25.3427 27.9971V28.9642H25.7811V28.9513V27.9971H25.3427Z" fill="white"/>
<path d="M28.9792 18.3386C30.4535 18.3386 31.6485 17.1435 31.6485 15.6693C31.6485 14.1951 30.4535 13 28.9792 13C27.505 13 26.3099 14.1951 26.3099 15.6693C26.3099 17.1435 27.505 18.3386 28.9792 18.3386Z" fill="white"/>
<defs>
<radialGradient id="paint0_radial_120_196" cx="0" cy="0" r="1" gradientUnits="userSpaceOnUse" gradientTransform="translate(28.5 28.5) rotate(90) scale(26.5)">
<stop offset="0.5" stop-color="#FF7500"/>
<stop offset="0.885" stop-color="#E06203"/>
<stop offset="1" stop-color="#AA4109"/>
</radialGradient>
</defs>
</svg>
