<svg width="57" height="57" viewBox="0 0 57 57" fill="none" xmlns="http://www.w3.org/2000/svg">
<circle cx="28.5" cy="28.5" r="28.5" fill="white"/>
<circle cx="28.5" cy="28.5" r="26.5" fill="url(#paint0_radial_122_1252)"/>
<path d="M23.6264 22.2036C25.774 22.2036 27.5101 23.9383 27.5101 26.0842C27.5101 28.2302 25.774 29.9827 23.6264 29.9827C21.4787 29.9827 19.7427 28.248 19.7427 26.1021C19.7427 23.9563 21.4787 22.2036 23.6264 22.2036ZM34.651 38.5665H29.783L32.0559 34.6501C32.5212 33.8275 32.2348 32.7903 31.4294 32.3253C30.6241 31.8603 29.5861 32.1465 29.1207 32.9512L26.8478 36.8677L23.4653 31.0736C23.1432 30.4655 22.4989 30.1616 21.6935 30.1616C21.5861 30.1616 21.3535 30.1973 21.2281 30.2331C21.1208 30.251 20.9596 30.3047 20.8344 30.3404C17.5772 31.4133 15 36.6173 15 42C15.0895 42 22.821 42 24.7897 42C24.7181 41.8928 24.6465 41.8033 24.5749 41.6961L20.6554 34.9363C20.5302 34.7038 20.6196 34.3998 20.8344 34.2746C21.0671 34.1494 21.3713 34.2388 21.4966 34.4534L25.3803 41.1595C25.6667 41.6602 26.2036 42 26.8299 42H34.6509C35.5994 42 36.3511 41.2311 36.3511 40.3012C36.3691 39.3176 35.5816 38.5665 34.651 38.5665Z" fill="white"/>
<path d="M27.4873 22.5594C27.4873 22.0823 27.8744 21.6955 28.3519 21.6955C28.8293 21.6955 29.2164 22.0822 29.2165 22.5594C29.2165 23.0365 28.8294 23.4233 28.3519 23.4233C27.8744 23.4233 27.4873 23.0365 27.4873 22.5594Z" fill="white"/>
<path d="M40.7692 18.6348C41.4306 19.0114 41.9059 19.6909 41.9875 20.5054C42.1212 21.8412 41.1459 23.0327 39.809 23.1665C38.9787 23.2495 38.2044 22.905 37.7046 22.312C37.341 22.9288 36.6985 23.3705 35.931 23.4472C34.9783 23.5425 34.1028 23.0491 33.6653 22.263C33.3029 22.6108 32.826 22.8448 32.2871 22.8987C31.0088 23.0266 29.8686 22.0947 29.7407 20.8173C29.6128 19.5399 30.5453 18.4007 31.8238 18.2728C32.0426 18.251 32.257 18.2607 32.4633 18.2974C32.4592 18.2683 32.4552 18.2393 32.4523 18.2099C32.3244 16.9326 33.2569 15.7933 34.5354 15.6655C35.1515 15.6039 35.7351 15.7888 36.1891 16.1395C36.6108 15.525 37.2903 15.0933 38.0904 15.0132C39.5312 14.8691 40.8161 15.9194 40.9604 17.3591C41.0054 17.8097 40.9335 18.2449 40.7692 18.6348Z" fill="white"/>
<defs>
<radialGradient id="paint0_radial_122_1252" cx="0" cy="0" r="1" gradientUnits="userSpaceOnUse" gradientTransform="translate(28.5 28.5) rotate(90) scale(26.5)">
<stop offset="0.5" stop-color="#FF7500"/>
<stop offset="0.885" stop-color="#E06203"/>
<stop offset="1" stop-color="#AA4109"/>
</radialGradient>
</defs>
</svg>
