<svg width="57" height="57" viewBox="0 0 57 57" fill="none" xmlns="http://www.w3.org/2000/svg">
<circle cx="28.5" cy="28.5" r="28.5" fill="white"/>
<circle cx="28.5" cy="28.5" r="26.5" fill="url(#paint0_radial_122_1270)"/>
<path d="M34.5499 15.4907C34.5499 16.8671 33.4434 17.9814 32.0765 17.9814C30.7096 17.9814 29.603 16.8671 29.603 15.4907C29.603 14.1143 30.7096 13 32.0765 13C33.4434 13 34.5499 14.1143 34.5499 15.4907ZM18.8849 24.9728C17.7349 24.9728 16.802 25.9123 16.802 27.0702C16.802 28.2282 17.7349 29.1676 18.8849 29.1676C20.0348 29.1676 20.9677 28.2282 20.9677 27.0702C20.9677 25.9123 20.0348 24.9728 18.8849 24.9728ZM38.976 27.4526L36.1012 25.0056C36.1012 25.0056 34.1377 21.4115 33.4651 20.1225C33.0637 19.3469 32.3585 18.7242 31.4256 18.615C30.4818 18.5057 29.7332 18.899 29.0715 19.5981C28.0192 20.7233 24.8515 24.1644 24.8515 24.1644C24.6887 24.3392 24.5803 24.5577 24.5477 24.7871L23.8426 29.4844L21.8899 30.6205L19.0259 29.7357C17.6373 29.3533 16.585 30.26 16.5091 31.2541L15.9233 39.5455L14.5455 42.5169C14.3069 43.0303 14.5238 43.642 15.0337 43.8933C15.5544 44.1446 16.1836 43.9261 16.4223 43.4017L17.8868 40.2556C17.9411 40.1354 17.9736 40.0152 17.9844 39.8842L18.1472 37.5246L20.2301 43.3143C20.4253 43.8605 21.0328 44.1446 21.5753 43.9261C22.1068 43.7185 22.3672 43.1286 22.1719 42.5933L19.7853 35.9843L19.8395 35.1431L21.0654 36.6725C21.3691 37.0439 21.9116 37.0985 22.2804 36.8036C22.6492 36.4977 22.7035 35.9515 22.4106 35.5801L20.0239 32.6087L20.0782 31.8768C20.0782 31.8768 21.3691 32.2701 21.7488 32.3902C21.9549 32.4558 22.3021 32.3902 22.4323 32.3138L25.5892 30.4785C25.8278 30.3147 26.0556 30.1617 26.1533 29.6374L26.7716 25.4862L28.3229 23.8476L27.7805 28.8727C27.7588 29.0365 27.1188 35.4162 27.1188 35.4162L24.3416 41.7085C23.9836 42.5278 24.3416 43.4782 25.1552 43.8496C25.9688 44.2101 26.9127 43.8496 27.2815 43.0303L30.1563 36.5086C30.2214 36.3557 30.2648 36.1918 30.2865 36.028L30.6445 32.707L33.682 42.8446C33.9424 43.6967 34.832 44.1882 35.689 43.9261C36.5351 43.6639 37.0233 42.7681 36.763 41.9051L32.8576 28.8836L33.3132 24.6778L34.1919 26.3055C34.257 26.4366 34.3546 26.5459 34.4631 26.6333L37.5007 29.2113C37.9888 29.6264 38.7157 29.5609 39.1171 29.0693C39.5184 28.5996 39.4642 27.8677 38.976 27.4526Z" fill="white"/>
<path d="M15.3809 30.8282L15.9667 30.8719L15.5544 36.1155L14.9686 36.0718C14.3937 36.0281 13.9597 35.5146 14.0031 34.9357L14.2526 31.8004C14.296 31.2215 14.8059 30.7845 15.3809 30.8282Z" fill="white"/>
<path d="M35.6353 30.9219L36.1196 32.5365L43.0623 30.4375L42.578 28.8229L35.6353 30.9219Z" fill="white"/>
<path d="M37.2501 36.25L36.6043 34.3125L36.2814 33.3437L37.4116 33.0208L37.573 33.5052L38.7032 33.1823L38.5418 32.6979L41.1251 31.8906L41.2866 32.375L42.4168 32.052L42.2553 31.5677L43.3855 31.2448L44.1928 34.151L37.2501 36.25Z" fill="white"/>
<defs>
<radialGradient id="paint0_radial_122_1270" cx="0" cy="0" r="1" gradientUnits="userSpaceOnUse" gradientTransform="translate(28.5 28.5) rotate(90) scale(26.5)">
<stop offset="0.5" stop-color="#FF7500"/>
<stop offset="0.885" stop-color="#E06203"/>
<stop offset="1" stop-color="#AA4109"/>
</radialGradient>
</defs>
</svg>
