<svg width="57" height="57" viewBox="0 0 57 57" fill="none" xmlns="http://www.w3.org/2000/svg">
<circle cx="28.5" cy="28.5" r="28.5" fill="white"/>
<circle cx="28.5" cy="28.5" r="26.5" fill="url(#paint0_radial_122_1356)"/>
<path d="M24.9933 20.0922C26.6756 20.0922 28.0394 18.7284 28.0394 17.0461C28.0394 15.3638 26.6756 14 24.9933 14C23.3109 14 21.9471 15.3638 21.9471 17.0461C21.9471 18.7284 23.3109 20.0922 24.9933 20.0922Z" fill="white"/>
<path d="M27.123 30.5927H21.9967V26.7789L19.3468 22.2469C19.2477 22.0735 19.322 21.8259 19.4706 21.7268C19.644 21.6277 19.8916 21.702 19.9907 21.8506L23.0368 27.1008C23.2597 27.4971 23.6807 27.7695 24.176 27.7695H29.4262C30.1692 27.7695 30.7635 27.1504 30.7635 26.4322C30.7635 25.6892 30.1444 25.0949 29.4262 25.0949L25.0428 25.1444L21.5509 19.2503C21.3032 18.7798 20.7832 18.5321 20.164 18.5321C20.0897 18.5321 19.8916 18.5569 19.7926 18.5816C19.7183 18.6064 19.5944 18.6312 19.5201 18.6559C16.9446 19.4979 14.9138 23.5594 14.9138 27.7447C14.8891 29.0078 14.9138 30.0727 14.9881 31.088C14.8891 32.3015 15.6073 33.4903 16.796 33.936C17.1179 34.0351 17.4151 34.1094 17.7371 34.1094H25.3895V41.2665C25.3895 42.2571 26.1572 43.0001 27.123 43.0001C28.1137 43.0001 28.8566 42.2324 28.8566 41.2665V32.3511C28.8566 31.9053 28.6833 31.4348 28.3365 31.1376C27.9898 30.7909 27.5441 30.5927 27.123 30.5927Z" fill="white"/>
<path d="M41.1402 28.4133H24.077V29.8002H41.1402V28.4133Z" fill="white"/>
<path d="M31.2094 27.6952H34.5031H37.5245C37.8959 27.6952 38.2427 27.5218 38.4903 27.2246C38.738 26.9274 38.8123 26.556 38.738 26.1845L37.4006 20.7857C37.3263 20.3894 36.9549 20.0923 36.5339 20.0923H35.5928L36.2367 17.0214C36.3853 16.328 35.9395 15.6345 35.2213 15.4612H35.1965L33.3392 24.2528H33.3639C34.0573 24.4014 34.7508 23.9556 34.8994 23.2374L35.469 20.6371H36.5091C36.6577 20.6371 36.8063 20.7362 36.831 20.9095L38.1684 26.3083C38.1931 26.5064 38.1436 26.7293 38.0198 26.9027C37.8959 27.076 37.6978 27.1751 37.4749 27.1751H34.3545C34.1316 26.5312 33.5373 26.0854 32.8191 26.0854C31.9523 26.0359 31.2094 26.7541 31.2094 27.6952Z" fill="white"/>
<defs>
<radialGradient id="paint0_radial_122_1356" cx="0" cy="0" r="1" gradientUnits="userSpaceOnUse" gradientTransform="translate(28.5 28.5) rotate(90) scale(26.5)">
<stop offset="0.5" stop-color="#FF7500"/>
<stop offset="0.885" stop-color="#E06203"/>
<stop offset="1" stop-color="#AA4109"/>
</radialGradient>
</defs>
</svg>
