<svg width="57" height="57" viewBox="0 0 57 57" fill="none" xmlns="http://www.w3.org/2000/svg">
<circle cx="28.5" cy="28.5" r="28.5" fill="white"/>
<circle cx="28.5" cy="28.5" r="26.5" fill="url(#paint0_radial_122_1408)"/>
<path d="M26.2071 22.3889C27.8265 22.3889 29.1547 21.0607 29.1547 19.4411C29.1547 17.81 27.8265 16.4934 26.2071 16.4934C24.5876 16.4934 23.2827 17.8333 23.2827 19.4411C23.2827 21.049 24.5876 22.3889 26.2071 22.3889ZM27.6052 18.2644C27.8848 18.2644 28.1178 18.4857 28.1178 18.777C28.1178 19.0683 27.8731 19.2897 27.6052 19.2897C27.3255 19.2897 27.0925 19.0683 27.0925 18.777C27.0925 18.4741 27.3022 18.2644 27.6052 18.2644ZM27.3605 20.3033C27.4187 20.1519 27.6052 20.0936 27.7333 20.1519C27.8848 20.2101 27.943 20.3966 27.8848 20.5247C27.5935 21.1772 26.9294 21.6083 26.2304 21.6083C25.5197 21.6083 24.8672 21.1888 24.576 20.5247C24.5177 20.3732 24.576 20.2218 24.7274 20.1519C24.8789 20.0936 25.0303 20.1519 25.1002 20.3033C25.31 20.7461 25.7527 21.0374 26.242 21.0374C26.708 21.0374 27.1624 20.7461 27.3605 20.3033ZM24.9138 18.2644C25.1934 18.2644 25.4265 18.4857 25.4265 18.777C25.4265 19.0567 25.2051 19.2897 24.9138 19.2897C24.6342 19.2897 24.4012 19.0683 24.4012 18.777C24.4012 18.509 24.6342 18.2644 24.9138 18.2644Z" fill="white"/>
<path d="M17.4234 14C18.7632 14 19.8467 15.0836 19.8467 16.4235C19.8467 17.7634 18.7632 18.8469 17.4234 18.8469C16.0835 18.8469 15 17.7634 15 16.4235C15 15.0836 16.0835 14 17.4234 14ZM16.969 19.4877C16.969 19.4877 16.7243 19.4644 16.6661 19.4644C15.9088 19.4644 15.3029 20.0587 15.3029 20.8276C15.3029 20.8509 15.3029 29.8923 15.3029 29.8923C15.3029 30.4632 15.7923 30.9526 16.3631 30.9526C16.934 30.9526 17.4234 30.4632 17.4234 29.8923V23.0763C17.4234 22.9016 17.5399 22.7734 17.7263 22.7734C17.901 22.7734 18.0292 22.8899 18.0292 23.0763V29.869C18.0292 30.2652 17.8777 30.6264 17.668 30.9293C17.3651 31.2905 16.9107 31.5235 16.3631 31.5235C16.2117 31.5235 16.0602 31.5002 15.9088 31.4652V41.497C15.9088 42.3359 16.5729 43 17.4117 43C18.2506 43 18.9147 42.3359 18.9147 41.497V30.3817C19.3108 30.0787 19.6021 29.6243 19.7302 29.1466C20.1263 27.4922 20.3244 25.7328 20.3244 23.9618C20.3477 23.8453 20.3244 23.5424 20.3244 23.5074C20.3361 21.4685 18.8681 19.814 16.969 19.4877Z" fill="white"/>
<path d="M35.7418 14C37.0816 14 38.1651 15.0836 38.1651 16.4235C38.1651 17.7634 37.0816 18.8469 35.7418 18.8469C34.4019 18.8469 33.3184 17.7634 33.3184 16.4235C33.3184 15.0836 34.4019 14 35.7418 14ZM38.7477 19.4411H33.2601C32.4679 19.4411 31.7222 19.7441 31.1164 20.315C31.0931 20.3383 28.5765 23.2395 28.5765 23.2395H24.1958C23.625 23.2395 23.1356 23.7288 23.1356 24.2997C23.1356 24.8706 23.625 25.36 24.1958 25.36H29.0309C29.2989 25.36 29.5785 25.2435 29.7533 25.0571L31.897 22.5287C31.9553 22.4705 32.0135 22.4355 32.1184 22.4355C32.2931 22.4355 32.4213 22.552 32.4213 22.7385V41.462C32.4213 42.3009 33.0854 42.965 33.9242 42.965C34.7631 42.965 35.4272 42.3009 35.4272 41.462V30.9176C35.4272 30.7429 35.5437 30.6147 35.7301 30.6147C35.9049 30.6147 36.033 30.7312 36.033 30.9176V41.4853C36.033 42.3242 36.6971 42.9883 37.536 42.9883C38.3748 42.9883 39.0389 42.3242 39.0389 41.4853V23.0763C39.0389 22.9016 39.1554 22.7734 39.3419 22.7734C39.5166 22.7734 39.6448 22.8899 39.6448 23.0763V29.869C39.6448 30.4399 40.1341 30.9293 40.705 30.9293C41.2759 30.9293 41.7652 30.4399 41.7652 29.869V22.4821C41.7652 20.816 40.4137 19.4411 38.7477 19.4411Z" fill="white"/>
<defs>
<radialGradient id="paint0_radial_122_1408" cx="0" cy="0" r="1" gradientUnits="userSpaceOnUse" gradientTransform="translate(28.5 28.5) rotate(90) scale(26.5)">
<stop offset="0.5" stop-color="#FF7500"/>
<stop offset="0.885" stop-color="#E06203"/>
<stop offset="1" stop-color="#AA4109"/>
</radialGradient>
</defs>
</svg>
