<svg width="57" height="57" viewBox="0 0 57 57" fill="none" xmlns="http://www.w3.org/2000/svg">
<circle cx="28.5" cy="28.5" r="28.5" fill="white"/>
<circle cx="28.5" cy="28.5" r="26.5" fill="url(#paint0_radial_122_1379)"/>
<path d="M31.3821 15.9036C29.9894 15.9036 28.8592 17.0432 28.8592 18.4475C28.8592 19.8518 29.9894 20.9914 31.3821 20.9914C32.7748 20.9914 33.9049 19.8518 33.9049 18.4475C33.9049 17.0432 32.7748 15.9036 31.3821 15.9036ZM41.0853 20.2432L33.1857 25.1123L32.1697 37.4748C32.1127 38.2921 31.4277 38.9252 30.6172 38.9252C30.583 38.9252 30.5487 38.9252 30.5145 38.9252L25.6058 38.6144C25.2976 38.5914 25.0122 38.4878 24.7724 38.3036L27.4551 35.5871L29.1789 35.6907L29.3501 33.2274H28.5053L24.1218 37.6705C23.8135 37.9698 23.4254 38.1309 23.0259 38.1309C22.6377 38.1309 22.2496 37.9813 21.9414 37.6935L18.4711 34.3094C17.8546 33.7108 17.8432 32.7209 18.4368 32.0993C19.0304 31.4777 20.0122 31.4662 20.6286 32.0648L23.0144 34.3669L25.9482 31.3971L26.7131 23.3396L21.4049 16.1569C20.9596 15.5583 21.0852 14.7065 21.6788 14.2691C22.2724 13.8202 23.1172 13.9468 23.551 14.5454L28.4254 21.1295L32.6378 22.2806L39.6812 17.941C40.309 17.5497 41.1424 17.7569 41.5305 18.39C41.9186 19.0231 41.7131 19.8518 41.0853 20.2432ZM25.8798 39.823H26.7816V42.0906H25.8798V39.823ZM24.0875 39.823H24.9893V43H24.0875V39.823ZM22.2839 39.823H23.1857V42.0906H22.2839V39.823Z" fill="white"/>
<defs>
<radialGradient id="paint0_radial_122_1379" cx="0" cy="0" r="1" gradientUnits="userSpaceOnUse" gradientTransform="translate(28.5 28.5) rotate(90) scale(26.5)">
<stop offset="0.5" stop-color="#FF7500"/>
<stop offset="0.885" stop-color="#E06203"/>
<stop offset="1" stop-color="#AA4109"/>
</radialGradient>
</defs>
</svg>
