<svg width="57" height="57" viewBox="0 0 57 57" fill="none" xmlns="http://www.w3.org/2000/svg">
<circle cx="28.5" cy="28.5" r="28.5" fill="white"/>
<circle cx="28.5" cy="28.5" r="26.5" fill="url(#paint0_radial_122_1338)"/>
<path d="M31.8223 18.8133C33.1514 18.8133 34.2289 17.7358 34.2289 16.4066C34.2289 15.0775 33.1514 14 31.8223 14C30.4931 14 29.4156 15.0775 29.4156 16.4066C29.4156 17.7358 30.4931 18.8133 31.8223 18.8133Z" fill="white"/>
<path d="M34.8307 19.4149H29.3436C28.5494 19.4149 27.8033 19.7278 27.2017 20.2813C27.1776 20.3054 24.6747 22.8083 24.6747 22.8083H20.2705C19.6929 22.8083 19.2116 23.2896 19.2116 23.8672C19.2116 24.4448 19.6929 24.9261 20.2705 24.9261H20.3909V26.2016L16.9012 24.9502L16.6365 25.7203L16.7087 25.7444L15.1925 30.7502H15.1685H15C15 31.9535 15.9627 32.9162 17.166 32.9162C18.3693 32.9162 19.3319 31.9535 19.3319 30.7502H19.1153H19.0913L17.6714 26.0813L23.9046 28.3195L22.4124 33.2531H22.3884H22.1718C22.1718 34.4564 23.1344 35.4191 24.3378 35.4191C25.5411 35.4191 26.5037 34.4564 26.5037 33.2531H26.3353H26.3112L24.8431 28.3917L25.0116 27.9103L21.1129 26.5145V24.9742H25.1079C25.3726 24.9742 25.6614 24.8539 25.8299 24.6614L27.9718 22.5195C28.044 22.4473 28.0921 22.4232 28.1884 22.4232C28.3809 22.4232 28.5012 22.5435 28.5012 22.7361V41.4597C28.5012 42.302 29.1751 42.9759 30.0174 42.9759C30.8597 42.9759 31.5336 42.302 31.5336 41.4597V30.8946C31.5336 30.702 31.6539 30.5817 31.8465 30.5817C32.039 30.5817 32.1593 30.702 32.1593 30.8946V41.4838C32.1593 42.3261 32.8332 43 33.6755 43C34.5178 43 35.1917 42.3261 35.1917 41.4838V23.0489C35.1917 22.8564 35.312 22.7361 35.5046 22.7361C35.6971 22.7361 35.8174 22.8564 35.8174 23.0489V29.8357C35.8174 30.4132 36.2987 30.8946 36.8763 30.8946C37.4539 30.8946 37.9353 30.4132 37.9353 29.8357V22.4473C37.8631 20.7867 36.5153 19.4149 34.8307 19.4149ZM15.722 30.7502L17.1419 25.961L18.5859 30.7502H15.722ZM22.9178 33.2531L24.3618 28.4879H24.3859L25.7817 33.2531H22.9178Z" fill="white"/>
<defs>
<radialGradient id="paint0_radial_122_1338" cx="0" cy="0" r="1" gradientUnits="userSpaceOnUse" gradientTransform="translate(28.5 28.5) rotate(90) scale(26.5)">
<stop offset="0.5" stop-color="#FF7500"/>
<stop offset="0.885" stop-color="#E06203"/>
<stop offset="1" stop-color="#AA4109"/>
</radialGradient>
</defs>
</svg>
