<svg width="57" height="57" viewBox="0 0 57 57" fill="none" xmlns="http://www.w3.org/2000/svg">
<circle cx="28.5" cy="28.5" r="28.5" fill="white"/>
<circle cx="28.5" cy="28.5" r="26.5" fill="url(#paint0_radial_122_1232)"/>
<path d="M28.2476 20.9047C29.8782 20.9047 31.2 19.5829 31.2 17.9523C31.2 16.3218 29.8782 15 28.2476 15C26.6171 15 25.2953 16.3218 25.2953 17.9523C25.2953 19.5829 26.6171 20.9047 28.2476 20.9047Z" fill="white"/>
<path d="M37.8373 33.8017H32.31V25.5996C32.31 25.3998 32.4765 25.2333 32.6763 25.2333C32.7429 25.2333 32.8095 25.2555 32.865 25.2888L36.2057 27.2089L33.8972 31.2045C33.542 31.8261 33.7529 32.6141 34.3744 32.9693C34.996 33.3245 35.784 33.1136 36.1392 32.492L39.0915 27.3865C39.4467 26.7649 39.2358 25.9769 38.6142 25.6217L32.8871 22.3142C32.3655 21.948 31.7772 21.7149 31.1668 21.6483L28.2478 21.6372L25.3287 21.6483C24.7183 21.7149 24.13 21.948 23.6084 22.3142L17.8813 25.6217C17.2598 25.9769 17.0489 26.7649 17.404 27.3865L20.3564 32.492C20.7115 33.1136 21.4996 33.3245 22.1211 32.9693C22.7427 32.6141 22.9535 31.8261 22.5984 31.2045L20.2898 27.2089L23.6306 25.2888C23.6861 25.2555 23.7527 25.2333 23.8193 25.2333C24.019 25.2333 24.1855 25.3998 24.1855 25.5996V28.2744V33.8017H18.6582C17.6371 33.8017 16.8158 34.623 16.8158 35.6441C16.8158 36.1547 17.0156 36.6098 17.3485 36.9427L22.8648 42.4589C23.5862 43.1804 24.7516 43.1804 25.473 42.4589C26.1945 41.7375 26.1945 40.5721 25.473 39.8507L23.1089 37.4866H28.2367H33.3644L31.0003 39.8507C30.2789 40.5721 30.2789 41.7375 31.0003 42.4589C31.7218 43.1804 32.8871 43.1804 33.6086 42.4589L39.1248 36.9427C39.4578 36.6098 39.6575 36.1547 39.6575 35.6441C39.6797 34.6341 38.8584 33.8017 37.8373 33.8017Z" fill="white"/>
<defs>
<radialGradient id="paint0_radial_122_1232" cx="0" cy="0" r="1" gradientUnits="userSpaceOnUse" gradientTransform="translate(28.5 28.5) rotate(90) scale(26.5)">
<stop offset="0.5" stop-color="#FF7500"/>
<stop offset="0.885" stop-color="#E06203"/>
<stop offset="1" stop-color="#AA4109"/>
</radialGradient>
</defs>
</svg>
