<svg width="57" height="57" viewBox="0 0 57 57" fill="none" xmlns="http://www.w3.org/2000/svg">
<circle cx="28.5" cy="28.5" r="28.5" fill="white"/>
<circle cx="28.5" cy="28.5" r="26.5" fill="url(#paint0_radial_122_1316)"/>
<path d="M40.2651 16.4223C40.2651 17.758 39.2091 18.8447 37.9111 18.8447C36.6132 18.8447 35.5572 17.758 35.5572 16.4223C35.5572 15.0867 36.6132 14 37.9111 14C39.2091 14 40.2651 15.0867 40.2651 16.4223ZM35.0952 23.5082C35.0952 23.5535 35.0732 23.8478 35.0952 23.961C35.0952 25.7268 35.2932 27.4926 35.6672 29.1452C35.7992 29.6206 36.0852 30.0734 36.4592 30.3903V41.5059C36.4592 42.3435 37.0972 43 37.9111 43C38.7251 43 39.3631 42.3435 39.3631 41.5059V31.477C39.2091 31.5222 39.0771 31.5449 38.9231 31.5449C38.3951 31.5449 37.9551 31.3185 37.6472 30.9563C37.4492 30.662 37.2952 30.2998 37.2952 29.8923V23.1007C37.2952 22.9196 37.4272 22.8064 37.5812 22.8064C37.7572 22.8064 37.8671 22.9422 37.8671 23.1007V29.9149C37.8671 30.4809 38.3511 30.9789 38.9011 30.9789C39.4511 30.9789 39.9351 30.4809 39.9351 29.9149C39.9351 29.9149 39.9351 20.8821 39.9351 20.8595C39.9351 20.0898 39.3411 19.5012 38.6151 19.5012C38.5491 19.5012 38.3291 19.5238 38.3291 19.5238C36.5032 19.8181 35.0732 21.4707 35.0952 23.5082Z" fill="white"/>
<path d="M26.1635 19.6371C24.8215 19.6371 23.7435 20.7464 23.7655 22.1273C23.7655 23.4856 24.8435 24.5949 26.1635 24.5949C27.4834 24.5949 28.5614 23.4856 28.5614 22.1273C28.5614 20.7464 27.4834 19.6371 26.1635 19.6371Z" fill="white"/>
<path d="M26.9994 29.3943L30.4533 29.349C31.0253 29.349 31.5093 29.8244 31.5313 30.481C31.5313 31.0696 31.0693 31.5676 30.4753 31.5676H26.2955C25.8995 31.5676 25.5695 31.3412 25.3935 31.0243L22.9956 26.7456C22.9076 26.6324 22.7096 26.5871 22.5776 26.655C22.4676 26.7456 22.4236 26.9493 22.4896 27.0852L24.5795 30.7753V41.2116C24.5795 41.5512 24.4255 41.9134 24.1395 42.2304C23.9195 42.5247 23.5455 42.6605 23.1936 42.6605H17.3857C16.6157 42.6605 15.9998 42.0493 15.9998 41.2343C15.9998 40.4419 16.5937 39.808 17.3857 39.808H21.8076V36.5481H21.8516C21.5876 36.5481 21.3676 36.4802 21.1036 36.4123C20.1576 36.0274 19.6077 35.0539 19.6737 34.0805C19.6077 33.2429 19.5857 32.5863 19.6077 31.545C19.6077 28.1265 20.5976 24.844 22.6216 24.1422C22.6876 24.1195 22.7756 24.0969 22.8416 24.0742C22.9296 24.0516 23.0836 24.029 23.1496 24.029C23.6335 24.029 24.0515 24.2101 24.2495 24.5949L26.9994 29.3943Z" fill="white"/>
<defs>
<radialGradient id="paint0_radial_122_1316" cx="0" cy="0" r="1" gradientUnits="userSpaceOnUse" gradientTransform="translate(28.5 28.5) rotate(90) scale(26.5)">
<stop offset="0.5" stop-color="#FF7500"/>
<stop offset="0.885" stop-color="#E06203"/>
<stop offset="1" stop-color="#AA4109"/>
</radialGradient>
</defs>
</svg>
