<svg width="57" height="57" viewBox="0 0 57 57" fill="none" xmlns="http://www.w3.org/2000/svg">
<circle cx="28.5" cy="28.5" r="28.5" fill="white"/>
<circle cx="28.5" cy="28.5" r="26.5" fill="url(#paint0_radial_122_1155)"/>
<path d="M19.8996 22.8972C19.8996 21.5863 20.9595 20.5265 22.2703 20.5265C23.5812 20.5265 24.6411 21.5863 24.6411 22.8972C24.6411 24.2081 23.5812 25.2679 22.2703 25.2679C20.9595 25.2679 19.8996 24.2081 19.8996 22.8972ZM26.8584 29.605H22.6748C22.6748 29.605 20.6248 25.6445 20.4016 25.254C19.6486 23.8873 18.4074 24.1105 17.8217 24.3475C16.5109 24.8914 15.3534 26.9275 15.2 29.5771C15.0745 31.6829 15.6741 33.2727 16.6643 34.207C17.2779 34.7788 17.9891 35.0437 18.9792 35.0437H23.1629V42.142C23.1629 42.7556 23.6649 43.2576 24.2785 43.2576C24.8921 43.2576 25.3941 42.7556 25.3941 42.142V33.9141C25.3941 33.3005 24.8921 32.8125 24.2785 32.8125H19.9554C19.3836 31.0135 19.4255 29.2982 19.5928 28.1965L21.1268 31.1111C21.3081 31.4597 21.6707 31.6689 22.0472 31.6689H26.7887V43.2437H27.4859V31.4597C27.737 31.2924 27.9043 30.9995 27.9043 30.6509C27.9043 30.0791 27.4302 29.605 26.8584 29.605Z" fill="white"/>
<path d="M32.088 21.935V20.9588H32.6458V21.935H33.873C34.3472 21.935 34.7377 22.3254 34.7377 22.7996V24.7241H29.8567V22.7996C29.8567 22.3254 30.2472 21.935 30.7214 21.935H32.088Z" fill="white"/>
<path d="M40.4553 16.3986C40.4553 17.7095 39.3815 18.7833 38.0567 18.7972C36.7319 18.7972 35.6581 17.7234 35.6581 16.3986C35.6581 15.0738 36.7319 14 38.0567 14C39.3815 14 40.4553 15.0738 40.4553 16.3986Z" fill="white"/>
<path d="M40.7342 18.6717C42.1148 18.6717 42.9097 20.0523 43.0352 20.3312C43.2723 20.8751 43.593 21.7676 43.5651 23.6084C43.5233 25.24 43.2583 28.5451 42.9515 31.9199C42.5332 36.4243 42.0451 41.0542 41.9475 41.9886C41.9196 42.6998 41.3339 43.2715 40.6227 43.2715C39.9533 43.2715 39.4094 42.7834 39.3118 42.1559C39.2017 41.6328 37.0131 31.4646 36.9698 28.2104H39.1432C40.1742 28.2104 41.0131 27.3716 41.0131 26.3405V23.1203C41.0131 22.9277 40.8571 22.7717 40.6645 22.7717C40.4719 22.7717 40.3158 22.9277 40.3158 23.1203V26.3405C40.3158 26.9871 39.7898 27.5132 39.1432 27.5132H32.6458C32.2275 27.5132 31.6697 27.053 31.6697 26.4812C31.6697 26.3557 31.6715 26.2302 31.7133 26.1186H29.02V25.4213H36.8295C36.9271 23.2877 37.9312 18.6717 40.7342 18.6717Z" fill="white"/>
<path d="M14.5341 27.2343H13.0001V43.2715H14.5341V37.5539H19.9729V43.2715H21.5069V36.0199H14.5341V27.2343Z" fill="white"/>
<defs>
<radialGradient id="paint0_radial_122_1155" cx="0" cy="0" r="1" gradientUnits="userSpaceOnUse" gradientTransform="translate(28.5 28.5) rotate(90) scale(26.5)">
<stop offset="0.5" stop-color="#FF7500"/>
<stop offset="0.885" stop-color="#E06203"/>
<stop offset="1" stop-color="#AA4109"/>
</radialGradient>
</defs>
</svg>
