<svg width="57" height="57" viewBox="0 0 57 57" fill="none" xmlns="http://www.w3.org/2000/svg">
<circle cx="28.5" cy="28.5" r="28.5" fill="white"/>
<circle cx="28.5" cy="28.5" r="26.5" fill="url(#paint0_radial_122_989)"/>
<path d="M29.9851 17.2928C29.9851 15.4442 31.492 14 33.2888 14C35.1435 14 36.5925 15.502 36.5925 17.2928C36.5925 19.1414 35.0856 20.5857 33.2888 20.5857C31.492 20.5857 29.9851 19.0837 29.9851 17.2928ZM35.0856 21.25C34.2451 20.7878 33.1729 21.1056 32.7092 21.9432L31.7818 23.6185C31.6659 22.752 31.4341 21.9432 31.2312 21.5966C30.7675 20.6434 30.159 20.2679 30.159 20.2679C26.9132 18.4193 25.1744 21.8277 25.1454 21.9432C24.8266 22.6942 24.3919 23.9363 24.4209 26.3626C24.5368 31.9084 27.7536 39.3894 27.7536 39.3894H21.5229C20.3927 39.3894 19.4073 40.0538 19.4073 41.2669C19.4073 42.3357 20.3347 43 21.436 43H30.101C31.4051 43 32.3904 42.2779 32.4484 39.8227L32.5353 29.5687L35.8391 23.5608C36.2448 22.7231 35.926 21.6833 35.0856 21.25Z" fill="white"/>
<defs>
<radialGradient id="paint0_radial_122_989" cx="0" cy="0" r="1" gradientUnits="userSpaceOnUse" gradientTransform="translate(28.5 28.5) rotate(90) scale(26.5)">
<stop offset="0.5" stop-color="#FF7500"/>
<stop offset="0.885" stop-color="#E06203"/>
<stop offset="1" stop-color="#AA4109"/>
</radialGradient>
</defs>
</svg>
