<svg width="57" height="57" viewBox="0 0 57 57" fill="none" xmlns="http://www.w3.org/2000/svg">
<circle cx="28.5" cy="28.5" r="28.5" fill="white"/>
<circle cx="28.5" cy="28.5" r="26.5" fill="url(#paint0_radial_120_143)"/>
<path d="M28.5064 18.2616C26.998 18.2616 25.7965 17.0855 25.7965 15.637C25.7965 14.1885 27.0108 13 28.5064 13C30.002 13 31.2163 14.1761 31.2163 15.6246C31.2163 17.0731 30.0148 18.2616 28.5064 18.2616ZM29.8102 23.0651C30.2193 22.6318 30.9095 22.6194 31.3314 23.0156L34.5782 26.024C35 26.4077 35 27.0763 34.591 27.4972C34.1819 27.9305 33.4916 27.9429 33.0698 27.5467L29.823 24.5383C29.414 24.1422 29.4012 23.486 29.8102 23.0651ZM29.1455 23.7584C29.1455 23.3994 29.2734 23.0651 29.529 22.8051C29.7974 22.5327 30.1681 22.3842 30.5388 22.3842C30.884 22.3842 31.2163 22.508 31.4592 22.7432L32.0216 23.2632C32.0216 23.1765 32.0216 23.1146 32.0216 23.1146H32.6352V23.8079L34.8466 25.8506C34.8977 25.9002 34.9489 25.9497 35 26.024V22.3099C35 20.4529 33.4277 18.9425 31.4975 18.9425H25.5025C23.5851 18.9425 22 20.4653 22 22.3099V30.4685C22 31.0998 22.5113 31.6198 23.176 31.6198C23.8279 31.6198 24.3648 31.1122 24.3648 30.4685V23.1146H24.9784V42.4649C24.9784 43.3191 25.6942 44 26.5762 44C27.4582 44 28.1613 43.3191 28.1613 42.4649V31.6941H28.8132V42.4649C28.8132 43.3191 29.5162 44 30.3982 44C31.2802 44 31.9833 43.3191 31.9833 42.4649C31.9833 41.5735 31.9961 32.6721 31.9961 27.002L29.5418 24.7117C29.2989 24.4393 29.1455 24.105 29.1455 23.7584Z" fill="white"/>
<defs>
<radialGradient id="paint0_radial_120_143" cx="0" cy="0" r="1" gradientUnits="userSpaceOnUse" gradientTransform="translate(28.5 28.5) rotate(90) scale(26.5)">
<stop offset="0.5" stop-color="#FF7500"/>
<stop offset="0.885" stop-color="#E06203"/>
<stop offset="1" stop-color="#AA4109"/>
</radialGradient>
</defs>
</svg>
