<svg width="57" height="57" viewBox="0 0 57 57" fill="none" xmlns="http://www.w3.org/2000/svg">
<circle cx="28.5" cy="28.5" r="28.5" fill="white"/>
<circle cx="28.5" cy="28.5" r="26.5" fill="url(#paint0_radial_122_1051)"/>
<path d="M28.1077 22.4536C29.2689 22.4536 30.2103 21.5123 30.2103 20.3511C30.2103 19.1898 29.2689 18.2485 28.1077 18.2485C26.9465 18.2485 26.0051 19.1898 26.0051 20.3511C26.0051 21.5123 26.9465 22.4536 28.1077 22.4536Z" fill="white"/>
<path d="M35.8191 19.9587L32.7001 16.8446C32.3285 16.4737 31.7092 16.4737 31.3376 16.8446C30.966 17.2156 30.966 17.834 31.3376 18.2049L33.7698 20.6333L32.0132 22.387C31.6866 22.7131 31.27 22.8704 30.8421 22.8704H28.6239H26.3718C25.6624 22.8704 24.9643 23.1403 24.4238 23.6799C24.4125 23.6911 22.5208 25.591 22.5208 25.591L20.0773 23.1515C19.7057 22.7805 19.0864 22.7805 18.7148 23.1515C18.3433 23.5225 18.3433 24.1408 18.7148 24.5118L21.8339 27.6259C22.2055 27.9969 22.8248 27.9969 23.1964 27.6259L25.1219 25.7035C25.167 25.6585 25.2458 25.6248 25.3133 25.6248C25.471 25.6248 25.5836 25.7484 25.5836 25.8946V28.3679V33.0446V42.9489C25.5836 43.7134 26.2029 44.3205 26.9573 44.3205C27.723 44.3205 28.3311 43.7021 28.3311 42.9489V33.3144C28.3311 33.157 28.4549 33.0446 28.6013 33.0446C28.759 33.0446 28.8716 33.1682 28.8716 33.3144V42.9489C28.8716 43.7134 29.4909 44.3205 30.2453 44.3205C31.011 44.3205 31.6191 43.7021 31.6191 42.9489V33.0446V25.4786L35.8191 21.319C36.1907 20.948 36.1907 20.341 35.8191 19.9587Z" fill="white"/>
<path d="M24.0611 13C23.7945 12.9998 23.5305 13.0562 23.2847 13.1659C23.0389 13.2757 22.8161 13.4365 22.6294 13.6391L22.3318 13.9586L22.0343 13.6391C21.8474 13.4369 21.6246 13.2763 21.3788 13.1667C21.133 13.0571 20.8691 13.0006 20.6026 13.0006C20.3361 13.0006 20.0723 13.0571 19.8265 13.1667C19.5807 13.2763 19.3579 13.4369 19.171 13.6391C18.7908 14.051 18.5778 14.6053 18.5778 15.1826C18.5778 15.76 18.7908 16.3143 19.171 16.7262L22.3318 20.1328L25.4927 16.7262C25.8729 16.3143 26.0859 15.76 26.0859 15.1826C26.0859 14.6053 25.8729 14.051 25.4927 13.6391C25.3059 13.4368 25.0831 13.2761 24.8373 13.1664C24.5915 13.0566 24.3276 13.0001 24.0611 13Z" fill="white"/>
<path d="M20.7279 13.398C21.1075 13.3841 21.4651 13.4833 21.7687 13.6653C21.4494 13.369 21.0229 13.1877 20.5549 13.1877C19.5681 13.1877 18.7654 13.9934 18.7654 14.9837C18.7654 15.2837 18.8392 15.5667 18.9693 15.8155C18.9298 15.6736 18.9059 15.5248 18.9003 15.371C18.8622 14.3197 19.6804 13.4363 20.7279 13.398Z" fill="#FFB97D"/>
<defs>
<radialGradient id="paint0_radial_122_1051" cx="0" cy="0" r="1" gradientUnits="userSpaceOnUse" gradientTransform="translate(28.5 28.5) rotate(90) scale(26.5)">
<stop offset="0.5" stop-color="#FF7500"/>
<stop offset="0.885" stop-color="#E06203"/>
<stop offset="1" stop-color="#AA4109"/>
</radialGradient>
</defs>
</svg>
