<svg width="57" height="57" viewBox="0 0 57 57" fill="none" xmlns="http://www.w3.org/2000/svg">
<circle cx="28.5" cy="28.5" r="28.5" fill="white"/>
<circle cx="28.5" cy="28.5" r="26.5" fill="url(#paint0_radial_120_237)"/>
<path d="M19.6924 20.004C20.9725 20.004 22.0147 18.9619 22.0147 17.6817C22.0147 16.4016 20.9726 15.3594 19.6924 15.3594C18.4123 15.3594 17.3702 16.4016 17.3702 17.6817C17.3702 18.9619 18.4124 20.004 19.6924 20.004ZM22.8157 31.3481V41.5906C22.8157 42.369 22.1847 43 21.4063 43C20.628 43 19.9971 42.3691 19.9969 41.5909L19.996 31.5586C19.996 31.5575 19.996 31.5575 19.996 31.5563C19.996 31.3706 19.8431 31.2188 19.6562 31.2188C19.4693 31.2188 19.3175 31.3706 19.3175 31.5586V41.5906C19.3175 42.369 18.6866 43 17.9082 43H17.9015C17.1232 43 16.4922 42.369 16.4922 41.5906V24.2342C16.4922 24.0501 16.3539 23.8854 16.17 23.8761C15.9739 23.8663 15.8125 24.0216 15.8125 24.2156V30.7847C15.8125 31.2852 15.4067 31.691 14.9062 31.691C14.4058 31.691 14 31.2852 14 30.7847V23.6334C14 22.0674 15.2694 20.7979 16.8354 20.7979H21.879C21.732 21.1998 21.6515 21.6334 21.6515 22.0856V29.7202C21.6518 30.4744 22.1396 31.1153 22.8157 31.3481ZM34.6686 22.0821V29.7209C34.6686 30.297 34.2016 30.7638 33.6257 30.7638C33.6026 30.7638 33.5794 30.763 33.556 30.7615C33.0018 30.7255 32.5828 30.2404 32.5828 29.685V22.4996C32.5828 22.3118 32.4304 22.1598 32.2431 22.1598C32.0118 22.1598 31.9033 22.329 31.9033 22.5125V41.4663C31.9033 42.3133 31.2167 42.9999 30.3697 42.9999C29.5241 42.9999 28.838 42.3153 28.8362 41.4697L28.8121 30.6988C28.8121 30.5307 28.6682 30.3868 28.5002 30.3868C28.2736 30.3868 28.1881 30.5673 28.1881 30.7204L28.1651 41.469C28.1632 42.3151 27.477 42.9999 26.6311 42.9999C25.7839 42.9999 25.0971 42.3131 25.0971 41.4659V22.4987C25.0971 22.3121 24.9459 22.1609 24.7593 22.1609C24.5449 22.1609 24.4216 22.3474 24.4216 22.5108C24.4209 23.6972 24.4185 27.6125 24.4178 29.7217C24.4176 30.2972 23.951 30.7632 23.3756 30.7632C22.7996 30.7632 22.3319 30.2962 22.3319 29.7202V22.0856C22.3319 20.3869 23.7089 19.0097 25.4077 19.0097H31.5487C33.2164 19.0097 34.6205 20.3779 34.6686 22.0821ZM43 23.6334V30.7848C43 31.2853 42.5942 31.6911 42.0938 31.6911C41.5933 31.6911 41.1875 31.2853 41.1875 30.7848V24.2157C41.1875 24.0218 41.0261 23.8664 40.83 23.8763C40.6461 23.8856 40.5078 24.0503 40.5078 24.2344V41.5906C40.5078 42.369 39.8768 43 39.0984 43H39.0917C38.3133 43 37.6824 42.369 37.6824 41.5906V31.5586C37.6824 31.3706 37.5306 31.2188 37.3437 31.2188C37.1568 31.2188 37.0039 31.3706 37.0039 31.5563C37.0039 31.5575 37.0039 31.5575 37.0039 31.5586L37.0029 41.5909C37.0028 42.3691 36.3719 43 35.5936 43C34.8152 43 34.1842 42.369 34.1842 41.5906V31.3488C34.8602 31.116 35.348 30.4753 35.348 29.7212V22.082V22.0723L35.3478 22.0628C35.3352 21.6189 35.2458 21.1931 35.0933 20.7978H40.1644C41.7306 20.7979 43 22.0674 43 23.6334ZM37.312 14.8175L39.9591 17.4646L37.312 20.1116L34.665 17.4646L37.312 14.8175ZM25.2855 14L28.5001 18.3371L31.7145 14H25.2855Z" fill="white"/>
<defs>
<radialGradient id="paint0_radial_120_237" cx="0" cy="0" r="1" gradientUnits="userSpaceOnUse" gradientTransform="translate(28.5 28.5) rotate(90) scale(26.5)">
<stop offset="0.5" stop-color="#FF7500"/>
<stop offset="0.885" stop-color="#E06203"/>
<stop offset="1" stop-color="#AA4109"/>
</radialGradient>
</defs>
</svg>
