<svg width="57" height="57" viewBox="0 0 57 57" fill="none" xmlns="http://www.w3.org/2000/svg">
<circle cx="28.5" cy="28.5" r="28.5" fill="white"/>
<circle cx="28.5" cy="28.5" r="26.5" fill="url(#paint0_radial_120_160)"/>
<path d="M28.6833 25.4424C31.2907 25.4424 33.4045 23.3287 33.4045 20.7212C33.4045 18.1138 31.2907 16 28.6833 16C26.0758 16 23.962 18.1138 23.962 20.7212C23.962 23.3287 26.0758 25.4424 28.6833 25.4424Z" fill="white"/>
<path d="M21.1468 41V33.6933C21.1468 33.3336 21.3716 33.1088 21.7313 33.1088C22.091 33.1088 22.3159 33.3336 22.3159 33.6933V41H35.288V33.6933C35.288 33.3336 35.5128 33.1088 35.8725 33.1088C36.2322 33.1088 36.4571 33.3336 36.4571 33.6933V41H40.5938V32.5018C40.5938 29.2644 37.9409 26.6115 34.7035 26.6115H22.9229C19.6855 26.6115 17.0326 29.2644 17.0326 32.5018V41H21.1468Z" fill="white"/>
<path d="M30.5209 29.6202C30.2441 29.6199 29.9701 29.6785 29.7148 29.7924C29.4596 29.9064 29.2283 30.0734 29.0345 30.2837L28.7256 30.6155L28.4166 30.2837C28.2226 30.0738 27.9912 29.9071 27.736 29.7932C27.4808 29.6794 27.2069 29.6208 26.9302 29.6208C26.6535 29.6208 26.3796 29.6794 26.1244 29.7932C25.8692 29.9071 25.6378 30.0738 25.4438 30.2837C25.0491 30.7114 24.8279 31.2869 24.8279 31.8863C24.8279 32.4857 25.0491 33.0612 25.4438 33.4889L28.7256 37.0258L32.0073 33.4889C32.4021 33.0612 32.6232 32.4857 32.6232 31.8863C32.6232 31.2869 32.4021 30.7114 32.0073 30.2837C31.8133 30.0737 31.582 29.9068 31.3268 29.7929C31.0716 29.679 30.7977 29.6203 30.5209 29.6202Z" fill="#FF7500"/>
<path d="M27.06 30.0334C27.4542 30.019 27.8254 30.122 28.1406 30.311C27.8092 30.0034 27.3663 29.8151 26.8804 29.8151C25.8559 29.8151 25.0225 30.6516 25.0225 31.6798C25.0225 31.9913 25.0991 32.2851 25.2342 32.5434C25.1931 32.3961 25.1684 32.2416 25.1626 32.0819C25.1229 30.9904 25.9724 30.0732 27.06 30.0334Z" fill="#FFEEE3"/>
<defs>
<radialGradient id="paint0_radial_120_160" cx="0" cy="0" r="1" gradientUnits="userSpaceOnUse" gradientTransform="translate(28.5 28.5) rotate(90) scale(26.5)">
<stop offset="0.5" stop-color="#FF7500"/>
<stop offset="0.885" stop-color="#E06203"/>
<stop offset="1" stop-color="#AA4109"/>
</radialGradient>
</defs>
</svg>
