<svg width="57" height="57" viewBox="0 0 57 57" fill="none" xmlns="http://www.w3.org/2000/svg">
<circle cx="28.5" cy="28.5" r="28.5" fill="white"/>
<circle cx="28.5" cy="28.5" r="26.5" fill="url(#paint0_radial_122_1009)"/>
<path d="M29.0961 18.6029C30.3328 18.6029 31.3396 17.5701 31.3396 16.3015C31.3396 15.0328 30.3328 14 29.0961 14C27.8594 14 26.8525 15.0328 26.8525 16.3015C26.8525 17.5701 27.8594 18.6029 29.0961 18.6029ZM16.9046 18.6029C15.6679 18.6029 14.6611 17.5701 14.6611 16.3015C14.6611 15.0328 15.6679 14 16.9046 14C18.1413 14 19.1482 15.0328 19.1482 16.3015C19.1482 17.5701 18.1413 18.6029 16.9046 18.6029ZM41.3293 18.6029C42.566 18.6029 43.5729 17.5701 43.5729 16.3015C43.5729 15.0328 42.566 14 41.3293 14C40.0926 14 39.0858 15.0328 39.0858 16.3015C39.0858 17.5701 40.0926 18.6029 41.3293 18.6029ZM44.2298 29.7366C44.2298 30.1264 43.6782 41.4744 43.6782 41.4744C43.6782 42.3357 43.0306 43 42.191 43C41.3514 43 40.7038 42.3357 40.7038 41.4744C40.7038 41.4744 39.6699 29.6628 39.3846 25.2526L37.0162 28.1724C36.8129 28.4228 36.513 28.5652 36.1994 28.5652C36.1587 28.5652 36.1178 28.5629 36.0769 28.558C35.7203 28.5155 35.4087 28.2915 35.2484 27.962L32.4092 22.1299V41.3362C32.4092 42.2512 31.7489 42.9998 30.9264 42.9998C30.104 42.9998 29.4437 42.2512 29.4437 41.3362V30.8199C29.4437 30.6535 29.3046 30.5109 29.1424 30.5109C28.9802 30.5109 28.8411 30.6535 28.8411 30.8199V41.3363C28.8411 42.2513 28.1808 42.9999 27.3584 42.9999C26.5359 42.9999 25.8756 42.2513 25.8756 41.3363V22.0247L22.9851 27.9622C22.8248 28.2916 22.5132 28.5156 22.1568 28.5581C22.1159 28.5629 22.075 28.5654 22.0343 28.5654C21.7208 28.5654 21.4207 28.423 21.2175 28.1725L18.8493 25.2526C18.564 29.6628 17.5302 41.4743 17.5302 41.4743C17.5302 42.3355 16.8825 42.9999 16.0429 42.9999C15.2034 42.9999 14.5557 42.3355 14.5557 41.4743C14.5557 41.4743 14.0041 30.1264 14.0041 29.7366C14.0041 29.7366 14 20.9567 14 20.9283C14 19.9474 14.7308 19.2539 15.6323 19.2539C16.3152 19.2539 16.8408 19.4907 17.3898 20.0558C17.4055 20.0721 21.811 25.4948 21.811 25.4948C21.8036 25.4857 23.762 21.4217 24.1514 20.6947C24.6726 19.722 25.4246 19.2535 26.3829 19.2467C26.3852 19.2467 26.3879 19.2461 26.39 19.2461C26.39 19.2461 31.7977 19.2476 31.8307 19.2488C32.7988 19.2461 33.5579 19.715 34.0829 20.6952C34.0938 20.7145 36.4231 25.4948 36.4231 25.4948C36.4231 25.4948 40.8279 20.0721 40.8447 20.0555C41.3814 19.4784 41.9905 19.2539 42.6018 19.2539C43.5033 19.2539 44.234 20.0035 44.234 20.9283C44.2339 21.2648 44.2298 29.7366 44.2298 29.7366Z" fill="white"/>
<defs>
<radialGradient id="paint0_radial_122_1009" cx="0" cy="0" r="1" gradientUnits="userSpaceOnUse" gradientTransform="translate(28.5 28.5) rotate(90) scale(26.5)">
<stop offset="0.5" stop-color="#FF7500"/>
<stop offset="0.885" stop-color="#E06203"/>
<stop offset="1" stop-color="#AA4109"/>
</radialGradient>
</defs>
</svg>
