<svg width="57" height="57" viewBox="0 0 57 57" fill="none" xmlns="http://www.w3.org/2000/svg">
<circle cx="28.5" cy="28.5" r="28.5" fill="white"/>
<circle cx="28.5" cy="28.5" r="26.5" fill="url(#paint0_radial_122_1427)"/>
<path d="M29.3842 20.6923C31.2323 20.6923 32.7304 19.1942 32.7304 17.3462C32.7304 15.4981 31.2323 14 29.3842 14C27.5362 14 26.0381 15.4981 26.0381 17.3462C26.0381 19.1942 27.5362 20.6923 29.3842 20.6923Z" fill="white"/>
<path d="M17.8034 35.7101C18.3963 35.7101 18.9151 35.445 19.2363 35.0113C19.261 34.9873 19.3104 34.9632 19.3104 34.9391L23.3126 31.3008C23.4608 31.1563 23.5843 30.9876 23.6584 30.7949L24.9431 28.1445L24.8689 32.8429L19.3104 35.8065C18.2975 36.3606 17.8034 37.5171 18.174 38.6014C18.5446 39.6856 19.6316 40.3362 20.768 40.1916L29.1181 38.0713L37.4683 40.1916C38.6047 40.3362 39.7164 39.6856 40.0623 38.6014C40.4328 37.5171 39.9387 36.3606 38.9258 35.8065L33.3426 32.8429L33.2685 28.1445L34.5531 30.7949C34.6272 30.9876 34.7755 31.1563 34.899 31.3008L38.9011 34.9391C38.9258 34.9632 38.9505 34.9873 38.9753 35.0113C39.2964 35.4209 39.8152 35.7101 40.4081 35.7101C41.3963 35.7101 42.2115 34.915 42.2115 33.9512C42.2115 33.4211 41.9645 32.9392 41.5939 32.626C41.5445 32.5537 41.4951 32.5056 41.4457 32.4574L37.6659 29.036L35.2202 23.928C34.5531 22.6269 33.5897 21.8077 32.1568 21.8077H26.0054C24.5725 21.8077 23.609 22.6269 22.942 23.928L20.5703 29.0119L16.7905 32.4333C16.7411 32.4815 16.6917 32.5537 16.6423 32.6019C16.247 32.9152 16 33.397 16 33.9271C16 34.915 16.8152 35.7101 17.8034 35.7101Z" fill="white"/>
<path d="M41.6538 41.3269H16.5576V43H41.6538V41.3269Z" fill="white"/>
<defs>
<radialGradient id="paint0_radial_122_1427" cx="0" cy="0" r="1" gradientUnits="userSpaceOnUse" gradientTransform="translate(28.5 28.5) rotate(90) scale(26.5)">
<stop offset="0.5" stop-color="#FF7500"/>
<stop offset="0.885" stop-color="#E06203"/>
<stop offset="1" stop-color="#AA4109"/>
</radialGradient>
</defs>
</svg>
