<svg width="57" height="57" viewBox="0 0 57 57" fill="none" xmlns="http://www.w3.org/2000/svg">
<circle cx="28.5" cy="28.5" r="28.5" fill="white"/>
<circle cx="28.5" cy="28.5" r="26.5" fill="url(#paint0_radial_122_1293)"/>
<path d="M29.2117 20.7569C30.5513 20.7569 31.6373 19.6709 31.6373 18.3313C31.6373 16.9917 30.5513 15.9057 29.2117 15.9057C27.8721 15.9057 26.7861 16.9917 26.7861 18.3313C26.7861 19.6709 27.8721 20.7569 29.2117 20.7569Z" fill="white"/>
<path d="M36.362 13C35.7809 13 35.3008 13.4801 35.3008 14.0612V18.4702L32.9384 20.8326C32.5847 21.1863 32.1046 21.3632 31.6372 21.3632H29.2116H26.786C26.3186 21.3632 25.8385 21.1863 25.4848 20.8326L23.1224 18.4702V14.0612C23.1224 13.4801 22.6423 13 22.0612 13C21.4801 13 21 13.4801 21 14.0612V18.9124C21 19.2156 21.1263 19.4809 21.3285 19.6704L25.8764 24.2183V24.3826V32.5689V43.484C25.8764 44.3178 26.5586 45 27.3924 45C28.2262 45 28.9084 44.3178 28.9084 43.484V32.8721C28.9084 32.7079 29.0474 32.5689 29.2116 32.5689C29.3758 32.5689 29.5148 32.7079 29.5148 32.8721V43.484C29.5148 44.3178 30.197 45 31.0308 45C31.8646 45 32.5468 44.3178 32.5468 43.484V32.5689V24.231L37.0947 19.683C37.2969 19.4935 37.4232 19.2156 37.4232 18.925V14.0612C37.4232 13.4801 36.9432 13 36.362 13Z" fill="white"/>
<defs>
<radialGradient id="paint0_radial_122_1293" cx="0" cy="0" r="1" gradientUnits="userSpaceOnUse" gradientTransform="translate(28.5 28.5) rotate(90) scale(26.5)">
<stop offset="0.5" stop-color="#FF7500"/>
<stop offset="0.885" stop-color="#E06203"/>
<stop offset="1" stop-color="#AA4109"/>
</radialGradient>
</defs>
</svg>
