<svg width="57" height="57" viewBox="0 0 57 57" fill="none" xmlns="http://www.w3.org/2000/svg">
<circle cx="28.5" cy="28.5" r="28.5" fill="white"/>
<circle cx="28.5" cy="28.5" r="26.5" fill="url(#paint0_radial_122_1134)"/>
<path d="M25.762 18.1841C28.3435 18.1841 30.4396 20.2771 30.4396 22.8547C30.4396 25.4324 28.3435 27.5474 25.762 27.5474C23.1806 27.5474 21.0845 25.4544 21.0845 22.8768C21.0845 20.2991 23.1806 18.1841 25.762 18.1841ZM39.0444 37.8801H33.1755L35.9114 33.1654C36.4629 32.174 36.132 30.9182 35.1612 30.3674C34.1904 29.8166 32.9328 30.1471 32.3812 31.1165L29.6453 35.8312L25.5855 28.8693C25.1884 28.1423 24.4162 27.7677 23.4453 27.7677C23.313 27.7677 23.0261 27.8118 22.8938 27.8559C22.7614 27.8779 22.5628 27.944 22.4304 27.988C18.5031 29.2659 15.3921 35.5228 15.3921 42C15.5024 42 24.8133 42 27.1741 42C27.0859 41.8678 26.9976 41.7577 26.9094 41.6255L22.1877 33.4959C22.0333 33.2095 22.1436 32.857 22.4084 32.7028C22.6952 32.5485 23.0482 32.6587 23.2026 32.9231L27.8802 40.9866C28.2332 41.5814 28.873 42 29.6232 42H39.0444C40.1917 42 41.0963 41.0747 41.0963 39.9511C41.0963 38.7834 40.1697 37.8801 39.0444 37.8801Z" fill="white"/>
<path d="M40.814 16.2894C39.3137 14.6591 36.7984 14.5709 35.1657 16.047C33.533 17.5231 33.4227 20.0567 34.923 21.6871C36.4233 23.3174 38.9386 23.4055 40.5713 21.9294C42.204 20.4092 42.2923 17.8756 40.814 16.2894ZM40.1742 21.4668C38.7841 22.7446 36.6219 22.6344 35.3863 21.2685C34.1066 19.8805 34.1949 17.7214 35.5628 16.4436C36.9308 15.1658 39.1151 15.2759 40.3727 16.6639C41.6745 18.0299 41.5642 20.1889 40.1742 21.4668ZM37.9237 16.1131C37.7471 16.1131 37.6148 16.2453 37.6148 16.4216V18.7349H35.7394C35.5628 18.7349 35.4305 18.867 35.4305 19.0433C35.4305 19.2196 35.5628 19.3517 35.7394 19.3517H37.9237C38.0119 19.3517 38.1002 19.3077 38.1443 19.2416C38.1884 19.1975 38.2546 19.1094 38.2546 19.0213V16.4216C38.2326 16.2673 38.0781 16.1131 37.9237 16.1131Z" fill="white"/>
<defs>
<radialGradient id="paint0_radial_122_1134" cx="0" cy="0" r="1" gradientUnits="userSpaceOnUse" gradientTransform="translate(28.5 28.5) rotate(90) scale(26.5)">
<stop offset="0.5" stop-color="#FF7500"/>
<stop offset="0.885" stop-color="#E06203"/>
<stop offset="1" stop-color="#AA4109"/>
</radialGradient>
</defs>
</svg>
