<svg width="57" height="57" viewBox="0 0 57 57" fill="none" xmlns="http://www.w3.org/2000/svg">
<circle cx="28.5" cy="28.5" r="28.5" fill="white"/>
<circle cx="28.5" cy="28.5" r="26.5" fill="url(#paint0_radial_122_1074)"/>
<path d="M40.3291 29.2303H24.6041V30.5496H40.3291V29.2303Z" fill="white"/>
<path d="M23.0847 19.7953C24.685 19.7953 25.9823 18.498 25.9823 16.8976C25.9823 15.2973 24.685 14 23.0847 14C21.4843 14 20.187 15.2973 20.187 16.8976C20.187 18.498 21.4843 19.7953 23.0847 19.7953Z" fill="white"/>
<path d="M27.478 31.221H22.5897V27.593L20.0926 23.2937C19.9983 23.117 20.069 22.905 20.2103 22.7989C20.387 22.7047 20.5991 22.7754 20.7051 22.9167L23.6027 27.8993C23.8265 28.2644 24.2152 28.5353 24.6864 28.5353H29.6689C30.3757 28.5353 30.9411 27.9464 30.9411 27.2632C30.9411 26.5565 30.3521 25.9911 29.6689 25.9911L25.4991 26.0382L22.1774 20.4549C21.9301 20.0191 21.4471 19.7717 20.8582 19.7717C20.7875 19.7717 20.5873 19.7953 20.5166 19.8188C20.4459 19.8424 20.3164 19.866 20.2457 19.8895C17.8192 20.7023 15.8992 24.554 15.8992 28.5236C15.8757 29.725 15.8992 30.7262 15.9699 31.6921C15.8757 32.8465 16.5588 33.9773 17.6896 34.3895C17.9841 34.4838 18.2786 34.5662 18.5731 34.5662H25.8407V41.3509C25.8407 42.2815 26.571 43 27.4898 43C28.4203 43 29.1389 42.2697 29.1389 41.3509V32.8818C29.1389 32.4695 28.9622 32.0219 28.6441 31.7275C28.2908 31.3976 27.8667 31.221 27.478 31.221Z" fill="white"/>
<path d="M38.6449 28.2762L38.6685 28.2997L41.7075 20.8436L40.7298 20.4313L37.9264 27.2985H31.6246V28.3822H38.6449V28.2762Z" fill="white"/>
<defs>
<radialGradient id="paint0_radial_122_1074" cx="0" cy="0" r="1" gradientUnits="userSpaceOnUse" gradientTransform="translate(28.5 28.5) rotate(90) scale(26.5)">
<stop offset="0.5" stop-color="#FF7500"/>
<stop offset="0.885" stop-color="#E06203"/>
<stop offset="1" stop-color="#AA4109"/>
</radialGradient>
</defs>
</svg>
