<svg width="57" height="57" viewBox="0 0 57 57" fill="none" xmlns="http://www.w3.org/2000/svg">
<circle cx="28.5" cy="28.5" r="28.5" fill="white"/>
<circle cx="28.5" cy="28.5" r="26.5" fill="url(#paint0_radial_122_1175)"/>
<path d="M26.8404 19.5632C27.8645 18.5391 27.8645 16.8786 26.8404 15.8544C25.8162 14.8302 24.1557 14.8302 23.1315 15.8544C22.1074 16.8786 22.1074 18.5391 23.1315 19.5632C24.1557 20.5874 25.8162 20.5874 26.8404 19.5632Z" fill="white"/>
<path d="M35.1919 19.5681C36.2161 18.5439 36.2161 16.8834 35.1919 15.8593C34.1677 14.8351 32.5072 14.8351 31.4831 15.8593C30.4589 16.8834 30.4589 18.5439 31.4831 19.5681C32.5072 20.5923 34.1677 20.5923 35.1919 19.5681Z" fill="white"/>
<path d="M44.7384 25.2302L38.9848 19.4766C38.2088 18.7273 36.951 18.7273 36.2017 19.4766C36.0411 19.6372 35.4524 20.2259 35.2918 20.3865C35.1045 20.5738 34.9707 20.8147 34.8637 21.0288L33.2312 25.4978L29.1636 27.3711L25.0959 25.4978L23.4635 21.0288C23.3565 20.7879 23.2227 20.5738 23.0353 20.3865C22.8748 20.2259 22.286 19.6372 22.1255 19.4766C21.3762 18.7273 20.1452 18.7273 19.3423 19.4766L13.5887 25.2302C13.1873 25.6316 13 26.1133 13 26.6485V40.2163C13 41.1262 13.7225 41.8487 14.6324 41.8487C15.5423 41.8487 16.2648 41.1262 16.2648 40.2163V29.4584C16.6127 29.4049 16.9874 29.1908 17.2817 28.9232L22.1522 24.0527L23.1424 26.7288C23.2494 27.0232 23.4635 27.264 23.7311 27.3711L28.4678 29.5922C28.7086 29.6993 28.9495 29.726 29.1636 29.6725C29.4044 29.726 29.6453 29.6993 29.8594 29.5922L34.596 27.3711C34.8637 27.2373 35.0777 27.0232 35.1848 26.7288L36.1749 24.0527L41.0454 28.9232C41.3398 29.1908 41.6877 29.3782 42.0623 29.4584V40.1896C42.0623 41.0994 42.7849 41.822 43.6948 41.822C44.6046 41.822 45.3272 41.0994 45.3272 40.1896V26.6218C45.3272 26.1133 45.1398 25.6049 44.7384 25.2302Z" fill="white"/>
<defs>
<radialGradient id="paint0_radial_122_1175" cx="0" cy="0" r="1" gradientUnits="userSpaceOnUse" gradientTransform="translate(28.5 28.5) rotate(90) scale(26.5)">
<stop offset="0.5" stop-color="#FF7500"/>
<stop offset="0.885" stop-color="#E06203"/>
<stop offset="1" stop-color="#AA4109"/>
</radialGradient>
</defs>
</svg>
