<svg width="57" height="57" viewBox="0 0 57 57" fill="none" xmlns="http://www.w3.org/2000/svg">
<circle cx="28.5" cy="28.5" r="28.5" fill="white"/>
<circle cx="28.5" cy="28.5" r="26.5" fill="url(#paint0_radial_122_1033)"/>
<path d="M39.0125 20.2376C40.2853 20.2376 41.3194 21.2717 41.3194 22.5445C41.3194 23.8173 40.2853 24.8515 39.0125 24.8515C37.7397 24.8515 36.7056 23.806 36.7056 22.5332C36.7056 21.2604 37.7397 20.2376 39.0125 20.2376ZM35.7964 23.7037C35.2169 23.2718 34.3873 23.1241 33.569 23.4423C32.1713 23.9878 27.6824 25.8288 25.9323 26.5561C25.33 26.8061 25.0346 27.4993 25.2846 28.113C25.5346 28.7266 26.2278 29.0107 26.8415 28.7721L30.2848 27.3743L28.5915 29.6358C28.387 29.9199 28.2733 30.1813 28.2052 30.454L26.5687 36.6702C26.5574 36.727 26.5233 36.7725 26.4892 36.8066L22.4094 40.6817C22.0117 41.0568 21.898 41.6136 22.0685 42.1023H15V43H34.7396C35.4782 43 36.0805 42.3977 36.0805 41.6591V36.8066C36.0805 36.0565 35.7964 35.3406 35.2964 34.7951L32.5349 31.8177L36.251 26.8402C36.9783 25.8288 36.7737 24.431 35.7964 23.7037ZM33.3986 36.7838V41.6363C33.3986 41.7954 33.4213 41.9432 33.4781 42.0795H24.7959L28.3302 38.7271C28.7393 38.3407 29.0234 37.8521 29.1598 37.318L30.228 33.2496L33.3304 36.5906C33.3759 36.6361 33.3986 36.7043 33.3986 36.7838Z" fill="white"/>
<path d="M28.7279 23.6696C31.3985 23.5105 33.4213 21.2149 33.2509 18.5443C33.0918 15.8624 30.7962 13.8396 28.1256 14.01C25.455 14.1691 23.4322 16.4761 23.6027 19.1353C23.7618 21.7945 26.0573 23.8287 28.7279 23.6696ZM27.3415 17.8398C27.2051 17.5784 27.5915 17.4306 27.7847 17.2375C28.0347 16.9761 28.5688 16.5442 28.5006 16.3851C28.4438 16.2147 27.8983 15.726 27.6029 15.8397C27.546 15.8397 27.1938 16.226 27.1256 16.2829C27.1256 16.1465 27.1028 16.0783 27.1028 15.9533C27.1028 15.8624 26.9324 15.7942 26.9437 15.726C26.9551 15.5783 27.3301 15.2942 27.4097 15.1805C27.3301 15.1351 27.0915 14.9533 27.0233 14.9873C26.8642 15.0783 26.6596 15.1351 26.4892 15.2146C26.4892 15.1578 26.4778 15.0896 26.4665 15.0555C26.796 14.8851 27.1597 14.7601 27.5347 14.6691L27.8642 14.7942L28.1143 15.0555L28.3643 15.2942C28.3643 15.2942 28.512 15.351 28.5688 15.351C28.6484 15.3396 28.8757 15.0328 28.8757 15.0328L28.7734 14.7942L28.762 14.5896C29.4325 14.6464 30.0462 14.851 30.603 15.1919C30.5121 15.2033 30.3985 15.2146 30.2848 15.2487C30.2394 15.226 29.978 15.2715 29.9893 15.3851C30.0007 15.476 30.4553 15.8397 30.6598 16.1692C30.853 16.4988 31.4099 16.7147 31.5121 17.0784C31.6144 17.5102 31.4553 18.067 31.5235 18.5898C31.6031 19.1012 32.1485 19.6239 32.1485 19.6239C32.1485 19.6239 32.3985 19.7035 32.5917 19.6467C32.444 20.3967 32.1144 21.0899 31.5917 21.6808C31.0121 22.34 30.2848 22.7945 29.4552 22.9877C29.5575 22.6923 29.7507 22.4081 29.9325 22.249C30.0916 22.1013 30.2962 21.8399 30.3644 21.6467C30.4439 21.4422 30.5348 21.2604 30.6598 21.0672C30.8076 20.8058 30.2053 20.4421 30.0007 20.374C29.5575 20.2149 29.2166 19.9876 28.8416 19.7489C28.5575 19.5785 27.7051 19.9762 27.3869 19.8512C26.9551 19.6921 26.8074 19.5557 26.421 19.3057C26.0232 19.0444 26.1369 18.4875 26.1142 18.0784C26.4096 18.0784 26.8187 17.9534 27.0233 18.1807C27.0801 18.2602 27.3188 18.5671 27.4551 18.4421C27.6142 18.3057 27.3983 17.9307 27.3415 17.8398ZM24.9777 16.3283C25.0005 16.5329 25.1141 16.7033 25.1141 16.8511C25.1141 17.4306 25.0687 17.7829 25.4323 18.2375C25.58 18.408 25.6255 18.6807 25.6937 18.908C25.7732 19.1125 26.0119 19.2148 26.2051 19.3398C26.5687 19.5785 26.9097 19.8739 27.296 20.0785C27.546 20.2149 27.6938 20.283 27.6597 20.5899C27.6142 20.8285 27.6142 20.9763 27.5006 21.1922C27.4779 21.2717 27.6711 21.6581 27.7392 21.7149C27.9324 21.874 28.1256 22.0331 28.3302 22.1809C28.6484 22.4195 28.3302 22.7604 28.2052 23.1241C27.2619 23.0673 26.3642 22.6923 25.6369 22.0559C24.7846 21.3058 24.2732 20.249 24.205 19.1239C24.1027 18.0784 24.3527 17.1238 24.9777 16.3283Z" fill="white"/>
<defs>
<radialGradient id="paint0_radial_122_1033" cx="0" cy="0" r="1" gradientUnits="userSpaceOnUse" gradientTransform="translate(28.5 28.5) rotate(90) scale(26.5)">
<stop offset="0.5" stop-color="#FF7500"/>
<stop offset="0.885" stop-color="#E06203"/>
<stop offset="1" stop-color="#AA4109"/>
</radialGradient>
</defs>
</svg>
