<svg width="57" height="57" viewBox="0 0 57 57" fill="none" xmlns="http://www.w3.org/2000/svg">
<circle cx="28.5" cy="28.5" r="28.5" fill="white"/>
<circle cx="28.5" cy="28.5" r="26.5" fill="url(#paint0_radial_122_1464)"/>
<path d="M18.219 20.1954C19.4888 20.1954 20.5183 19.166 20.5183 17.8961C20.5183 16.6262 19.4888 15.5968 18.219 15.5968C16.9491 15.5968 15.9197 16.6262 15.9197 17.8961C15.9197 19.166 16.9491 20.1954 18.219 20.1954Z" fill="white"/>
<path d="M26.2531 21.2234L22.3307 22.6571L18.5436 20.8988C18.3272 20.8177 18.1108 20.7635 17.8674 20.7635C17.651 20.7635 16.9206 20.7635 16.7312 20.7635C15.7845 20.7635 15.0271 21.548 15 22.4948V29.6362C15 30.1231 15.1894 30.5559 15.514 30.8805C15.514 30.8805 16.1361 42.5393 16.1361 42.5934C16.1361 43.3779 16.7583 44 17.5428 44C18.2731 44 18.8953 43.432 18.9494 42.7016V42.6204V42.5934L19.3281 30.637C19.5175 30.3665 19.6257 30.0149 19.6257 29.6903V23.6039L21.8979 24.6588C22.1414 24.7941 22.4389 24.7941 22.6824 24.7129L27.0105 23.144C27.5515 22.9276 27.7949 22.3866 27.6326 21.8456C27.3621 21.3046 26.7941 21.0341 26.2531 21.2234Z" fill="white"/>
<path d="M26.307 13C24.3864 13 22.8175 13.8115 22.8175 14.8124C22.8175 15.2182 23.0609 15.5969 23.4937 15.8944L22.4658 16.8682L24.7651 16.4354C25.225 16.5436 25.7389 16.6248 26.307 16.6248C28.2276 16.6248 29.7965 15.8133 29.7965 14.8124C29.7695 13.8115 28.2276 13 26.307 13Z" fill="white"/>
<path d="M39.6161 20.1954C40.8859 20.1954 41.9154 19.166 41.9154 17.8961C41.9154 16.6262 40.8859 15.5968 39.6161 15.5968C38.3462 15.5968 37.3168 16.6262 37.3168 17.8961C37.3168 19.166 38.3462 20.1954 39.6161 20.1954Z" fill="white"/>
<path d="M41.0767 20.7635C40.8603 20.7635 40.1299 20.7635 39.9406 20.7635C39.67 20.7635 39.3184 20.8718 39.129 21.0341L35.7477 24.2801L31.8254 22.8464C31.2844 22.63 30.7163 22.9276 30.4728 23.4686C30.2835 24.0096 30.554 24.5777 31.095 24.767L35.4231 26.336C35.6666 26.4171 35.9641 26.4171 36.2076 26.2819L38.2093 24.74V29.6632C38.2364 30.0149 38.3446 30.3665 38.5069 30.61L38.8856 42.5663V42.5934V42.6745C38.9397 43.4049 39.5348 43.973 40.2922 43.973C41.0767 43.973 41.6988 43.3508 41.6988 42.5663C41.6988 42.5393 42.321 30.8534 42.321 30.8534C42.6456 30.5288 42.835 30.096 42.835 29.6091V22.4948C42.7809 21.548 42.0235 20.7635 41.0767 20.7635Z" fill="white"/>
<defs>
<radialGradient id="paint0_radial_122_1464" cx="0" cy="0" r="1" gradientUnits="userSpaceOnUse" gradientTransform="translate(28.5 28.5) rotate(90) scale(26.5)">
<stop offset="0.5" stop-color="#FF7500"/>
<stop offset="0.885" stop-color="#E06203"/>
<stop offset="1" stop-color="#AA4109"/>
</radialGradient>
</defs>
</svg>
