<svg width="57" height="57" viewBox="0 0 57 57" fill="none" xmlns="http://www.w3.org/2000/svg">
<circle cx="28.5" cy="28.5" r="28.5" fill="white"/>
<circle cx="28.5" cy="28.5" r="26.5" fill="url(#paint0_radial_122_1446)"/>
<path d="M33.0319 32.2032H29.0071H24.9822C22.5333 32.2032 21 34.2263 21 36.7604V43H23.7471V37.4845C23.7471 37.2289 23.9601 37.0586 24.173 37.0586C24.4286 37.0586 24.5989 37.2289 24.5989 37.4845V42.9787H33.4365V37.4845C33.4365 37.2289 33.6494 37.0586 33.8624 37.0586C34.1179 37.0586 34.2883 37.2715 34.2883 37.4845V42.9787H37.0354V36.7817C37.078 34.2263 35.5234 32.2032 33.0319 32.2032ZM25.4294 27.9654C25.4294 29.9459 27.0266 31.5431 29.0071 31.5431C30.9875 31.5431 32.5847 29.9459 32.5847 27.9654C32.5847 25.985 30.9875 24.3878 29.0071 24.3878C27.0266 24.3878 25.4294 25.985 25.4294 27.9654Z" fill="white"/>
<path d="M23.4409 21.1395L23.9964 21.1359H24.1288C26.428 21.1359 27.6162 21.4983 28.1276 21.7205H22.5442V14.7276H23.4409V21.1395Z" fill="white"/>
<path d="M24.527 14H24.5279C25.6536 14 28.2112 14.0944 28.7981 14.9301V21.4732C28.7981 21.4732 27.7662 20.5963 24.1307 20.5963H23.9927V14.0081C23.9927 14.0081 24.1996 14 24.527 14Z" fill="white"/>
<path d="M30.0856 21.7205C30.597 21.4983 31.7852 21.1359 34.0844 21.1359L34.2168 21.1358L34.7723 21.1394V14.7276H35.669V21.7205H30.0856Z" fill="white"/>
<path d="M29.4151 21.4731V14.93C30.002 14.0944 32.5596 14 33.6853 14H33.6862C34.0136 14 34.2205 14.008 34.2205 14.008V20.5962H34.0825C30.447 20.5962 29.4151 21.4731 29.4151 21.4731Z" fill="white"/>
<defs>
<radialGradient id="paint0_radial_122_1446" cx="0" cy="0" r="1" gradientUnits="userSpaceOnUse" gradientTransform="translate(28.5 28.5) rotate(90) scale(26.5)">
<stop offset="0.5" stop-color="#FF7500"/>
<stop offset="0.885" stop-color="#E06203"/>
<stop offset="1" stop-color="#AA4109"/>
</radialGradient>
</defs>
</svg>
